<svg xmlns="http://www.w3.org/2000/svg" xmlns:xlink="http://www.w3.org/1999/xlink" width="1157.262" height="949.678" viewBox="0 0 1157.262 949.678">
  <defs>
    <linearGradient id="linear-gradient" x1="0.5" y1="1" x2="0.5" gradientUnits="objectBoundingBox">
      <stop offset="0" stop-color="gray" stop-opacity="0.251"/>
      <stop offset="0.54" stop-color="gray" stop-opacity="0.122"/>
      <stop offset="1" stop-color="gray" stop-opacity="0.102"/>
    </linearGradient>
    <linearGradient id="linear-gradient-2" x1="0.5" x2="0.5" y2="1" gradientUnits="objectBoundingBox">
      <stop offset="0" stop-color="#dba514"/>
      <stop offset="1" stop-color="#6e530a"/>
    </linearGradient>
  </defs>
  <g id="Group_2310" data-name="Group 2310" transform="translate(-441 -82.322)">
    <g id="Group_2309" data-name="Group 2309" transform="translate(248 -713)">
      <ellipse id="Ellipse_342" data-name="Ellipse 342" cx="396" cy="397" rx="396" ry="397" transform="translate(193 951)" fill="#fff" opacity="0.015"/>
      <ellipse id="Ellipse_762" data-name="Ellipse 762" cx="396" cy="397" rx="396" ry="397" transform="translate(552 951)" fill="#fff" opacity="0.015"/>
      <g id="Group_2308" data-name="Group 2308" transform="translate(1080.619 1463.597)">
        <path id="Path_9706" data-name="Path 9706" d="M305.327,1178.738H430.611a6.327,6.327,0,0,0,6.327-6.327V1047.127a6.326,6.326,0,0,0-6.327-6.327H305.327a6.326,6.326,0,0,0-6.327,6.327v125.284A6.3,6.3,0,0,0,305.327,1178.738Z" transform="translate(-299 -1006.959)" fill="#fff" opacity="0.03"/>
        <path id="Path_9802" data-name="Path 9802" d="M213.308,1015.746h57.529a4.694,4.694,0,0,0,4.708-4.708V953.508a4.694,4.694,0,0,0-4.708-4.708H213.308a4.694,4.694,0,0,0-4.708,4.708v57.529A4.694,4.694,0,0,0,213.308,1015.746Z" transform="translate(-104.356 -948.8)" fill="#fff" opacity="0.03"/>
      </g>
      <g id="undraw_questions_75e0_1_" data-name="undraw_questions_75e0 (1)" transform="translate(326.732 795.322)">
        <ellipse id="Ellipse_722" data-name="Ellipse 722" cx="104.567" cy="10.135" rx="104.567" ry="10.135" transform="translate(191.502 813.69)" fill="#ff9300" opacity="0.1"/>
        <path id="Path_14257" data-name="Path 14257" d="M673.447,43.868c-46.054-16.832-102.12-2.356-150,18.757-150.377,66.326-259.93,192.231-346.971,320.5-31.515,46.446-61.45,94.937-73.3,146.787C79.056,635.448,141.974,744.7,248.978,782.986c36.389,13.033,76.366,18.376,116.4,21.354,71.2,5.3,144.912,3.2,215.538-16.441,50.367-14.035,98.011-36.612,143.709-61.554,127.62-69.694,244.167-160.2,328.088-270.757,36.807-48.491,67.944-103.158,68.841-159.108s-36.185-112.171-97.2-121.684c-25.224-3.93-51.906.16-77.936,4.371-38.326,6.206-77.171,12.732-115.059,10.025-39.141-2.817-90.048-17.855-97.186-54.6C726.627,95.147,719.439,60.68,673.447,43.868Z" transform="translate(-98.044 -36.504)" fill="#ff9300" opacity="0.1"/>
        <path id="Path_14258" data-name="Path 14258" d="M385.024,800.42s-49.2-2.917-43.4,30.988c0,0-1.152,6.015,4.374,8.712,0,0,.082-2.516,5.047-1.664a22.6,22.6,0,0,0,5.343.261,11.246,11.246,0,0,0,6.536-2.657h0s13.836-5.614,19.209-27.85c0,0,3.987-4.842,3.823-6.1l-8.3,3.489s2.834,5.895.6,10.787c0,0-.265-10.566-1.866-10.326-.316.05-4.313,2.005-4.313,2.005s4.884,10.256,1.2,17.714c0,0,1.4-12.642-2.722-16.973l-5.852,3.358s5.71,10.6,1.835,19.238c0,0,1.02-13.263-3.059-18.426l-5.3,4.01s5.363,10.446,2.09,17.624c0,0-.418-15.449-3.232-16.612,0,0-4.639,4.01-5.343,5.674,0,0,3.67,7.579,1.4,11.579,0,0-1.4-10.286-2.549-10.336,0,0-4.608,6.817-5.1,11.489,0,0,.2-6.947,3.987-12.14,0,0-4.466.752-7.076,3.6,0,0,.724-4.822,8.208-5.243,0,0,3.813-5.163,4.843-5.484,0,0-7.453-.611-11.97,1.363,0,0,3.976-4.551,13.336-2.486l5.23-4.19s-9.818-1.323-13.968.14c0,0,4.782-4.01,15.375-1.093l5.689-3.348s-8.361-1.774-13.346-1.133c0,0,5.261-2.787,15.018.23l4.078-1.794s-6.117-1.183-7.922-1.373-1.886-.672-1.886-.672a21.561,21.561,0,0,1,11.511,1.253S385.177,801,385.024,800.42Z" transform="translate(389.715 -34.589)" fill="#ff9300"/>
        <ellipse id="Ellipse_723" data-name="Ellipse 723" cx="34.829" cy="5.784" rx="34.829" ry="5.784" transform="translate(706.019 802.703)" fill="#ff9300" opacity="0.1"/>
        <path id="Path_14259" data-name="Path 14259" d="M301.616,777.67s-27.742-1.644-24.47,17.474a4.619,4.619,0,0,0,2.457,4.912s.051-1.414,2.845-.932a12.578,12.578,0,0,0,3.008.141,6.236,6.236,0,0,0,3.691-1.494h0s7.789-3.178,10.848-15.709c0,0,2.243-2.737,2.161-3.439l-4.69,2.005s1.6,3.328.347,6.085c0,0-.153-5.965-1.02-5.825-.184,0-2.437,1.153-2.437,1.153s2.753,5.784.673,10.025c0,0,.8-7.128-1.529-9.574l-3.293,1.895s3.212,6.015,1.02,10.847c0,0,.561-7.479-1.723-10.386l-2.987,2.286s3.059,5.885,1.173,9.935c0,0-.235-8.712-1.825-9.363,0,0-2.61,2.266-3.008,3.2,0,0,2.039,4.271.785,6.526,0,0-.785-5.794-1.438-5.824,0,0-2.6,3.84-2.865,6.476a13.873,13.873,0,0,1,2.243-6.847,7.824,7.824,0,0,0-3.986,2.005s.4-2.717,4.629-2.958c0,0,2.151-2.917,2.722-3.088,0,0-4.2-.351-6.75.762,0,0,2.243-2.567,7.524-1.4l2.947-2.366s-5.536-.742-7.881.08c0,0,2.7-2.266,8.677-.612l3.2-1.895a29.619,29.619,0,0,0-7.514-.631s2.957-1.574,8.462.13l2.294-1s-3.456-.672-4.466-.772-1.071-.381-1.071-.381a12.212,12.212,0,0,1,6.495.712S301.7,778,301.616,777.67Z" transform="translate(539.038 -34.647)" fill="#ff9300"/>
        <ellipse id="Ellipse_724" data-name="Ellipse 724" cx="19.637" cy="3.268" rx="19.637" ry="3.268" transform="translate(801.91 763.795)" fill="#ff9300" opacity="0.1"/>
        <path id="Path_14260" data-name="Path 14260" d="M976.1,796S942.611,794,946.537,817.053a5.626,5.626,0,0,0,2.977,5.935s.061-1.714,3.436-1.133a15.337,15.337,0,0,0,3.64.17,7.562,7.562,0,0,0,4.445-1.8h0s9.421-3.82,13.081-18.958c0,0,2.712-3.3,2.6-4.14l-5.648,2.366s1.927,4.01.408,7.348c0,0-.184-7.2-1.264-7.018-.224,0-2.936,1.384-2.936,1.384s3.324,7.018.816,12.03c0,0,.948-8.6-1.856-11.549l-3.976,2.276s3.884,7.218,1.244,13.1c0,0,.683-9.022-2.039-12.541l-3.609,2.767s3.65,7.108,1.427,12.03c0,0-.3-10.506-2.212-11.308,0,0-3.151,2.737-3.63,3.86,0,0,2.5,5.163.948,7.89,0,0-.948-7.018-1.733-7.018,0,0-3.14,4.642-3.466,7.819a16.658,16.658,0,0,1,2.7-8.261,9.528,9.528,0,0,0-4.812,2.446s.49-3.278,5.6-3.569c0,0,2.59-3.519,3.283-3.729,0,0-5.1-.421-8.157.922,0,0,2.712-3.088,9.084-1.684l3.558-2.857s-6.678-.9-9.513.09c0,0,3.263-2.737,10.471-.742l3.874-2.276s-5.689-1.2-9.084-.772c0,0,3.579-1.895,10.2.16l2.773-1.223s-4.17-.812-5.393-.932-1.285-.461-1.285-.461a14.707,14.707,0,0,1,7.83.852S976.206,796.381,976.1,796Z" transform="translate(-817.962 -34.601)" fill="#ff9300"/>
        <ellipse id="Ellipse_725" data-name="Ellipse 725" cx="23.705" cy="3.94" rx="23.705" ry="3.94" transform="translate(111.374 786.502)" fill="#ff9300" opacity="0.1"/>
        <path id="Path_14261" data-name="Path 14261" d="M676.333,553.627a70.4,70.4,0,0,0,1.112-10.687c0-4.3,5.944-8.11,5.944-8.11s3.67-8.351,6.118-9.584,10-12.16,10-12.16a9.839,9.839,0,0,1,2.274-5.895,84.621,84.621,0,0,0,6.189-9.183h0c1.02-1.223.51-2.085,2.039-9.213a10.977,10.977,0,0,1,.285-1.073,1.389,1.389,0,0,1,.163-.461,11.886,11.886,0,0,1-2.886-12.461,5.005,5.005,0,0,1,1.448-2.206c1.723-1.383,4.476-.812,6.25-2.125l-1.886-8.2c-.449-2-.683-4.541,1.1-5.624a9.367,9.367,0,0,1,2.1-.692c3.059-1,4.833-4.18,5.628-7.238a24.4,24.4,0,0,0,.612-9.023c-.347-2.907-1.214-5.734-1.53-8.652a23.447,23.447,0,0,1,3.742-15.378,11.96,11.96,0,0,1,4.945-4.591c1.886-.832,4.078-1,5.842-2.005,3.793-2.376,3.6-8.02,6.627-11.258s8.391-3.228,12.806-2.115,8.809,3.008,13.336,2.536c2.916-.321,5.648-1.624,8.575-1.925a9.189,9.189,0,0,1,2.508.11v-.09c2.161.381,4.149,1.564,4.659,3.579a5.38,5.38,0,0,1,.143,1.464c0,1.173-.285,2.4-.306,3.519a3.314,3.314,0,0,0,.826,2.476c.581.611,1.438.932,2.039,1.564a2.485,2.485,0,0,1,.744,1.845c0,1.784-2.264,3.358-3.783,4.08h-.061c.408.4.816.822,1.193,1.253a26.153,26.153,0,0,1,6.75,17.534,26.765,26.765,0,0,1-16.558,24.441l.214.652a37.016,37.016,0,0,0,1.5,3.79,7.75,7.75,0,0,1,6.4.7c2.916,2.005,8.615,1.845,10.135,1.474s17.333-2.336,18.607-1.845,3.793-1.714,5.434,1.233,2.406,4.541,4.078,5.283,4.557,3.068,4.17,3.559,4.18,3.439,4.18,3.439,3.925,4.01,6.2,4.541,7.086,3.569,7.086,3.569l5.577,4.291s4.17.622,2.906-2.206,2.284-6.386,2.284-6.386,7.086-14.125,7.086-17.043S867,447.772,867,447.772l.714-.07.326-.912c1.07-2.957,2.457-6.586,3.517-8.712,2.039-4.06,3.293-4.481,3.293-4.481s24.551-18.125,40.5-12.6S886.242,442.98,882.195,444.7c-1.417.6-2.437,2.546-3.15,4.822a20.864,20.864,0,0,1,8.717,7.709s-9.747,21.243-10,26.526-6.709,20.05-6.709,20.05-2.406,10.937-15.436,10.316c0,0-17.975,3.248-21.9,0s-7.463-5.794-9.37-6.165a7.391,7.391,0,0,1-3.538-2.456s5.944,36.842,8.86,40.04,28.681,44.561,19.433,51.96a185.085,185.085,0,0,1-23.155,15.038c-.785.381-3.14-3.479-6.5-6.216v2.135c-.061,14.717-2.039,37.093-4.772,42.105-4.078,7.368-2.406,21.614-2.406,21.614a17.577,17.577,0,0,1-6.841,1.614c-.122.481-.265,1-.4,1.5-2.233,8.291-5.852,21.113-7.7,24.522-2.783,5.163-4.8,21.5-4.8,21.5s-1.652,16.04-1.019,18.3c.245.852-.826,7.529-2.508,16.04h0c1.02,11.519,2.957,33.724,3.283,41.754h0V798a2.384,2.384,0,0,0,0,.271v.491h0a7.378,7.378,0,0,1-.061,1.514,4.835,4.835,0,0,0,.173,2.286A39.551,39.551,0,0,0,795.133,809a30.366,30.366,0,0,1,1.223,3.108c1.02.441,2.264,1.514,2.957,4.13,1.264,4.792,3.161,18.045,3.161,18.045s.765,8.11,2.274,9.955,3.059,13.383-7.718,14.857-15.436-5.614-15.436-5.614l.377-32.16v-.06a4.858,4.858,0,0,1-.561-.872v-.08c-.071-.15-.153-.311-.224-.491l-.092-.241-.163-.391a.562.562,0,0,0,0-.14,20.911,20.911,0,0,1-.917-9.574v-1.353a3.743,3.743,0,0,0-.061-.662v-.121l-.061-.391v-.17a.73.73,0,0,0-.081-.4.431.431,0,0,0,0-.1c-.1-.461-.224-1-.357-1.444v-.11l-.153-.481h0c-.153-.511-.326-1-.51-1.544v-.1a1.388,1.388,0,0,0-.173-.471v-.06c-.184-.491-.377-1-.561-1.424L778,800.5l-.163-.4-.051-.12-.387-.892h0l-2.987,9.073s-1.652,6.757-.765,8.351-1.019,8.231-2.273,8.351l1.172,8.351a125.637,125.637,0,0,1,1.132,13.885c.082.531.163,1,.224,1.323.816,4.281-1.142,10.917-1.142,10.917-9.992,11.619-21.9.9-21.9.9s-1.386-6.146,0-7.369.765-5.654.765-5.654-.632-10.937-.754-18.917,6.637-15.038,6.637-15.038l.377.331c1.234-3.128,2.641-6.777,2.345-8.411-.51-2.827,1.4-32.672,1.4-32.672a174.044,174.044,0,0,1-.448-24.06h0c-.163-1.353-.316-2.687-.469-4.01-.765-6.416-1.387-11.9-1.631-14.777h0v-.341c-.061-.772-.092-1.323-.081-1.584,0-1,0-2.145-.1-3.4-.234-3.449-.785-7.288-.785-7.288l-2.651-15.85s-2.039-7.739-4.945-12.03l-.347-.542h0c-.112-.19-.224-.4-.346-.622l-.051-.09c-.112-.211-.234-.431-.347-.662l-.051-.09c-.408-.792-.846-1.7-1.305-2.707,0-.08-.071-.15-.1-.23l-.347-.762a.782.782,0,0,0-.133-.3c-.051-.1-.214-.511-.326-.762a2.874,2.874,0,0,1-.133-.311c-.133-.3-.275-.612-.408-.932l-.194-.461c-.092-.23-.193-.461-.3-.691l-.245-.612c-.071-.15-.132-.3-.193-.451l-.276-.692c0-.1-.092-.211-.132-.311-.724-1.774-1.417-3.529-2.039-5.123h0c-.194-.5-.387-1-.561-1.444-6.484.391-10.889.742-10.889.742s-2.039-14.366-1.386-23.82c.428-6.456-.8-14.576-1.6-19.048-.092-.491-.173-.932-.255-1.333l-.173.14c-3.171,2.456-5.445-5.654-5.445-5.654s.856-7.569,2.039-16.742l.122-.912a48.614,48.614,0,0,1-5.536.832s-1.02-.09-2.416-.26a67.454,67.454,0,0,1-12.174,5.413l-6.739-12.231a49.617,49.617,0,0,0-4.435-7.248c-2.039-2.456-9.237-10.316-9.115-11.79s-2.406-9.955-4.935-13.764S676.21,554.238,676.333,553.627Zm28.1,9.333c2.661,1.1,5.189,7.248,5.312,9.093s2.916,9.945,5.822,10.927c2.682.9,7.8,5.534,8.615,6.276.836.07,1.784.18,2.773.341,1.111-7.749,2.212-14.165,2.916-15.459,2.039-3.689-2.233-15.479-2.233-15.479s-.418-11.91-3.058-14.737-2.039-9.955-2.039-9.955-.632-2.948-.887-4.291-3.762,0-3.793,0h0s-6.831,3.679-7.851,9.2-8.483,15.108-8.483,15.108,1.142,3.318,0,5.013S701.771,561.857,704.432,562.96Z" transform="translate(-484.82 -35.606)" fill="url(#linear-gradient)"/>
        <path id="Path_14262" data-name="Path 14262" d="M727.391,457.854A20.514,20.514,0,0,0,707,448.411v14.346h8.86l6.933-1.724Z" transform="translate(-324.736 -35.472)" fill="#4c4981"/>
        <path id="Path_14263" data-name="Path 14263" d="M727.391,457.854A20.514,20.514,0,0,0,707,448.411v14.346h8.86l6.933-1.724Z" transform="translate(-324.736 -35.472)" opacity="0.1"/>
        <path id="Path_14264" data-name="Path 14264" d="M677.05,452.279l10.858,7.479s.092-1.494.367-3.539c.541-3.87,1.754-9.674,4.374-10.8,3.987-1.724,48.369-18.145,32.626-23.669s-39.9,12.581-39.9,12.581-1.244.421-3.232,4.461c-1.019,2.125-2.416,5.744-3.466,8.7C677.713,450.164,677.05,452.279,677.05,452.279Z" transform="translate(-295.448 -35.541)" fill="#ae6e79"/>
        <path id="Path_14265" data-name="Path 14265" d="M716.48,432.081l-1.234-.571-3.466,3.89,2.834,5.945,4.833-1.9-1.121-4.752Z" transform="translate(-421.624 -3.825)" fill="#4c4981"/>
        <path id="Path_14266" data-name="Path 14266" d="M799.139,811s3.12-.361,4.364,4.421,3.12,18.045,3.12,18.045.744,8.09,2.243,9.935,2.987,13.364-7.606,14.827-15.212-5.6-15.212-5.6l.377-32.15Z" transform="translate(-487.857 -34.563)" fill="#444053"/>
        <path id="Path_14267" data-name="Path 14267" d="M824,812.44s-6.668,7.018-6.545,14.978.754,18.877.754,18.877.612,4.421-.754,5.644,0,7.358,0,7.358,11.725,10.7,21.574-.9c0,0,1.917-6.626,1.121-10.9s-3.018-23.469-3.018-23.469Z" transform="translate(-549.691 -34.559)" fill="#444053"/>
        <path id="Path_14268" data-name="Path 14268" d="M788.57,666.227s6.729,18.506,9.6,22.8,4.853,12.03,4.853,12.03l2.62,15.809a86.773,86.773,0,0,1,.877,10.667c-.122,3.559,6.484,55.408,6.484,55.408l10.471,13.123s4.609,9.193,3.864,13.032.5,9.935,2.039,11.77c0,0,.245,12.03.622,14.707s-1.376,10.306,0,11.649,19.7.742,20.2-1.474-2.243-12.872-2.243-12.872l-1.621-10.3s-3.242-5.634-2.5-7.479-1.366-6.125-1.489-6.5-3.5-6.376-2.875-8.7-3.925-51.789-3.925-51.789L822.716,659.48Z" transform="translate(-530.775 -34.943)" fill="#ae6e79"/>
        <path id="Path_14269" data-name="Path 14269" d="M788.57,666.227s1.02,2.787,2.417,6.446c2.223,5.775,5.424,13.724,7.188,16.351,2.865,4.291,4.863,12.03,4.863,12.03l2.62,15.82a87.483,87.483,0,0,1,.867,10.666c0,1.4.958,10.356,2.182,20.672,1.886,15.769,4.3,34.737,4.3,34.737l10.471,13.123s.53,1,1.193,2.586c1.315,3.007,3.171,7.89,2.671,10.406-.744,3.8.5,9.925,2.039,11.769,0,0,.255,12.03.622,14.707s-1.376,10.3,0,11.649,19.7.742,20.2-1.464-2.243-12.872-2.243-12.872l-1.621-10.306s-3.242-5.634-2.488-7.479-1.376-6.125-1.5-6.5-3.5-6.376-2.875-8.7c.479-1.775-2.039-30.817-3.212-44.592-.4-4.331-.652-7.148-.652-7.148l-11.042-76.251-.9-6.145-.9-6.236Z" transform="translate(-530.775 -34.943)" opacity="0.1"/>
        <path id="Path_14270" data-name="Path 14270" d="M784.981,850.583c-.112,1.353,17.588,3.318,20.116,1.845s0-19.74,0-19.74l-1.152-8.331c1.234-.13,3.11-6.747,2.243-8.341s.744-8.331.744-8.331l2.936-9.023,1.794-5.524c2.916-6.326,7.137-24.371,9.757-37.845,1.652-8.461,2.7-15.128,2.468-15.98-.622-2.205,1.019-18.266,1.019-18.266s2.039-16.311,4.731-21.454c1.825-3.409,5.383-16.211,7.586-24.471,1.121-4.241,1.9-7.288,1.9-7.288s-18.842-1.554-30.271-2.1c-5.251-.251-8.942-.281-8.513.141s.54,2.667.52,5.915c-.051,8.411-1.244,23.208-2.508,27.188-1.744,5.514-3.487,22.055-2.743,23.659s.5,12.261.5,12.261a54.293,54.293,0,0,0-2.2,13.3,176.8,176.8,0,0,0,.428,23.95s-1.866,29.794-1.366,32.611-3.986,11.649-3.986,13.364-1.244,13.363-1.244,13.363S785.062,849.239,784.981,850.583Z" transform="translate(-515.97 -34.927)" fill="#ae6e79"/>
        <path id="Path_14271" data-name="Path 14271" d="M801.87,493.05l2.141,2.276,1.4,1.484,8.157,8.622,21.074,2.336,11.215-2.947,2.773-.732s0-5.534-.5-12.171c-.714-8.511-2.416-18.847-6.484-21.664a15.971,15.971,0,0,1-4.741-5.9,32.887,32.887,0,0,1-2.039-4.952c-.082-.221-.143-.431-.214-.652a54.585,54.585,0,0,1-1.978-9.093s-2.691-1.464-6.434-3.168c-9.757-4.481-26.611-10.667-20.748,3.168a53.557,53.557,0,0,1,2.2,6.216c.092.311.173.622.245.922,1.958,7.7.663,12.371-.8,14.947h0a9.331,9.331,0,0,1-.846,1.273,6.749,6.749,0,0,1-1.417,1.414l-2.427,15.148-.2,1.253Z" transform="translate(-542.699 -35.49)" fill="#ae6e79"/>
        <path id="Path_14272" data-name="Path 14272" d="M816.59,450.391c1.111,2.627-.54-2.145,0,0,4.445,3.108,14.916,11.96,20.8,11.96,3.976,0,5.169-.712,8.574-2.226a53.9,53.9,0,0,1-2.192-9.734S808.484,431.263,816.59,450.391Z" transform="translate(-553.809 -35.488)" opacity="0.1"/>
        <path id="Path_14273" data-name="Path 14273" d="M799.68,434.367a26.919,26.919,0,0,0,24.337,26.576c.938.09,1.886.15,2.845.15a26.731,26.731,0,1,0-27.182-26.727Z" transform="translate(-545.882 -35.574)" fill="#ae6e79"/>
        <path id="Path_14274" data-name="Path 14274" d="M790.79,552.645l3.875,9.935s3.151.13,8.065.281c16.588.521,53.14,1.183,54.771-3.008a10.5,10.5,0,0,0,.571-3.3c.214-6.386-2.814-16.19-2.814-16.19s-1.743-19.619-1.743-20.471,1.5-14.6,1.5-14.6l-3-11.028-8.35-5.764s-3.742,5.644-5.985,6.125-5.241,3.2-5.241,3.2-7.351,4.411-9.726,1.955-20.82-13.243-20.82-13.243l-9.727,10.546Z" transform="translate(-540.856 -35.376)" opacity="0.1"/>
        <path id="Path_14275" data-name="Path 14275" d="M790.82,554.165l3.874,9.925s3.15.14,8.065.291h.479c2.121.07,4.547.14,7.137.19,13.183.3,31.342.381,40.834-1,3.568-.5,5.9-1.223,6.291-2.206a8.748,8.748,0,0,0,.449-1.825c.061-.461.1-1,.122-1.474.214-6.386-2.814-16.191-2.814-16.191s-1.743-19.619-1.743-20.471,1.5-14.6,1.5-14.6l-3-11.028-5.74-3.95-2.61-1.8a38.569,38.569,0,0,1-2.865,3.709,7.607,7.607,0,0,1-3.12,2.416c-2.253.491-5.241,3.2-5.241,3.2s-7.351,4.411-9.727,1.955c-1.8-1.875-13.02-8.622-18.2-11.7-1.591-.952-2.62-1.544-2.62-1.544l-1.305,1.424-8.422,9.123Z" transform="translate(-540.886 -35.372)" fill="#fff"/>
        <path id="Path_14276" data-name="Path 14276" d="M716.64,452.212l10.858,7.479s.092-1.494.367-3.539c-5.363-2.226-8.625-7.148-9.563-8.722C717.3,450.1,716.64,452.212,716.64,452.212Z" transform="translate(-335.038 -35.474)" opacity="0.1"/>
        <path id="Path_14277" data-name="Path 14277" d="M713.577,477.593l2.365-.622s3.874,4.01,6.117,4.541,6.974,3.549,6.974,3.549l5.5,4.291s4.078.622,2.865-2.206,2.243-6.376,2.243-6.376,6.984-14.1,6.984-17.043,5.771-15.318,5.771-15.318,7.239,13.855,20.453,9.444c0,0-9.6,21.2-9.849,26.476s-6.607,19.98-6.607,19.98-2.375,10.917-15.212,10.306c0,0-17.71,3.238-21.574,0s-7.351-5.784-9.176-6.155a7.557,7.557,0,0,1-3.487-2.446V491.438Z" transform="translate(-370.128 -35.472)" fill="#4c4981"/>
        <path id="Path_14278" data-name="Path 14278" d="M745.09,491.33s-3.12,11.409-1.122,12.632Z" transform="translate(-379.445 -35.364)" opacity="0.1"/>
        <path id="Path_14279" data-name="Path 14279" d="M790.8,564.156c16.589.521,53.14,1.173,54.771-3.007a10.508,10.508,0,0,0,.571-3.3l-54.19,2.807Z" transform="translate(-528.927 -35.197)" opacity="0.1"/>
        <path id="Path_14280" data-name="Path 14280" d="M785,666.227s1.02,2.787,2.417,6.446c6.882-.411,16-.842,24.653-.9,3.059,0,6.056,0,8.891.1,6.016.18,11.215.662,14.529,1.584a39.148,39.148,0,0,0,12.949,1.644c1.121-4.24,1.9-7.288,1.9-7.288s-18.842-1.554-30.271-2.1l-.9-6.236Z" transform="translate(-527.205 -34.943)" opacity="0.1"/>
        <path id="Path_14281" data-name="Path 14281" d="M772.93,621.606l2.121,4.411s.3,1.313.673,3.4c.8,4.491,2.039,12.591,1.57,19.048-.622,9.444,1.377,23.779,1.377,23.779s45.88-3.8,59.339,0,20.086,0,20.086,0-1.631-14.215,2.365-21.574c2.722-5.013,4.639-27.388,4.7-42.105,0-6.787-.347-11.93-1.213-12.972-2.743-3.308-14.458-36.411-14.458-36.411l-2.671.14-7.137.371L799.1,561.8l-6.372.331-.673,2.005Z" transform="translate(-529.725 -35.194)" fill="#444053"/>
        <path id="Path_14282" data-name="Path 14282" d="M865.2,606.814l-.377,3.93s20.1-6.436,19.076-14.346,0-7.018,0-7.018l-16.15,1.343Z" transform="translate(-642.193 -35.118)" fill="#4c4981"/>
        <path id="Path_14283" data-name="Path 14283" d="M865.2,606.814l-.377,3.93s20.1-6.436,19.076-14.346,0-7.018,0-7.018l-16.15,1.343Z" transform="translate(-642.193 -35.118)" opacity="0.1"/>
        <path id="Path_14284" data-name="Path 14284" d="M760.536,494.5a18.011,18.011,0,0,1-7.076,3.619,4.639,4.639,0,0,0,2.039-1c1.438-1,2.8-2.1,4.19-3.158,1.121-.862,2.518-2.3,3.895-2.647A21.268,21.268,0,0,1,760.536,494.5Z" transform="translate(-408.298 -35.364)" opacity="0.1"/>
        <path id="Path_14285" data-name="Path 14285" d="M753.328,499.652a8.831,8.831,0,0,0-1.55,2.416,14.37,14.37,0,0,0,.112,7.589l3.222-7.639c.561-1.3,1.122-2.607,1.794-3.85.3-.531,2.151-2.747,1.937-3.208C758.273,493.657,753.93,498.92,753.328,499.652Z" transform="translate(-401.396 -35.356)" opacity="0.1"/>
        <path id="Path_14286" data-name="Path 14286" d="M838.123,541.847a10.456,10.456,0,0,1-5.863-2.7c3.314.411,6.454,1.694,9.717,2.366a14.664,14.664,0,0,0,9.054-.822C847.278,542.5,842.119,542.559,838.123,541.847Z" transform="translate(-576.086 -35.244)" opacity="0.1"/>
        <path id="Path_14287" data-name="Path 14287" d="M819.79,519.474a2.3,2.3,0,0,0,1.682-.411q3.732-2.1,7.361-4.391c2.355-1.494,5.2-3.008,7.208-4.892C831.1,514.171,826.489,517.88,819.79,519.474Z" transform="translate(-548.384 -35.318)" opacity="0.1"/>
        <path id="Path_14288" data-name="Path 14288" d="M842.956,545.4a15.78,15.78,0,0,1-3.895-.311,5.227,5.227,0,0,1-3.2-2.065,1.862,1.862,0,0,1,1.356.211,23.239,23.239,0,0,0,12.52,1.474C847.707,545.556,845.107,545.386,842.956,545.4Z" transform="translate(-578.463 -35.235)" opacity="0.1"/>
        <path id="Path_14289" data-name="Path 14289" d="M788.224,602.172a41.5,41.5,0,0,0,7.963,1.534,48.962,48.962,0,0,0,6.3-.12l10.2-.632,5.1-.321c.6,0,3.059,0,1.845-1.193-.612-.581-4.017-.211-4.894-.241q-2.539-.08-5.1-.09c-3.375,0-6.76,0-10.135.2C795.718,601.491,792,601.772,788.224,602.172Z" transform="translate(-500.117 -35.089)" opacity="0.1"/>
        <path id="Path_14290" data-name="Path 14290" d="M784.85,607.122c1.733-.07,3.966.943,5.75,1.163a38.956,38.956,0,0,0,6.015.23,34.046,34.046,0,0,0,11.593-2.326C800.429,606.581,792.629,606.812,784.85,607.122Z" transform="translate(-484.926 -35.076)" opacity="0.1"/>
        <path id="Path_14291" data-name="Path 14291" d="M798.335,612.361a16.918,16.918,0,0,0-2.223.6c-4.3,1.2-8.881.141-13.255-.922,1.091,1.614,3.059,2.306,5.026,2.747a23.69,23.69,0,0,0,9.788.351c1.02-.2,3.579-.561,4.078-1.6C802.587,612,799.294,612.21,798.335,612.361Z" transform="translate(-476.572 -35.062)" opacity="0.1"/>
        <path id="Path_14292" data-name="Path 14292" d="M840.088,620.255a33.719,33.719,0,0,0-3.813,1c-4.843,1.183-9.87-.441-14.733-1.534A69.708,69.708,0,0,0,803.71,618.1c1.071,0,2.773.922,3.823,1.233,1.376.411,2.773.792,4.17,1.133,2.743.662,5.526,1.2,8.33,1.594a87.078,87.078,0,0,0,17.1.732c2.61-.14,7.137.12,9.37-1.173a10.472,10.472,0,0,0-6.413-1.363Z" transform="translate(-542.448 -35.047)" opacity="0.1"/>
        <path id="Path_14293" data-name="Path 14293" d="M774.793,469.444s-.245,11.288,1.621,16.441c.591,1.6,1.509,4.561,2.508,7.88,1.091,3.679,2.284,7.8,3.2,11.028s1.529,5.393,1.529,5.393,4.211,33.724,5.3,49.795a3.864,3.864,0,0,0,.061.842c.061.9.163,1.845.316,2.817,2.427,15.96,16.425,40.572,21.125,42.536a14,14,0,0,1,3.956,2.677c0-6.787-.347-11.93-1.213-12.972-2.743-3.308-14.458-36.411-14.458-36.411l-2.671.14c.061-.461.1-1,.122-1.474.214-6.386-2.814-16.19-2.814-16.19s-1.744-19.619-1.744-20.471,1.5-14.6,1.5-14.6l-3-11.028-5.74-3.95c-.714-8.511-2.416-18.847-6.484-21.664a15.979,15.979,0,0,1-4.741-5.9c-.805.11.663-.591.663-.591Z" transform="translate(-478.978 -35.433)" opacity="0.1"/>
        <path id="Path_14294" data-name="Path 14294" d="M742.4,463.121a7.532,7.532,0,0,1,6.311.7c2.875,2,8.483,1.835,9.982,1.474s17.078-2.336,18.352-1.845,3.742-1.714,5.363,1.233,2.365,4.531,3.986,5.263,4.5,3.068,4.078,3.559,4.078,3.429,4.078,3.429l-9.094,29.073s5.862,36.772,8.728,39.96,28.3,44.5,19.2,51.86a181.424,181.424,0,0,1-22.818,15.038c-1.02.491-4.608-6.125-9.594-8.211s-20.453-29.674-21.411-45.363-5.363-50.627-5.363-50.627-5.363-19.128-7.229-24.281-1.621-16.441-1.621-16.441Z" transform="translate(-448.777 -35.436)" fill="#4c4981"/>
        <path id="Path_14295" data-name="Path 14295" d="M837.38,621.823l2.121,4.411s.3,1.313.673,3.4a1.923,1.923,0,0,0,1.02-.451c3.12-2.456,21.411-20.962,22.318-37.393.642-12.12.336-22.566.133-27.218-.061-1.464-.123-2.346-.123-2.536h0s-14.213-16.922-12.592-22.917,5.363-38.1,5.363-38.1l.55-4.211.948-7.118,2.263-17.223-2.345.541a6.751,6.751,0,0,1-1.417,1.414l-2.427,15.148-8.422,9.123-1.377,55.539,3.875,9.925s3.151.14,8.065.291h.479Z" transform="translate(-594.176 -35.411)" opacity="0.1"/>
        <path id="Path_14296" data-name="Path 14296" d="M848.5,530.146s3.487-1.353,3.732,0,.877,4.281.877,4.281-.622,7.118,2.039,9.935,3.059,14.707,3.059,14.707,4.2,11.769,2.212,15.449c-.724,1.333-1.845,8.02-2.967,16.04-.714,5.013-1.417,10.516-2.039,15.549-1.132,9.143-1.978,16.712-1.978,16.712s2.253,8.09,5.373,5.634,21.411-20.962,22.308-37.393c.612-11.539.367-21.564.163-26.506-.082-2.1-.163-3.278-.163-3.278s-14.213-16.922-12.592-22.927,5.363-38.1,5.363-38.1l.652-4.962.7-5.333.163-1.173,2.253-17.043h0c-.4.09-14.386,3.2-16.232,5.013s-13.254,4.411-13.254,4.411A9.883,9.883,0,0,0,841.1,488.3a10.967,10.967,0,0,0-.275,1.073c-1.5,7.118-1.02,7.97-2.039,9.2S848.5,530.146,848.5,530.146Z" transform="translate(-613.15 -35.413)" fill="#4c4981"/>
        <path id="Path_14297" data-name="Path 14297" d="M852.137,605.8c5.1-1,12.663-3.318,12.49-8.431-.153-4.782-6.005-6.506-10.44-7.118C853.473,595.242,852.769,600.766,852.137,605.8Z" transform="translate(-609.952 -35.116)" opacity="0.1"/>
        <path id="Path_14298" data-name="Path 14298" d="M852.9,603.255c.2.431,1.02.8,2.182,1.133a59.744,59.744,0,0,0,8.289,1.333s17.333-1.353,17.088-9.083c-.183-5.544-8.014-7.017-12.408-7.348a29.053,29.053,0,0,0-2.926-.12S852.154,601.671,852.9,603.255Z" transform="translate(-626.526 -35.119)" fill="#ae6e79"/>
        <path id="Path_14299" data-name="Path 14299" d="M864.151,603.255c.2.431,1.02.8,2.182,1.133,4.517-5.945,10.818-13.574,13.907-14.246l-.938-.852a29.049,29.049,0,0,0-2.926-.12S863.407,601.671,864.151,603.255Z" transform="translate(-637.779 -35.119)" opacity="0.1"/>
        <path id="Path_14300" data-name="Path 14300" d="M901.148,497.69l-5.1.742a86.982,86.982,0,0,1-6.118,9.193,9.928,9.928,0,0,0-2.243,5.885s-7.484,10.907-9.849,12.13-5.985,9.564-5.985,9.564-5.863,3.8-5.863,8.09a70.919,70.919,0,0,1-1.121,10.667c-.133.611.866,8.22,3.364,12.03s5,12.211,4.863,13.714,6.984,9.323,8.972,11.769a49.659,49.659,0,0,1,4.364,7.238l6.607,12.261s13.968-20.231,19.076-21.333c0,0-5.73-5.393-8.595-6.376s-5.618-9.022-5.74-10.907-2.62-7.97-5.231-9.023-4-2.205-2.875-3.93,0-5.013,0-5.013,7.361-9.564,8.36-15.038,7.728-9.193,7.728-9.193l3.864-9.323Z" transform="translate(-670.413 -35.348)" fill="#4c4981"/>
        <path id="Path_14301" data-name="Path 14301" d="M899.3,543.349a16.343,16.343,0,0,0-10.063-3.749c2.365.4,4.853.912,6.586,2.536a15.339,15.339,0,0,1,1.825,2.286c.591.832,5.4,6.847,6.117,5.895C904.963,548.923,900.273,544.161,899.3,543.349Z" transform="translate(-687.115 -35.243)" opacity="0.1"/>
        <path id="Path_14302" data-name="Path 14302" d="M889.193,537.6a4.31,4.31,0,0,1-3.558-2.476,13.7,13.7,0,0,1-1.111-4.351,63.9,63.9,0,0,0-1.54-7.449,3.4,3.4,0,0,1,.214-3.007,10.107,10.107,0,0,1,1.1-2.226c.918,1,1.183,3.338,1.56,4.682.469,1.664.9,3.338,1.3,5.012C887.378,528.586,889.07,537.6,889.193,537.6Z" transform="translate(-665.706 -35.297)" opacity="0.1"/>
        <path id="Path_14303" data-name="Path 14303" d="M806.1,488.382a10.417,10.417,0,0,0,1.723,1.744c2.039,1.594,4.741,2.937,5,5.454a5.775,5.775,0,0,0,.306,2.416c.652,1.1,2.253,1,3.528.792a6.182,6.182,0,0,0,2.987-1.083c1.336-1.123,1.458-3.128,2.477-4.541a6.339,6.339,0,0,1,5.1-2.216c1.906-.06,3.8.361,5.709.441a15.958,15.958,0,0,0,3.66-.241,11.768,11.768,0,0,0,1.183-.241,15.417,15.417,0,0,0,2.488-.832,11.054,11.054,0,0,0,1.213-.561,16.114,16.114,0,0,0,3.518-2.406c1.866-1.684,3.416-4.01,3.263-6.506-.092-1.534-.8-2.947-1.02-4.461-.765-4.331,2.161-8.421,5.332-11.519,1.264-1.233,2.61-2.426,3.874-3.679a18.34,18.34,0,0,0,4.557-6.4,18.744,18.744,0,0,0,.815-8.02,54.4,54.4,0,0,1-.234-8.241c.938-9.744,9.4-17.213,17.863-21.273l.377-.19a27.46,27.46,0,0,0-27.654-8.219,26.9,26.9,0,0,0-19.551,20.913,26.5,26.5,0,0,0,10.653,26.4c.092.311.173.622.245.922,1.958,7.7.663,12.371-.8,14.947h0c-.4.09-14.386,3.2-16.232,5.012s-13.254,4.411-13.254,4.411a9.884,9.884,0,0,0-7.127,7.168Z" transform="translate(-578.199 -35.574)" opacity="0.1"/>
        <path id="Path_14304" data-name="Path 14304" d="M882.465,409.785c-.561-.632-1.407-.952-1.978-1.564-1.764-1.885,0-4.962-.642-7.449-.693-2.757-4.14-3.96-7.015-3.669s-5.567,1.594-8.442,1.915c-4.466.491-8.789-1.414-13.142-2.526s-9.615-1.173-12.612,2.105-2.794,8.862-6.525,11.238c-1.723,1.093-3.895,1.213-5.761,2.005a11.751,11.751,0,0,0-4.874,4.581,23.682,23.682,0,0,0-3.691,15.348c.316,2.907,1.173,5.734,1.519,8.642a24.758,24.758,0,0,1-.612,9.023c-.785,3.007-2.488,6.256-5.536,7.218a9.45,9.45,0,0,0-2.039.692c-1.764,1.083-1.529,3.629-1.081,5.614l1.815,8.23c-1.744,1.3-4.456.742-6.117,2.115a5,5,0,0,0-1.428,2.206,11.9,11.9,0,0,0,3.66,13.173c2.039,1.594,4.741,2.937,5,5.444a5.571,5.571,0,0,0,.306,2.416c.642,1.1,2.253,1,3.528.792a6.181,6.181,0,0,0,2.977-1.083c1.346-1.123,1.458-3.128,2.478-4.541a6.359,6.359,0,0,1,5.1-2.216c1.917-.06,3.8.361,5.72.451a17.077,17.077,0,0,0,12.021-4.271c1.876-1.694,3.416-4.01,3.273-6.516-.092-1.524-.8-2.947-1.02-4.461-.755-4.321,2.162-8.421,5.333-11.519s6.892-5.955,8.442-10.075c1.937-5.1.061-10.8.581-16.211.938-9.754,9.39-17.213,17.863-21.283C881.446,414.657,884.657,412.241,882.465,409.785Z" transform="translate(-579.054 -35.604)" fill="#444053"/>
        <path id="Path_14305" data-name="Path 14305" d="M806.392,493.972c1.346-1.133,1.458-3.128,2.478-4.541a6.38,6.38,0,0,1,5.1-2.226c1.917-.06,3.813.361,5.72.451a17.025,17.025,0,0,0,12.062-4.281c1.876-1.684,3.405-4.01,3.263-6.506-.092-1.534-.8-2.957-1.02-4.461-.765-4.331,2.161-8.431,5.332-11.529s6.882-5.955,8.442-10.075c1.927-5.093,0-10.787.571-16.211.948-9.754,9.4-17.213,17.863-21.283,1.978-.952,5.189-3.368,3-5.825-.551-.632-1.4-.952-1.968-1.564-1.764-1.875,0-4.962-.653-7.439a4.051,4.051,0,0,0-.642-1.373c2.131.391,4.078,1.574,4.6,3.579.622,2.486-1.121,5.564.642,7.449.571.612,1.417.932,1.978,1.554,2.192,2.456-1.02,4.882-3,5.825-8.473,4.07-16.925,11.539-17.863,21.283-.52,5.424,1.356,11.118-.581,16.221-1.55,4.11-5.271,7.018-8.442,10.075s-6.117,7.188-5.332,11.519a37.817,37.817,0,0,1,1.02,4.461c.143,2.5-1.4,4.822-3.273,6.506a16.984,16.984,0,0,1-12.051,4.281c-1.917-.09-3.8-.5-5.72-.451a6.389,6.389,0,0,0-5.1,2.225c-1.02,1.414-1.132,3.419-2.478,4.541a6.181,6.181,0,0,1-2.977,1.073c-1.274.231-2.885.311-3.528-.782a2.668,2.668,0,0,1-.285-1.444,5.921,5.921,0,0,0,2.844-1.053Z" transform="translate(-569.661 -35.6)" opacity="0.1"/>
        <path id="Path_14306" data-name="Path 14306" d="M715.854,408.059H650.091V344.34H715.9Zm-.951-96.073H651.042c0-99.018,95.722-93.231,95.722-155.874,0-34.5-28.722-62.148-63.814-62.148s-63.8,29.8-63.8,63.129H555.33A124.211,124.211,0,0,1,592.644,68.3a128.511,128.511,0,0,1,90.3-36.69c70.488,0,127.619,55.3,127.619,124.5,0,78.33-95.712,87.248-95.712,155.874Z" transform="translate(-267.406 -5.586)" fill="url(#linear-gradient-2)"/>
        <path id="Path_14307" data-name="Path 14307" d="M361.938,414.261h18.189V396.6H361.938Zm.275-26.566h17.639c0-27.368-26.458-25.774-26.458-43.108a17.415,17.415,0,0,1,17.638-17.193,17.864,17.864,0,0,1,17.6,17.444h17.639c.081-19.162-15.656-34.757-35.145-34.832s-35.349,15.4-35.425,34.561c.056,21.654,26.514,24.12,26.514,43.088Z" transform="translate(374.954 -35.819)" fill="#ff9300" opacity="0.1"/>
        <path id="Path_14308" data-name="Path 14308" d="M496.857,536.671h18.189V519.057H496.857Zm.265-26.556H514.76c0-27.378-26.458-25.775-26.458-43.108a17.111,17.111,0,0,1,5.2-12.186,17.777,17.777,0,0,1,30.131,12.467h17.639c.081-19.162-15.656-34.757-35.145-34.832s-35.349,15.4-35.425,34.561C470.674,488.671,497.122,491.147,497.122,510.114Z" transform="translate(102.312 -35.512)" fill="#ff9300" opacity="0.1"/>
        <path id="Path_14309" data-name="Path 14309" d="M583.844,319.9h13.183V307.157H583.844Zm.194-19.258h12.786c0-19.83-19.178-18.677-19.178-31.228a12.622,12.622,0,0,1,12.785-12.451,12.941,12.941,0,0,1,12.785,12.652H616a25.575,25.575,0,0,0-51.142-.2C564.88,285.1,584.038,286.9,584.038,300.641Z" transform="translate(-68.424 -35.983)" fill="#ff9300" opacity="0.1"/>
        <path id="Path_14310" data-name="Path 14310" d="M810.055,337.756h7.453v-7.218h-7.453Zm.112-10.877h7.269c0-11.208-10.838-10.556-10.838-17.654a6.96,6.96,0,0,1,2.119-4.991,7.2,7.2,0,0,1,5.1-2.026,7.32,7.32,0,0,1,7.229,7.148h7.229a14.466,14.466,0,0,0-28.9-.11C799.329,318.056,810.167,319.109,810.167,326.879Z" transform="translate(-519.797 -35.855)" fill="#ff9300" opacity="0.1"/>
        <path id="Path_14311" data-name="Path 14311" d="M921.9,665.226h7.453v-7.218H921.9Zm.112-10.877h7.229c0-11.218-10.848-10.556-10.848-17.654a7.13,7.13,0,0,1,7.229-7.017,7.31,7.31,0,0,1,7.229,7.148h7.229a14.466,14.466,0,0,0-28.9-.11c-.041,8.852,10.8,9.865,10.8,17.634Z" transform="translate(-745.585 -35.034)" fill="#ff9300" opacity="0.1"/>
      </g>
    </g>
  </g>
</svg>
