<svg id="undraw_season_change_f99v" xmlns="http://www.w3.org/2000/svg" width="580.078" height="351.451" viewBox="0 0 580.078 351.451">
  <ellipse id="Ellipse_601" data-name="Ellipse 601" cx="29.894" cy="29.894" rx="29.894" ry="29.894" transform="translate(18.129 16.464)" fill="#ff6584"/>
  <ellipse id="Ellipse_602" data-name="Ellipse 602" cx="288.541" cy="11.698" rx="288.541" ry="11.698" transform="translate(0 328.056)" fill="#e6e6e6"/>
  <ellipse id="Ellipse_603" data-name="Ellipse 603" cx="73.435" cy="73.435" rx="73.435" ry="73.435" transform="translate(0 46.286)" fill="#dba514"/>
  <path id="Path_13598" data-name="Path 13598" d="M115.788,399.449H100.747L107.6,167.2Z" transform="translate(-35.275 -58.54)" fill="#3f3d56"/>
  <path id="Path_13599" data-name="Path 13599" d="M112.268,222.9l16.147-22.34-16.368,27.87-1.77-3.1Z" transform="translate(-38.612 -70.219)" fill="#3f3d56"/>
  <path id="Path_13600" data-name="Path 13600" d="M101.918,257.614l-16.147-22.34,16.368,27.87,1.77-3.1Z" transform="translate(-30.032 -82.375)" fill="#3f3d56"/>
  <path id="Path_13601" data-name="Path 13601" d="M819.4,399.825H804.361l6.857-232.248Z" transform="translate(-281.636 -58.671)" fill="#3f3d56"/>
  <path id="Path_13602" data-name="Path 13602" d="M815.881,223.273l16.147-22.34L815.661,228.8l-1.769-3.1Z" transform="translate(-284.973 -70.351)" fill="#3f3d56"/>
  <path id="Path_13603" data-name="Path 13603" d="M805.531,257.99l-16.146-22.34,16.368,27.869,1.77-3.1Z" transform="translate(-276.392 -82.506)" fill="#3f3d56"/>
  <ellipse id="Ellipse_604" data-name="Ellipse 604" cx="136.799" cy="136.799" rx="136.799" ry="136.799" transform="translate(161.525 67.517)" fill="#3f3d56"/>
  <ellipse id="Ellipse_605" data-name="Ellipse 605" cx="125.474" cy="125.474" rx="125.474" ry="125.474" transform="translate(172.849 78.842)" fill="#fff"/>
  <ellipse id="Ellipse_606" data-name="Ellipse 606" cx="16.76" cy="16.76" rx="16.76" ry="16.76" transform="translate(281.111 188.009)" fill="#3f3d56"/>
  <rect id="Rectangle_1116" data-name="Rectangle 1116" width="7.248" height="13.589" transform="translate(294.247 85.184)" fill="#3f3d56"/>
  <rect id="Rectangle_1117" data-name="Rectangle 1117" width="7.248" height="13.589" transform="translate(294.247 310.766)" fill="#3f3d56"/>
  <rect id="Rectangle_1118" data-name="Rectangle 1118" width="7.248" height="13.589" transform="translate(191.874 201.145) rotate(90)" fill="#3f3d56"/>
  <rect id="Rectangle_1119" data-name="Rectangle 1119" width="7.248" height="13.589" transform="translate(417.456 201.145) rotate(90)" fill="#3f3d56"/>
  <path id="Path_13604" data-name="Path 13604" d="M450.924,318.656l6.194-14.162,77.61,42.983Z" transform="translate(-157.885 -106.611)" fill="#3f3d56"/>
  <rect id="Rectangle_1120" data-name="Rectangle 1120" width="35.332" height="40.768" transform="translate(280.657 34.45)" fill="#3f3d56"/>
  <ellipse id="Ellipse_607" data-name="Ellipse 607" cx="40.768" cy="11.324" rx="40.768" ry="11.324" transform="translate(257.556 23.126)" fill="#3f3d56"/>
  <path id="Path_13605" data-name="Path 13605" d="M723.111,529.575l-2.265,3.17s-10.418,12.23-10.872,6.342,7.7-9.966,7.7-9.966l4.53-2.717Z" transform="translate(-348.461 -301.025)" fill="#ffb8b8"/>
  <path id="Path_13606" data-name="Path 13606" d="M827.665,547.455l1.9,3.4s6.595,14.65,1.079,12.54-5.711-11.224-5.711-11.224l-.517-5.258Z" transform="translate(-388.536 -308.207)" fill="#ffb8b8"/>
  <ellipse id="Ellipse_608" data-name="Ellipse 608" cx="13.793" cy="13.793" rx="13.793" ry="13.793" transform="translate(415.139 151.303)" fill="#2f2e41"/>
  <path id="Path_13607" data-name="Path 13607" d="M811.751,607.587l1.812,11.777v3.624h10.418v-4.53s.453-8.153-1.359-10.418S811.751,607.587,811.751,607.587Z" transform="translate(-384.103 -329.209)" fill="#ffb8b8"/>
  <path id="Path_13608" data-name="Path 13608" d="M783.173,607.587l1.812,11.777v3.624H795.4v-4.53s.453-8.153-1.359-10.418S783.173,607.587,783.173,607.587Z" transform="translate(-374.097 -329.209)" fill="#ffb8b8"/>
  <path id="Path_13609" data-name="Path 13609" d="M792.761,462.384s-4.007,2.112-1.27,6.916,18.8,54.508,18.8,54.508l9.264-2.63-8.17-31.434L806.7,469.988Z" transform="translate(-376.675 -278.609)" fill="#dba514"/>
  <ellipse id="Ellipse_609" data-name="Ellipse 609" cx="10.418" cy="10.418" rx="10.418" ry="10.418" transform="translate(417.003 158.566)" fill="#ffb8b8"/>
  <path id="Path_13610" data-name="Path 13610" d="M812.865,442.063l-1.359,21.29-9.513-6.795s3.171-12.683,2.265-13.589Z" transform="translate(-380.686 -271.494)" fill="#ffb8b8"/>
  <path id="Path_13611" data-name="Path 13611" d="M806.929,467.537l-10.248-7.588s-4.7-1.924-6.06.341-8.153,35.785-4.53,42.127c0,0,19.478,4.076,23.555,1.812l1.812-11.777s2.264-7.248-1.359-11.777Z" transform="translate(-374.751 -277.489)" fill="#dba514"/>
  <path id="Path_13612" data-name="Path 13612" d="M771.941,461.144s-3.624-2.718-6.795,1.812-41.22,40.315-41.22,40.315l6.341,7.248,24.914-20.837L771.035,477Z" transform="translate(-353.352 -277.892)" fill="#dba514"/>
  <path id="Path_13613" data-name="Path 13613" d="M808.05,526.908s-22.422-4.3-24.687-1.132l-.453,4.982s-4.983,9.513-2.265,24.913.906,24.914.906,24.914,12.23-1.359,21.29,0,10.418,0,10.418,0Z" transform="translate(-372.928 -300.397)" fill="#2f2e41"/>
  <path id="Path_13614" data-name="Path 13614" d="M824.888,628.868l-13.136.453,4.53,33.973s-3.624,14.5.453,15.4a45.965,45.965,0,0,0,8.606.906s4.077,4.077,8.606,3.624a25.359,25.359,0,0,0,8.606-2.718s.906-2.718-2.265-3.624-11.777-3.624-13.589-13.137Z" transform="translate(-384.103 -336.901)" fill="#2f2e41"/>
  <path id="Path_13615" data-name="Path 13615" d="M796.31,628.868l-13.137.453,4.531,33.973s-3.624,14.5.453,15.4a45.957,45.957,0,0,0,8.606.906s4.077,4.077,8.606,3.624a25.358,25.358,0,0,0,8.607-2.718s.906-2.718-2.265-3.624-11.777-3.624-13.589-13.137Z" transform="translate(-374.097 -336.901)" fill="#2f2e41"/>
  <ellipse id="Ellipse_610" data-name="Ellipse 610" cx="5.707" cy="5.707" rx="5.707" ry="5.707" transform="translate(428.049 144.872)" fill="#2f2e41"/>
  <path id="Path_13616" data-name="Path 13616" d="M830.106,403.471a5.708,5.708,0,0,0-5.113-5.677,5.708,5.708,0,1,1,0,11.353A5.708,5.708,0,0,0,830.106,403.471Z" transform="translate(-388.74 -255.983)" fill="#2f2e41"/>
  <ellipse id="Ellipse_611" data-name="Ellipse 611" cx="9.512" cy="5.707" rx="9.512" ry="5.707" transform="translate(417.815 156.464)" fill="#2f2e41"/>
  <path id="Path_13617" data-name="Path 13617" d="M982.421,206.99a29.034,29.034,0,0,0-56.965-6.121c-.352-.013-.7-.027-1.058-.027a29.04,29.04,0,0,0-27.856,20.848,20.518,20.518,0,0,0-24.349,6.061H962.76a19.639,19.639,0,0,0,19.682-20.333C982.437,207.275,982.43,207.133,982.421,206.99Z" transform="translate(-405.266 -179.594)" fill="#e6e6e6"/>
  <ellipse id="Ellipse_612" data-name="Ellipse 612" cx="7.798" cy="7.798" rx="7.798" ry="7.798" transform="translate(493.646 72.904)" fill="#e6e6e6"/>
  <ellipse id="Ellipse_613" data-name="Ellipse 613" cx="6.493" cy="6.493" rx="6.493" ry="6.493" transform="translate(518.497 55.823)" fill="#e6e6e6"/>
  <ellipse id="Ellipse_614" data-name="Ellipse 614" cx="7.798" cy="7.798" rx="7.798" ry="7.798" transform="translate(548.884 89.8)" fill="#e6e6e6"/>
  <ellipse id="Ellipse_615" data-name="Ellipse 615" cx="7.798" cy="7.798" rx="7.798" ry="7.798" transform="translate(489.746 125.543)" fill="#e6e6e6"/>
  <ellipse id="Ellipse_616" data-name="Ellipse 616" cx="7.798" cy="7.798" rx="7.798" ry="7.798" transform="translate(548.884 170.383)" fill="#e6e6e6"/>
  <path id="Path_13618" data-name="Path 13618" d="M973.78,679.764c0-.085.012-.167.012-.252a12.313,12.313,0,0,0-24.577-.644c-.04,0-.078-.006-.117-.006a7.8,7.8,0,1,0,4.766,13.961,7.794,7.794,0,0,0,13.4.792,7.792,7.792,0,1,0,6.515-13.85Z" transform="translate(-429.458 -351.212)" fill="#e6e6e6"/>
  <ellipse id="Ellipse_617" data-name="Ellipse 617" cx="3.249" cy="3.249" rx="3.249" ry="3.249" transform="translate(560.582 143.739)" fill="#e6e6e6"/>
  <ellipse id="Ellipse_618" data-name="Ellipse 618" cx="3.249" cy="3.249" rx="3.249" ry="3.249" transform="translate(539.786 65.755)" fill="#e6e6e6"/>
  <ellipse id="Ellipse_619" data-name="Ellipse 619" cx="3.249" cy="3.249" rx="3.249" ry="3.249" transform="translate(528.738 146.338)" fill="#e6e6e6"/>
  <ellipse id="Ellipse_620" data-name="Ellipse 620" cx="3.249" cy="3.249" rx="3.249" ry="3.249" transform="translate(531.338 143.089)" fill="#e6e6e6"/>
  <ellipse id="Ellipse_621" data-name="Ellipse 621" cx="3.249" cy="3.249" rx="3.249" ry="3.249" transform="translate(533.287 139.84)" fill="#e6e6e6"/>
  <ellipse id="Ellipse_622" data-name="Ellipse 622" cx="3.249" cy="3.249" rx="3.249" ry="3.249" transform="translate(525.489 167.134)" fill="#e6e6e6"/>
  <ellipse id="Ellipse_623" data-name="Ellipse 623" cx="3.249" cy="3.249" rx="3.249" ry="3.249" transform="translate(573.579 203.526)" fill="#e6e6e6"/>
  <ellipse id="Ellipse_624" data-name="Ellipse 624" cx="3.249" cy="3.249" rx="3.249" ry="3.249" transform="translate(504.043 205.476)" fill="#e6e6e6"/>
  <ellipse id="Ellipse_625" data-name="Ellipse 625" cx="3.249" cy="3.249" rx="3.249" ry="3.249" transform="translate(507.943 105.397)" fill="#e6e6e6"/>
  <ellipse id="Ellipse_626" data-name="Ellipse 626" cx="3.249" cy="3.249" rx="3.249" ry="3.249" transform="translate(522.889 163.885)" fill="#e6e6e6"/>
  <ellipse id="Ellipse_627" data-name="Ellipse 627" cx="3.249" cy="3.249" rx="3.249" ry="3.249" transform="translate(519.64 158.686)" fill="#e6e6e6"/>
</svg>
