<svg xmlns="http://www.w3.org/2000/svg" width="828" height="828" viewBox="0 0 828 828">
  <g id="Group_2528" data-name="Group 2528" transform="translate(-546 -103)">
    <circle id="Ellipse_760" data-name="Ellipse 760" cx="414" cy="414" r="414" transform="translate(546 103)" fill="#0073ae" opacity="0.08"/>
    <g id="undraw_note_list_etto_1_" data-name="undraw_note_list_etto (1)" transform="translate(680.024 294.383)">
      <path id="Path_12959" data-name="Path 12959" d="M662.916,807.9v2.823a10.79,10.79,0,0,1-11.806,10.727c-22.1-2.1-44.106-6.007-66.284-5.324-40.888,1.248-82.115,17.971-121.693,7.639-11.162-2.914-22.2-7.978-33.684-6.888-10.3.976-19.473,6.8-29.455,9.536-30.358,8.333-61.27-12.726-92.74-11.873-20.743.564-40.606,10.665-61.327,9.542-12.009-.644-23.448-5.036-35.163-7.741-29.167-6.741-59.2-2.975-89.257-.638A7.9,7.9,0,0,1,113,807.84v-2.417a7.9,7.9,0,0,1,7.9-7.9l531.239-.429A10.79,10.79,0,0,1,662.916,807.9Z" transform="translate(-113 -374.344)" fill="#3f3d56"/>
      <path id="Path_12960" data-name="Path 12960" d="M662.916,807.9v2.823a10.79,10.79,0,0,1-11.806,10.727c-22.1-2.1-44.106-6.007-66.284-5.324-40.888,1.248-82.115,17.971-121.693,7.639-11.162-2.914-22.2-7.978-33.684-6.888-10.3.976-19.473,6.8-29.455,9.536-30.358,8.333-61.27-12.726-92.74-11.873-20.743.564-40.606,10.665-61.327,9.542-12.009-.644-23.448-5.036-35.163-7.741-29.167-6.741-59.2-2.975-89.257-.638A7.9,7.9,0,0,1,113,807.84v-2.417a7.9,7.9,0,0,1,7.9-7.9l531.239-.429A10.79,10.79,0,0,1,662.916,807.9Z" transform="translate(-113 -374.344)" opacity="0.1"/>
      <path id="Path_12961" data-name="Path 12961" d="M662.916,798.762v2.823a11.58,11.58,0,0,1-.062,1.174,10.79,10.79,0,0,1-11.744,9.6c-22.1-2.106-44.106-6.013-66.284-5.33-40.888,1.253-82.115,17.977-121.693,7.639-11.162-2.913-22.2-7.978-33.684-6.888-10.3.977-19.473,6.8-29.455,9.542-30.358,8.311-61.27-12.748-92.74-11.9-20.743.564-40.606,10.666-61.326,9.547-12.009-.649-23.448-5.036-35.163-7.747-29.161-6.735-59.2-2.97-89.257-.632a7.9,7.9,0,0,1-8.39-6.493,7.747,7.747,0,0,1-.118-1.389v-2.417a7.9,7.9,0,0,1,7.9-7.9l133.148-.107,272.028-.226,126.063-.1A10.79,10.79,0,0,1,662.916,798.762Z" transform="translate(-113 -370.365)" fill="#3f3d56"/>
      <path id="Path_12962" data-name="Path 12962" d="M644.984,789.768c0,1.248-2.462,2.445-7,3.568-18.174,4.488-69.552,7.724-130.2,7.724-59.661,0-110.424-3.135-129.292-7.515-5.081-1.18-7.9-2.45-7.9-3.777,0-.463.339-.921,1.005-1.372l272.028-.226C644.521,788.7,644.984,789.2,644.984,789.768Z" transform="translate(-225.156 -370.46)" opacity="0.1"/>
      <g id="Group_2526" data-name="Group 2526" transform="translate(315.137 0)" opacity="0.5">
        <rect id="Rectangle_796" data-name="Rectangle 796" width="227" height="71" rx="19.03" transform="translate(-0.161 -0.383)" fill="#36334a"/>
        <rect id="Rectangle_797" data-name="Rectangle 797" width="39" height="20" transform="translate(30.839 11.617)" fill="#ff7500"/>
        <rect id="Rectangle_798" data-name="Rectangle 798" width="157" height="3" transform="translate(30.839 35.617)" fill="#ff7500" opacity="0.3"/>
        <rect id="Rectangle_799" data-name="Rectangle 799" width="55" transform="translate(30.839 50.617)" fill="#ff7500" opacity="0.3"/>
      </g>
      <g id="Group_2527" data-name="Group 2527" transform="translate(27.101 55.143)" opacity="0.5">
        <rect id="Rectangle_800" data-name="Rectangle 800" width="226.967" height="68.316" rx="19.03" fill="#36334a"/>
        <rect id="Rectangle_801" data-name="Rectangle 801" width="52.507" height="11.857" transform="translate(27.665 14.679)" fill="#36334a"/>
        <rect id="Rectangle_802" data-name="Rectangle 802" width="160.91" height="6.211" transform="translate(27.665 33.876)" fill="#36334a"/>
        <rect id="Rectangle_803" data-name="Rectangle 803" width="64.364" height="6.211" transform="translate(27.665 47.426)" fill="#36334a"/>
        <rect id="Rectangle_804" data-name="Rectangle 804" width="226.967" height="68.316" rx="19.03" fill="#36334a"/>
        <rect id="Rectangle_805" data-name="Rectangle 805" width="52.507" height="11.857" transform="translate(27.665 14.679)" fill="#ff7500"/>
        <rect id="Rectangle_806" data-name="Rectangle 806" width="160.91" height="6.211" transform="translate(27.665 33.876)" fill="#ff7500" opacity="0.3"/>
        <rect id="Rectangle_807" data-name="Rectangle 807" width="64.364" height="6.211" transform="translate(27.665 47.426)" fill="#ff7500" opacity="0.3"/>
      </g>
      <rect id="Rectangle_808" data-name="Rectangle 808" width="5.821" height="48.002" rx="2.29" transform="translate(376.913 118.959)" fill="#3f3d56"/>
      <rect id="Rectangle_809" data-name="Rectangle 809" width="3.269" height="15.803" rx="1.5" transform="translate(183.358 81.352)" fill="#3f3d56"/>
      <rect id="Rectangle_810" data-name="Rectangle 810" width="3.681" height="27.507" rx="1.69" transform="translate(183.24 110.281)" fill="#3f3d56"/>
      <rect id="Rectangle_811" data-name="Rectangle 811" width="3.506" height="27.744" rx="1.61" transform="translate(183.296 147.415)" fill="#3f3d56"/>
      <rect id="Rectangle_812" data-name="Rectangle 812" width="194.842" height="395.991" rx="35.69" transform="translate(185.21 29.126)" fill="#3f3d56"/>
      <rect id="Rectangle_813" data-name="Rectangle 813" width="27.208" height="5.527" rx="2.54" transform="translate(263.836 40.955)" fill="#e6e8ec"/>
      <ellipse id="Ellipse_523" data-name="Ellipse 523" cx="3.134" cy="3.134" rx="3.134" ry="3.134" transform="translate(295.159 40.582)" fill="#e6e8ec"/>
      <path id="Path_12963" data-name="Path 12963" d="M633.129,133.666v344.4a15.476,15.476,0,0,1-15.476,15.47H477.826a15.476,15.476,0,0,1-15.476-15.47v-344.4a15.476,15.476,0,0,1,15.476-15.476H498.75v2.716a12.748,12.748,0,0,0,12.743,12.743h71.139a12.743,12.743,0,0,0,12.715-12.743v-2.688h22.307A15.476,15.476,0,0,1,633.129,133.666Z" transform="translate(-265.109 -78.748)" fill="#36334a"/>
      <rect id="Rectangle_814" data-name="Rectangle 814" width="27" transform="translate(201.976 70.617)" fill="#3f3d56"/>
      <rect id="Rectangle_815" data-name="Rectangle 815" width="27" height="11" transform="translate(201.976 70.617)" fill="#3f3d56"/>
      <rect id="Rectangle_816" data-name="Rectangle 816" width="27" height="4" transform="translate(201.976 81.617)" fill="#3f3d56"/>
      <rect id="Rectangle_817" data-name="Rectangle 817" width="27" transform="translate(201.976 70.617)" fill="#3f3d56"/>
      <rect id="Rectangle_818" data-name="Rectangle 818" width="27" height="11" transform="translate(201.976 70.617)" fill="#3f3d56"/>
      <rect id="Rectangle_819" data-name="Rectangle 819" width="27" height="4" transform="translate(201.976 81.617)" fill="#3f3d56"/>
      <path id="Path_12964" data-name="Path 12964" d="M744.407,181.013h-.513l-.2-.164a4.3,4.3,0,0,0,1-2.761,4.2,4.2,0,1,0-4.178,4.223,4.363,4.363,0,0,0,2.755-1.005l.192.164v.519l3.24,3.247.971-.971Zm-3.884,0a2.908,2.908,0,1,1,2.066-.856A2.925,2.925,0,0,1,740.523,181.013Z" transform="translate(-384.388 -103.009)" fill="#3f3d56"/>
      <rect id="Rectangle_820" data-name="Rectangle 820" width="55" height="11" transform="translate(201.976 113.617)" fill="#dba514"/>
      <rect id="Rectangle_821" data-name="Rectangle 821" width="160" height="4" transform="translate(201.976 132.617)" fill="#dba514" opacity="0.3"/>
      <rect id="Rectangle_822" data-name="Rectangle 822" width="62" height="8" transform="translate(201.976 140.617)" fill="#dba514" opacity="0.3"/>
      <rect id="Rectangle_823" data-name="Rectangle 823" width="55" height="4" transform="translate(201.976 253.617)" fill="#dba514"/>
      <rect id="Rectangle_824" data-name="Rectangle 824" width="160" height="8" transform="translate(201.976 269.617)" fill="#dba514" opacity="0.3"/>
      <rect id="Rectangle_825" data-name="Rectangle 825" width="62" height="7" transform="translate(201.976 281.617)" fill="#dba514" opacity="0.3"/>
      <rect id="Rectangle_826" data-name="Rectangle 826" width="55" height="11" transform="translate(201.976 320.617)" fill="#dba514"/>
      <rect id="Rectangle_827" data-name="Rectangle 827" width="160" transform="translate(201.976 339.617)" fill="#ff7500" opacity="0.3"/>
      <rect id="Rectangle_828" data-name="Rectangle 828" width="62" height="4" transform="translate(201.976 347.617)" fill="#dba514" opacity="0.3"/>
      <circle id="Ellipse_524" data-name="Ellipse 524" cx="19.5" cy="19.5" r="19.5" transform="translate(314.976 359.617)" fill="#dba514"/>
      <path id="Path_12965" data-name="Path 12965" d="M706.656,716.025V725.3a.706.706,0,0,1-.706.706H687.036a.706.706,0,0,1-.706-.706V710.526a.706.706,0,0,1,.706-.706H700.2" transform="translate(-362.63 -336.347)" fill="none" stroke="#fff" stroke-linecap="round" stroke-miterlimit="10" stroke-width="1"/>
      <line id="Line_102" data-name="Line 102" x2="12.794" transform="translate(327.279 378.933)" fill="none" stroke="#fff" stroke-linecap="round" stroke-miterlimit="10" stroke-width="1"/>
      <line id="Line_103" data-name="Line 103" x2="12.799" transform="translate(327.466 381.57)" fill="none" stroke="#fff" stroke-linecap="round" stroke-miterlimit="10" stroke-width="1"/>
      <line id="Line_104" data-name="Line 104" x2="12.799" transform="translate(327.652 384.201)" fill="none" stroke="#fff" stroke-linecap="round" stroke-miterlimit="10" stroke-width="1"/>
      <line id="Line_105" data-name="Line 105" y2="6.397" transform="translate(341.58 372.723)" fill="none" stroke="#f0f" stroke-miterlimit="10" stroke-width="1"/>
      <line id="Line_106" data-name="Line 106" x1="6.403" transform="translate(338.379 375.924)" fill="none" stroke="#f0f" stroke-miterlimit="10" stroke-width="1"/>
      <line id="Line_107" data-name="Line 107" y2="6.397" transform="translate(341.58 372.723)" fill="none" stroke="#fff" stroke-linecap="round" stroke-miterlimit="10" stroke-width="1"/>
      <line id="Line_108" data-name="Line 108" x1="6.403" transform="translate(338.379 375.924)" fill="none" stroke="#fff" stroke-linecap="round" stroke-miterlimit="10" stroke-width="1"/>
      <path id="Path_12966" data-name="Path 12966" d="M996.026,739.832c1.693-3.111-.225-6.927-2.422-9.7s-4.862-5.646-4.8-9.2c.085-5.081,5.476-8.079,9.784-10.778a47.444,47.444,0,0,0,8.785-7.063,12.875,12.875,0,0,0,2.7-3.613,14.654,14.654,0,0,0,.813-6.42q-.287-10.875-1.078-21.731" transform="translate(-494.327 -319.588)" fill="none" stroke="#3f3d56" stroke-miterlimit="10" stroke-width="4"/>
      <path id="Path_12967" data-name="Path 12967" d="M1028.329,664.8a7.907,7.907,0,0,0-3.952-6.492l-1.773,3.511.056-4.252a8.022,8.022,0,0,0-2.614-.315,7.9,7.9,0,1,0,8.288,7.548Z" transform="translate(-504.661 -313.456)" fill="#57b894"/>
      <path id="Path_12968" data-name="Path 12968" d="M1003.967,756.729a7.9,7.9,0,1,1,.384-6.38l-4.951,4.025,5.448-1.259A7.9,7.9,0,0,1,1003.967,756.729Z" transform="translate(-494.431 -351.751)" fill="#57b894"/>
      <path id="Path_12969" data-name="Path 12969" d="M1002.024,726.154a7.9,7.9,0,0,1-2.512-15.544l-.045,3.263,1.8-3.551h0a7.925,7.925,0,0,1,.762,15.832Z" transform="translate(-496.401 -336.561)" fill="#57b894"/>
      <path id="Path_12970" data-name="Path 12970" d="M1036.3,703.513a7.9,7.9,0,1,1,3.506-14.832l-1.4,3.839,2.88-2.767a7.9,7.9,0,0,1,2.569,5.46,7.711,7.711,0,0,1-.2,2.185A7.9,7.9,0,0,1,1036.3,703.513Z" transform="translate(-511.441 -326.72)" fill="#57b894"/>
      <path id="Path_12971" data-name="Path 12971" d="M1027.291,670.26c-1.83.2-3.608.768-5.443.881a5.92,5.92,0,0,1-5.013-1.75,24.684,24.684,0,0,1-1.463-2.581,5.649,5.649,0,0,0-2-1.88,7.9,7.9,0,1,0,14.815,5.262Q1027.743,670.209,1027.291,670.26Z" transform="translate(-504.689 -316.801)" opacity="0.1"/>
      <path id="Path_12972" data-name="Path 12972" d="M1036.216,706.992a7.9,7.9,0,0,1-7.537-11.292,5.832,5.832,0,0,1,1.592,1.592,25.947,25.947,0,0,0,1.57,2.62,6.489,6.489,0,0,0,5.256,1.841c1.914-.085,3.76-.633,5.646-.808.266,0,.532-.039.8-.045A7.9,7.9,0,0,1,1036.216,706.992Z" transform="translate(-511.356 -330.199)" opacity="0.1"/>
      <path id="Path_12973" data-name="Path 12973" d="M1002.147,729.766a7.9,7.9,0,0,1-7.6-11.156,6.486,6.486,0,0,1,1.694,1.609,26.755,26.755,0,0,0,1.722,2.676,7.357,7.357,0,0,0,5.606,1.965c2.021-.045,3.856-.525,5.8-.677A7.9,7.9,0,0,1,1002.147,729.766Z" transform="translate(-496.523 -340.174)" opacity="0.1"/>
      <path id="Path_12974" data-name="Path 12974" d="M1003.8,760.635a7.914,7.914,0,0,1-14.448-6.465,7.829,7.829,0,0,1,1.739,1.553,34.342,34.342,0,0,0,2.123,2.823,9.873,9.873,0,0,0,6.566,2.309,33.881,33.881,0,0,0,4.02-.219Z" transform="translate(-494.268 -355.657)" opacity="0.1"/>
      <path id="Path_12975" data-name="Path 12975" d="M980.43,783.7s6.255-.192,8.142-1.536,9.6-2.941,10.083-.79,9.4,10.728,2.343,10.761-16.407-1.1-18.293-2.258S980.43,783.7,980.43,783.7Z" transform="translate(-490.683 -367.045)" fill="#656380"/>
      <path id="Path_12976" data-name="Path 12976" d="M1001.123,793.987c-7.063.056-16.407-1.1-18.287-2.258-1.434-.875-2-4-2.2-5.448h-.208s.4,5.048,2.258,6.21,11.229,2.3,18.293,2.259c2.038,0,2.738-.74,2.7-1.813C1003.415,793.569,1002.642,793.97,1001.123,793.987Z" transform="translate(-490.683 -369.638)" opacity="0.2"/>
      <path id="Path_12977" data-name="Path 12977" d="M627.579,370.221v46.827a10.728,10.728,0,0,1-10.728,10.728H462.35V359.46h154.5a10.727,10.727,0,0,1,10.728,10.761Z" transform="translate(-265.109 -183.798)" fill="#3f3d56"/>
      <rect id="Rectangle_829" data-name="Rectangle 829" width="226" height="63" rx="19.03" transform="translate(119.976 171.617)" fill="#f2f2f2"/>
      <rect id="Rectangle_830" data-name="Rectangle 830" width="226" height="63" rx="19.03" transform="translate(119.976 171.617)" fill="#f2f2f2"/>
      <rect id="Rectangle_831" data-name="Rectangle 831" width="51" height="12" transform="translate(146.976 183.617)" fill="#dba514"/>
      <rect id="Rectangle_832" data-name="Rectangle 832" width="156" transform="translate(146.976 202.617)" fill="#ff7500" opacity="0.3"/>
      <rect id="Rectangle_833" data-name="Rectangle 833" width="67" height="8" transform="translate(146.976 210.617)" fill="#ff7500" opacity="0.3"/>
      <ellipse id="Ellipse_525" data-name="Ellipse 525" cx="20.184" cy="20.184" rx="20.184" ry="20.184" transform="translate(31.951 118.705)" fill="#3f3d56"/>
      <path id="Path_12978" data-name="Path 12978" d="M159.5,562.437c2.083,14.617-.457,29.523-4.415,43.744a32.482,32.482,0,0,1-2.919,7.7,81.93,81.93,0,0,1-4.935,6.656c-3.388,4.664-5.375,10.163-7.232,15.606a440.19,440.19,0,0,0-12.884,45.912,3.146,3.146,0,0,0,0,1.96c.491,1.129,1.982,1.275,3.207,1.27l15.842-.085c.565-1.084-.48-2.259-1.129-3.3-2.259-3.512-.09-8.073,1.9-11.75A126.29,126.29,0,0,0,158.11,641.92c1.084-4.138,1.965-8.367,3.726-12.268,2.129-4.732,5.465-8.8,8.175-13.229a110.79,110.79,0,0,0,7.729-16.333c3.184-7.78,6.4-15.656,7.65-23.967,1.18-7.8.6-15.753-.169-23.606a1.49,1.49,0,0,0-1.728-1.693l-21.257-1.1c-4.381-.226-5.42-1.186-4.754,3.116C157.946,556.057,159.042,559.184,159.5,562.437Z" transform="translate(-119.079 -266.533)" fill="#3f3d56"/>
      <path id="Path_12979" data-name="Path 12979" d="M159.5,562.437c2.083,14.617-.457,29.523-4.415,43.744a32.482,32.482,0,0,1-2.919,7.7,81.93,81.93,0,0,1-4.935,6.656c-3.388,4.664-5.375,10.163-7.232,15.606a440.19,440.19,0,0,0-12.884,45.912,3.146,3.146,0,0,0,0,1.96c.491,1.129,1.982,1.275,3.207,1.27l15.842-.085c.565-1.084-.48-2.259-1.129-3.3-2.259-3.512-.09-8.073,1.9-11.75A126.29,126.29,0,0,0,158.11,641.92c1.084-4.138,1.965-8.367,3.726-12.268,2.129-4.732,5.465-8.8,8.175-13.229a110.79,110.79,0,0,0,7.729-16.333c3.184-7.78,6.4-15.656,7.65-23.967,1.18-7.8.6-15.753-.169-23.606a1.49,1.49,0,0,0-1.728-1.693l-21.257-1.1c-4.381-.226-5.42-1.186-4.754,3.116C157.946,556.057,159.042,559.184,159.5,562.437Z" transform="translate(-119.079 -266.533)" opacity="0.1"/>
      <path id="Path_12980" data-name="Path 12980" d="M186.075,508.264c-4.319,6.21-8.847,13.358-7.413,20.794,1.09,5.646,5.392,10.022,9.451,14.115,16.226,16.294,32.182,34.4,37.7,56.725,1.423,5.771,2.112,11.693,3.337,17.5,2.225,10.558,6.211,20.653,10.163,30.686l10.569,26.751a16.012,16.012,0,0,0,15.3-10.163,6.7,6.7,0,0,1-4.014-2.58c-4.517-6.25-5.443-14.29-6.6-21.912-1.282-8.424-2.992-16.78-4.709-25.13L242.3,578.116c-.875-4.263-1.75-8.531-2.891-12.726-4.415-16.278-12.782-31.618-14.075-48.448-.192-2.473-.311-5.189-1.987-7.024-1.762-1.937-4.652-2.258-7.266-2.411C205.5,506.807,196.378,505.774,186.075,508.264Z" transform="translate(-141.471 -247.902)" fill="#3f3d56"/>
      <path id="Path_12981" data-name="Path 12981" d="M131.534,781.378a16.872,16.872,0,0,0-3.512-.452,7.294,7.294,0,0,0-5.736,3.134,14.256,14.256,0,0,0-1.541,3.387l-1.53,4.393c-.452,1.287-.892,2.772-.22,3.952a4.183,4.183,0,0,0,2.055,1.609c3.7,1.648,7.876,1.74,11.913,2.135,3.918.384,7.8,1.073,11.67,1.8,1.333.249,2.659.5,4.009.638a47.8,47.8,0,0,0,9.068-.271l3.111-.3a11.2,11.2,0,0,0,3.06-.565,3.855,3.855,0,0,0,2.258-2.027c.768-1.9-.881-4.155-2.9-4.517-.819-.164-1.666-.091-2.5-.2a11.779,11.779,0,0,1-2.733-.819,53.825,53.825,0,0,1-11.5-5.607c-.971-.683-1.987-1.637-1.88-2.823a5.766,5.766,0,0,1,.5-1.462,5.341,5.341,0,0,0,.045-3.777c-.192-.52-.565-1.067-1.09-1.129-1.491-.181-1.31,1.993-1.53,2.823-.3,1.129-.841,1.231-1.9,1.129C137.609,782.106,134.56,781.955,131.534,781.378Z" transform="translate(-115.46 -366.238)" fill="#f2f2f2"/>
      <path id="Path_12982" data-name="Path 12982" d="M299.293,794.934A9.968,9.968,0,0,0,301.45,801a4.726,4.726,0,0,0,1.536,1.236,6.167,6.167,0,0,0,2.795.446,22.612,22.612,0,0,0,7.842-1.587,22.333,22.333,0,0,1,2.71-1.021,30.427,30.427,0,0,1,3.523-.509c4.669-.671,8.768-3.427,13.28-4.822a27.908,27.908,0,0,0,3.952-1.3,18.112,18.112,0,0,0,4.647-3.63,8.32,8.32,0,0,0,3.049-7.689,1.463,1.463,0,0,0-.135-.8,1.186,1.186,0,0,0-.508-.4c-1.372-.677-3-.338-4.517-.073-5.488.976-11.106.8-16.678.615a2.423,2.423,0,0,1-2.563-1.462l-2.117-3.388c-.6-.97-1.564-2.083-2.659-1.75a2.167,2.167,0,0,0-1.2,2.259,12.083,12.083,0,0,1,.141,2.733,3.733,3.733,0,0,1-1.807,2.348,11.514,11.514,0,0,1-2.823,1.084c-3.116.881-6.741,1.88-9.152,4.173C299.022,789.118,299.186,792.76,299.293,794.934Z" transform="translate(-194.086 -364.645)" fill="#f2f2f2"/>
      <path id="Path_12983" data-name="Path 12983" d="M280.612,394.819a13.072,13.072,0,0,0,3.083-3.354,13.677,13.677,0,0,0,1.316-4.635l.886-5.6c.491-3.088,1.067-6.357,3.128-8.712s6.165-3.2,8.26-.87a7.251,7.251,0,0,1,1.5,3.749,27.293,27.293,0,0,1-6.674,22.584c-2.535,2.777-5.646,4.985-8.327,7.611-2.338,2.258-4.365,4.85-6.521,7.306A90,90,0,0,1,259.5,428.423c.079-4.2.615-8.706,0-12.878-.457-3.015-1.694-4.641,1.225-6.611C267.5,404.327,274.333,400.16,280.612,394.819Z" transform="translate(-176.5 -188.505)" fill="#fbbebe"/>
      <path id="Path_12984" data-name="Path 12984" d="M193.512,333.761a10.329,10.329,0,0,1-3.952,7.809q10.552,3.692,20.817,8.141a7.211,7.211,0,0,1-1.784-5.047,25.479,25.479,0,0,1,3.9-13.607,3.3,3.3,0,0,0,.638-1.8c-.079-1.333-1.66-1.948-2.958-2.258a72.729,72.729,0,0,0-13.505-1.959c-1.948-.062-4.257-.678-3.817,1.8A27.254,27.254,0,0,1,193.512,333.761Z" transform="translate(-146.335 -168.764)" fill="#fbbebe"/>
      <ellipse id="Ellipse_526" data-name="Ellipse 526" cx="16.503" cy="16.503" rx="16.503" ry="16.503" transform="translate(44.281 133.599)" fill="#fbbebe"/>
      <path id="Path_12985" data-name="Path 12985" d="M218.524,372.875a19.983,19.983,0,0,0-2.095-3.512,73.048,73.048,0,0,0-9.9-12.144,61.64,61.64,0,0,0-9.4-6.905,21.338,21.338,0,0,0-5.883-2.823,23.007,23.007,0,0,0-3.777-.514l-4.285-.35a3.51,3.51,0,0,0-1.129.034,2.434,2.434,0,0,0-1.445,2.908,7.156,7.156,0,0,0,1.908,3c.192,8.745-3.7,17.372-4.223,26.107-.92,15.244,8.4,29.478,9.146,44.761a4.825,4.825,0,0,1-.214,2.05c-.124.316-.311.6-.452.915a8.94,8.94,0,0,0-.5,3.105,15.773,15.773,0,0,1-4.647,9.948,6.9,6.9,0,0,0,2.62,2c1.8.785,3.952.853,5.866,1.4,4.991,1.457,10.106,2.925,15.295,2.614a13.49,13.49,0,0,0,1.18-4.443c.734-.458,1.581.519,1.694,1.377s-.051,1.858.564,2.479a2.324,2.324,0,0,0,2.146.429,94.842,94.842,0,0,0,9.316-2.185c3.105-.717,6.425-1.062,9.446-.034a2.527,2.527,0,0,0-.147-2.767,12.346,12.346,0,0,1-1.485-2.535,5.69,5.69,0,0,1-.181-1.666c0-4.827.994-9.705.051-14.442-.277-1.389-.717-2.744-1-4.138a35.7,35.7,0,0,1-.407-8.254c.073-2.761-.26-5.748-.316-8.548a27.243,27.243,0,0,0-.226-3.461c-.192-1.2-.565-2.377-.666-3.591-.3-3.083.937-6.143.751-9.237C225.813,379.757,220.353,377.205,218.524,372.875Z" transform="translate(-141.4 -178.198)" fill="#dba514"/>
      <path id="Path_12986" data-name="Path 12986" d="M166.452,389.109c-4,10.6-5.951,21.85-7.9,33.018l-4.517,26.231c-1.282,7.413-2.569,14.871-2.518,22.392a23.971,23.971,0,0,1-.418,6.3c-.723,2.676-2.518,4.906-3.879,7.34a24.153,24.153,0,0,0-2.6,16.334c.463,2.343,1.728,5,4.1,5.273,1.954.214,3.642-1.338,4.782-2.942,2.62-3.675,3.918-8.113,5.081-12.483a282.354,282.354,0,0,0,7.831-43.525,42.382,42.382,0,0,1,.785-5.533,39.253,39.253,0,0,1,1.908-5.51q2.592-6.425,5.189-12.85c3.992-9.9,8.006-19.84,13.488-29-5.42-1.558-11.061-3.387-16.481-4.929A14.888,14.888,0,0,0,166.452,389.109Z" transform="translate(-126.574 -196.645)" fill="#fbbebe"/>
      <path id="Path_12987" data-name="Path 12987" d="M189.762,393.794c-3.794-.818-7.718-.565-11.591-.661a2.5,2.5,0,0,1-1.558-.407c-.785-.672-.452-1.931-.056-2.885l1.874-4.517a6.573,6.573,0,0,1,1.5-2.5,6.37,6.37,0,0,1,3.562-1.208,32.276,32.276,0,0,1,12.342.48c3.992,1.112,7.746,3.641,9.531,7.385.745,1.558,1.09,3.523.1,4.94-1.468,2.106-4.76,4.46-7.216,3.309C195.312,396.358,193.059,394.511,189.762,393.794Z" transform="translate(-140.49 -193.29)" fill="#c99405"/>
      <path id="Path_12988" data-name="Path 12988" d="M195.971,259.891a16.666,16.666,0,0,0-9.192,2.648,20.185,20.185,0,0,0-19.817-4.641,11.535,11.535,0,1,0-13.336,13.353,20.184,20.184,0,1,0,38.714,11.343,18.045,18.045,0,0,0,3.619.367c7.961,0,14.42-5.166,14.42-11.535S203.921,259.891,195.971,259.891Z" transform="translate(-126.526 -135.421)" fill="#3f3d56"/>
      <path id="Path_12989" data-name="Path 12989" d="M236.261,295.938a17.56,17.56,0,0,1-3.619-.367,20.08,20.08,0,0,1-2.642,5.81,18.144,18.144,0,0,0,3.388.327c7.441,0,13.55-4.517,14.335-10.3A15.906,15.906,0,0,1,236.261,295.938Z" transform="translate(-163.942 -154.169)" opacity="0.1"/>
      <path id="Path_12990" data-name="Path 12990" d="M175.77,294.5a20.212,20.212,0,0,1-19.3-26.129,11.535,11.535,0,0,1-9.536-11.36,11.335,11.335,0,0,1,.187-2.066,11.535,11.535,0,0,0,6.47,19.2,20.184,20.184,0,1,0,38.556,11.958A20.144,20.144,0,0,1,175.77,294.5Z" transform="translate(-126.52 -138.29)" opacity="0.1"/>
    </g>
  </g>
</svg>
