<svg xmlns="http://www.w3.org/2000/svg" xmlns:xlink="http://www.w3.org/1999/xlink" width="878" height="882" viewBox="0 0 878 882">
  <defs>
    <linearGradient id="linear-gradient" x1="-2.055" y1="1" x2="-2.055" gradientUnits="objectBoundingBox">
      <stop offset="0" stop-color="gray" stop-opacity="0.251"/>
      <stop offset="0.54" stop-color="gray" stop-opacity="0.122"/>
      <stop offset="1" stop-color="gray" stop-opacity="0.102"/>
    </linearGradient>
  </defs>
  <g id="Group_2534" data-name="Group 2534" transform="translate(-521 -99)">
    <ellipse id="Ellipse_761" data-name="Ellipse 761" cx="439" cy="441" rx="439" ry="441" transform="translate(521 99)" fill="#0073ae" opacity="0.08"/>
    <g id="undraw_on_the_office_fbfs" transform="translate(638.411 272.598)">
      <path id="Path_13055" data-name="Path 13055" d="M1064.336,308.36H1004.42v72.63h55.537c.143.749.28,1.5.443,2.242h-55.98v58.56l.28-.091q2.373-.834,4.712-1.773l1-.41q2.4-.984,4.712-2.105c.553-.254,1.1-.521,1.642-.795a97.653,97.653,0,0,0,23.571-16.292c.2-.176.392-.358.573-.534.958-.925,1.9-1.857,2.809-2.815l1-1.068c1.075-1.167,2.112-2.372,3.122-3.591l.443-.535a75.829,75.829,0,0,0,10.153-16.292c.086-.176.157-.359.235-.534.814-1.838,1.551-3.7,2.189-5.6.273-.8.534-1.6.763-2.405.078-.241.15-.475.214-.71,3.324-11.632,3.707-23.721,3.707-35.744v-4.2c0-4.855-.07-9.775-.163-14.63,0-1.264-.058-2.522-.091-3.793q-.116-4.842-.352-9.671c-.039-.9-.079-1.792-.136-2.679,0-.515-.052-1.03-.086-1.545C1064.6,312.068,1064.479,310.218,1064.336,308.36Z" transform="translate(-416.185 -130.794)" fill="#ff7500" opacity="0.1"/>
      <path id="Path_13056" data-name="Path 13056" d="M1004.409,164.547h32.864a224.761,224.761,0,0,0-17.5-21.4c-4.888-5.331-10.016-10.531-15.386-15.536Z" transform="translate(-416.175 -67.835)" fill="#ff7500" opacity="0.1"/>
      <path id="Path_13057" data-name="Path 13057" d="M1004.42,187.72v76.37h59.727c0-.221-.039-.45-.059-.652-.053-.6-.1-1.2-.162-1.805s-.137-1.408-.215-2.118-.157-1.531-.249-2.287-.169-1.531-.267-2.294-.189-1.525-.294-2.281-.2-1.525-.318-2.281c-.09-.652-.176-1.251-.275-1.883-.136-.886-.28-1.779-.43-2.659a3.657,3.657,0,0,0-.071-.391,163.811,163.811,0,0,0-4.392-19.179,132.006,132.006,0,0,0-7.41-19.466,141.416,141.416,0,0,0-11.15-19.094Z" transform="translate(-416.185 -88.766)" fill="#ff7500" opacity="0.1"/>
      <path id="Path_13058" data-name="Path 13058" d="M549.81,213.451v72.629H677.787V213.451Zm0,74.871V337.5c14.9-4.764,31.932-2.841,47.377,1.069,11.958,3.037,23.61,7.169,35.549,10.14a130.394,130.394,0,0,0,16.207,3.063l1.342.143c.652.065,1.3.13,1.955.182l1.955.137h1.075a2.3,2.3,0,0,0,.3,0l1.056.039h.032c.5,0,1.01,0,1.519.039h4.184a11.034,11.034,0,0,0,1.14-.039c.613,0,1.225-.052,1.844-.1l1.14-.072,1.408-.111c1-.078,1.955-.183,2.965-.3.391-.046.789-.091,1.18-.15l.58-.072c.984-.13,1.955-.287,2.939-.45.723-.111,1.447-.248,2.177-.378V288.323Zm95.184-155.751v2.242H549.81v76.4H677.787v-76.37h-6.419V132.6h6.419V83.239c-24.894-20.052-53.991-35.758-86.4-43.011a183.774,183.774,0,0,0-41.577-4.334v96.7Zm-292.6-.43.45.43H535.493V36.566c-32.519,2.7-64.229,13.627-89.795,31.724-12.284,8.687-23.317,18.983-37.1,25.65a58.1,58.1,0,0,1-23.2,6Zm-1.258-39.387v21.734L368.78,97.264c-6.562-2.268-11.737-3.819-17.674-4.484Zm-.587,273.418h.587V413.81q9.99-.743,19.9-2.046a356.109,356.109,0,0,0,86.185-22.326h0q4.458-1.785,8.85-3.688,2.926-1.271,5.82-2.607,4.34-1.994,8.615-4.1a303.149,303.149,0,0,0,36.409-21.153c.723-.489,1.453-.984,2.17-1.486q2.164-1.5,4.295-3.024c.71-.515,1.42-1.03,2.124-1.551l1.447-1.108c1.46-1.088,2.913-2.183,4.386-3.258h0c1.362-.978,2.737-1.955,4.132-2.867V288.29H388.741c.1-.332.2-.652.313-1-.117.339-.222.652-.319,1H351.107v77.869Zm.587-231.346V211.21h184.36v-76.37Zm0,78.612v72.643h184.36V213.451ZM314.274,94.989,336.8,116.97V92.656Q325.476,93.36,314.274,94.989ZM157.448,213.451v72.629H336.8V213.451ZM200.8,392.826a333.1,333.1,0,0,0,84.542,20.059h.124q8.2.867,16.455,1.343h.2c11.528.652,23.1.8,34.656.371V288.323H157.448l.652,83.623M107.77,286.081h35.373V213.451H129.152c-1.453,2.555-2.861,5.122-4.2,7.729q-1.075,2.079-2.092,4.2C113.655,244.5,107.8,265.507,107.77,286.081Zm0,2.242a91.812,91.812,0,0,0,10.9,42.613,104.5,104.5,0,0,0,24.444,29.326V288.323Zm22.665-77.113h12.682v-18.9a201.6,201.6,0,0,0-12.656,18.9ZM209.895,132.6H332.567l.443-.43-.652-.652h0L297.865,97.87a280.105,280.105,0,0,0-30.283,8.113c-.938.306-1.877.652-2.809.945a274.66,274.66,0,0,0-54.878,25.67Zm-52.447,42.6V211.21H336.815V136.918l-2.516-2.046H206.284A246.159,246.159,0,0,0,157.447,175.2Z" transform="translate(-103.863 -35.886)" fill="#ff7500" opacity="0.1"/>
      <path id="Path_13059" data-name="Path 13059" d="M1004.42,246.84v37.85h59.727c0-.222-.039-.45-.059-.652-.053-.6-.1-1.2-.162-1.805s-.137-1.407-.215-2.118-.157-1.531-.249-2.287-.169-1.532-.267-2.294-.189-1.525-.294-2.281-.2-1.525-.318-2.281c-.09-.652-.176-1.251-.275-1.883-.136-.886-.28-1.779-.43-2.659a3.65,3.65,0,0,0-.071-.391,163.792,163.792,0,0,0-4.392-19.179Z" transform="translate(-416.185 -109.365)" fill="#ff7500" opacity="0.1"/>
      <path id="Path_13060" data-name="Path 13060" d="M1064.336,308.36H1004.42v72.63h55.537c.143.749.28,1.5.443,2.242h-55.98v58.56l.28-.091q2.373-.834,4.712-1.773l1-.41q2.4-.984,4.712-2.105c.553-.254,1.1-.521,1.642-.795a97.653,97.653,0,0,0,23.571-16.292c.2-.176.392-.358.573-.534.958-.925,1.9-1.857,2.809-2.815l1-1.068c1.075-1.167,2.112-2.372,3.122-3.591l.443-.535a75.829,75.829,0,0,0,10.153-16.292c.086-.176.157-.359.235-.534.814-1.838,1.551-3.7,2.189-5.6.273-.8.534-1.6.763-2.405.078-.241.15-.475.214-.71,3.324-11.632,3.707-23.721,3.707-35.744v-4.2c0-4.855-.07-9.775-.163-14.63,0-1.264-.058-2.522-.091-3.793q-.116-4.842-.352-9.671c-.039-.9-.079-1.792-.136-2.679,0-.515-.052-1.03-.086-1.545C1064.6,312.068,1064.479,310.218,1064.336,308.36Z" transform="translate(-416.185 -130.794)" fill="#ff7500" opacity="0.1"/>
      <path id="Path_13061" data-name="Path 13061" d="M811.56,156.757v65.435h45.05V156.757h-6.419V134.6H823.818v22.157Z" transform="translate(-282.687 -46.868)" fill="#ff7500" opacity="0.1"/>
      <rect id="Rectangle_910" data-name="Rectangle 910" width="45.051" height="72.623" transform="translate(528.873 177.566)" fill="#ff7500" opacity="0.1"/>
      <path id="Path_13062" data-name="Path 13062" d="M958.384,423.25H913.34v60.391a131.3,131.3,0,0,0,16.2,3.063l1.342.143c.652.072,1.3.13,1.956.182l1.955.137h.2a6.565,6.565,0,0,1,.875.039h.3a9.713,9.713,0,0,1,1.062.039h0c.5,0,1.011,0,1.519.039h4.184l1.147-.039c.605,0,1.225-.052,1.838-.1l1.134-.072,1.414-.111c.991-.085,1.955-.182,2.958-.3l1.18-.15.58-.072c.984-.137,1.955-.28,2.939-.45.73-.111,1.447-.248,2.177-.378Z" transform="translate(-384.461 -170.813)" fill="#ff7500" opacity="0.1"/>
      <rect id="Rectangle_911" data-name="Rectangle 911" width="37.152" height="73.157" transform="translate(247.244 102.16)" fill="#ff7500" opacity="0.1"/>
      <path id="Path_13063" data-name="Path 13063" d="M379.4,272.45v72.63H563.786V313.753H465.571v18.482H416.545V272.45Z" transform="translate(-132.156 -94.884)" fill="#ff7500" opacity="0.1"/>
      <path id="Path_13064" data-name="Path 13064" d="M480.27,500.593h.587v47.644q9.99-.756,19.9-2.046a356.752,356.752,0,0,0,86.211-22.359q11.886-4.77,23.284-10.388a303.19,303.19,0,0,0,36.409-21.16q4.36-2.958,8.583-6.054c1.955-1.44,3.91-2.907,5.865-4.334,1.362-.977,2.737-1.955,4.131-2.874V422.717H518.5c.1-.333.2-.652.307-1-.111.332-.222.652-.32,1H480.857V500.56Z" transform="translate(-233.612 -170.28)" fill="#ff7500" opacity="0.1"/>
      <path id="Path_13065" data-name="Path 13065" d="M332.5,170.065h24.2v-6.706H345.859V143.45c-.938.306-1.877.652-2.809.945v18.964H332.5Z" transform="translate(-182.141 -73.353)" fill="#ff7500" opacity="0.1"/>
      <path id="Path_13066" data-name="Path 13066" d="M243,264.1H383.9V190.936h-6.243v54.089H349.113v-32.01H325.529V187.73h-24.2v25.285H277.747v32H243Z" transform="translate(-150.966 -88.776)" fill="#ff7500" opacity="0.1"/>
      <path id="Path_13067" data-name="Path 13067" d="M222.449,308.36v72.63h140.9V308.36Zm4.92,179.375a333.088,333.088,0,0,0,84.542,20.059h.124q8.2.867,16.455,1.343h.2c11.528.651,23.1.8,34.656.372V383.231h-140.9v25.748H184l.2,57.485" transform="translate(-130.415 -130.794)" fill="#ff7500" opacity="0.1"/>
      <path id="Path_13068" data-name="Path 13068" d="M140.674,423.25H107.81a91.89,91.89,0,0,0,10.9,42.613,104.513,104.513,0,0,0,24.444,29.326V449h-2.483Z" transform="translate(-103.877 -170.813)" fill="#ff7500" opacity="0.1"/>
      <path id="Path_13069" data-name="Path 13069" d="M107.77,387.367h32.89v-60.7h-17.8C113.655,345.784,107.8,366.794,107.77,387.367Z" transform="translate(-103.863 -137.172)" fill="#ff7500" opacity="0.1"/>
      <rect id="Rectangle_912" data-name="Rectangle 912" width="19.902" height="22.939" transform="translate(247.244 122.499)" fill="#ff7500" opacity="0.1"/>
      <rect id="Rectangle_913" data-name="Rectangle 913" width="19.902" height="5.279" transform="translate(247.244 170.045)" fill="#ff7500" opacity="0.1"/>
      <rect id="Rectangle_914" data-name="Rectangle 914" width="19.902" height="15.412" transform="translate(247.244 177.566)" fill="#ff7500" opacity="0.1"/>
      <rect id="Rectangle_915" data-name="Rectangle 915" width="19.902" height="22.939" transform="translate(247.244 217.585)" fill="#ff7500" opacity="0.1"/>
      <rect id="Rectangle_916" data-name="Rectangle 916" width="19.902" height="22.939" transform="translate(247.244 265.132)" fill="#ff7500" opacity="0.1"/>
      <path id="Path_13070" data-name="Path 13070" d="M480.857,533.285h0v5.324h19.9V515.67h-19.9Z" transform="translate(-233.612 -203.005)" fill="#ff7500" opacity="0.1"/>
      <path id="Path_13071" data-name="Path 13071" d="M481.17,588.63v17.719q9.99-.755,19.9-2.046v-15.64Z" transform="translate(-233.926 -228.418)" fill="#ff7500" opacity="0.1"/>
      <rect id="Rectangle_917" data-name="Rectangle 917" width="85.292" height="1.681" transform="translate(346.338 248.508)" fill="#ff7500" opacity="0.1"/>
      <rect id="Rectangle_918" data-name="Rectangle 918" width="85.292" height="6.458" transform="translate(346.338 252.437)" fill="#ff7500" opacity="0.1"/>
      <rect id="Rectangle_919" data-name="Rectangle 919" width="85.292" height="10.388" transform="translate(346.338 280.062)" fill="#ff7500" opacity="0.1"/>
      <path id="Path_13072" data-name="Path 13072" d="M633.23,514.06v10.387h66.719q4.347-2.952,8.583-6.061c1.956-1.434,3.91-2.9,5.865-4.321Z" transform="translate(-286.892 -202.444)" fill="#ff7500" opacity="0.1"/>
      <path id="Path_13073" data-name="Path 13073" d="M633.23,562.47v10.388h7.019q11.881-4.757,23.278-10.388Z" transform="translate(-286.892 -219.306)" fill="#ff7500" opacity="0.1"/>
      <rect id="Rectangle_920" data-name="Rectangle 920" width="16.787" height="14.93" transform="translate(198.277 199.54) rotate(180)" fill="#ff7500" opacity="0.1"/>
      <rect id="Rectangle_921" data-name="Rectangle 921" width="16.787" height="14.93" transform="translate(561.822 129.967) rotate(180)" fill="#ff7500" opacity="0.1"/>
      <rect id="Rectangle_922" data-name="Rectangle 922" width="16.787" height="14.93" transform="translate(561.822 164.65) rotate(180)" fill="#ff7500" opacity="0.1"/>
      <rect id="Rectangle_923" data-name="Rectangle 923" width="16.787" height="14.93" transform="translate(561.822 199.325) rotate(180)" fill="#ff7500" opacity="0.1"/>
      <rect id="Rectangle_924" data-name="Rectangle 924" width="16.787" height="14.93" transform="translate(561.822 234.008) rotate(180)" fill="#ff7500" opacity="0.1"/>
      <rect id="Rectangle_925" data-name="Rectangle 925" width="16.787" height="14.93" transform="translate(561.822 268.697) rotate(180)" fill="#ff7500" opacity="0.1"/>
      <rect id="Rectangle_926" data-name="Rectangle 926" width="16.787" height="14.93" transform="translate(561.822 303.372) rotate(180)" fill="#ff7500" opacity="0.1"/>
      <rect id="Rectangle_927" data-name="Rectangle 927" width="16.787" height="14.93" transform="translate(134.178 199.54) rotate(180)" fill="#ff7500" opacity="0.1"/>
      <rect id="Rectangle_928" data-name="Rectangle 928" width="16.787" height="14.93" transform="translate(198.277 236.36) rotate(180)" fill="#ff7500" opacity="0.1"/>
      <rect id="Rectangle_929" data-name="Rectangle 929" width="16.787" height="14.93" transform="translate(134.178 236.36) rotate(180)" fill="#ff7500" opacity="0.1"/>
      <rect id="Rectangle_930" data-name="Rectangle 930" width="16.787" height="14.93" transform="translate(198.277 273.187) rotate(180)" fill="#ff7500" opacity="0.1"/>
      <rect id="Rectangle_931" data-name="Rectangle 931" width="16.787" height="14.93" transform="translate(134.178 273.187) rotate(180)" fill="#ff7500" opacity="0.1"/>
      <rect id="Rectangle_932" data-name="Rectangle 932" width="16.787" height="14.93" transform="translate(198.277 310.013) rotate(180)" fill="#ff7500" opacity="0.1"/>
      <rect id="Rectangle_933" data-name="Rectangle 933" width="16.787" height="14.93" transform="translate(134.178 310.013) rotate(180)" fill="#ff7500" opacity="0.1"/>
      <rect id="Rectangle_934" data-name="Rectangle 934" width="16.787" height="14.93" transform="translate(198.277 346.846) rotate(180)" fill="#ff7500" opacity="0.1"/>
      <rect id="Rectangle_935" data-name="Rectangle 935" width="16.787" height="14.93" transform="translate(134.178 346.846) rotate(180)" fill="#ff7500" opacity="0.1"/>
      <path id="Path_13074" data-name="Path 13074" d="M295.281,575.435V565.81H278.5v8.257Z" transform="translate(-97.01 -197.068)" fill="#ff7500" opacity="0.1"/>
      <path id="Path_13075" data-name="Path 13075" d="M1004.42,276.26V284.8h57.458V276.26Zm51.737.541h4.686v7.468h-4.711Zm-5.721,0h4.71v7.468h-4.731Zm-5.709,0h4.711v7.468h-4.711Zm-5.722,0h4.711v7.468H1039Zm-5.715,0h4.744v7.468h-4.712Zm-5.721,0h4.711v7.468h-4.711Zm-5.722,0h4.711v7.468h-4.711Zm-5.715,0h4.711v7.468h-4.711Zm-5.715,0h4.712v7.468h-4.712Zm-5.715,0h4.711v7.468H1004.7Z" transform="translate(-416.185 -119.613)" fill="#ff7500" opacity="0.1"/>
      <path id="Path_13076" data-name="Path 13076" d="M1004.42,314.42v8.543h57.458V314.42Zm51.737.541h4.686v7.462h-4.711Zm-5.721,0h4.71v7.462h-4.731Zm-5.709,0h4.711v7.462h-4.711Zm-5.722,0h4.711v7.462H1039Zm-5.715,0h4.744v7.462h-4.712Zm-5.721,0h4.711v7.462h-4.711Zm-5.722,0h4.711v7.462h-4.711Zm-5.715,0h4.711v7.462h-4.711Zm-5.715,0h4.712v7.462h-4.712Zm-5.715,0h4.711v7.462H1004.7Z" transform="translate(-416.185 -132.905)" fill="#ff7500" opacity="0.1"/>
      <path id="Path_13077" data-name="Path 13077" d="M1004.42,352.57v8.537h57.458V352.57Zm51.737.535h4.686v7.468h-4.711Zm-5.721,0h4.71v7.468h-4.731Zm-5.709,0h4.711v7.468h-4.711Zm-5.722,0h4.711v7.468H1039Zm-5.715,0h4.744v7.468h-4.712Zm-5.721,0h4.711v7.468h-4.711Zm-5.722,0h4.711v7.468h-4.711Zm-5.715,0h4.711v7.468h-4.711Zm-5.715,0h4.712v7.468h-4.712Zm-5.715,0h4.711v7.468H1004.7Z" transform="translate(-416.185 -146.193)" fill="#ff7500" opacity="0.1"/>
      <path id="Path_13078" data-name="Path 13078" d="M1004.42,390.72v8.537h57.458V390.72Zm51.737.534h4.686v7.469h-4.711Zm-5.721,0h4.71v7.469h-4.731Zm-5.709,0h4.711v7.469h-4.711Zm-5.722,0h4.711v7.469H1039Zm-5.715,0h4.744v7.469h-4.712Zm-5.721,0h4.711v7.469h-4.711Zm-5.722,0h4.711v7.469h-4.711Zm-5.715,0h4.711v7.469h-4.711Zm-5.715,0h4.712v7.469h-4.712Zm-5.715,0h4.711v7.469H1004.7Z" transform="translate(-416.185 -159.482)" fill="#ff7500" opacity="0.1"/>
      <path id="Path_13079" data-name="Path 13079" d="M1004.42,428.87v8.557h54.024c.079-.176.157-.359.228-.535h-2.516v-7.481h4.686v1.857c.274-.795.535-1.59.762-2.4Zm46.016.541h4.711v7.462h-4.731Zm-5.709,0h4.711v7.462h-4.711Zm-5.722,0h4.711v7.462H1039Zm-5.715,0h4.744v7.462h-4.712Zm-5.721,0h4.711v7.462h-4.711Zm-5.722,0h4.711v7.462h-4.711Zm-5.715,0h4.711v7.462h-4.711Zm-5.715,0h4.712v7.462h-4.712Zm-5.715,0h4.711v7.462H1004.7Z" transform="translate(-416.185 -172.77)" fill="#ff7500" opacity="0.1"/>
      <path id="Path_13080" data-name="Path 13080" d="M1004.42,467v8.537h35.915c.208-.176.391-.365.58-.534H1039v-7.449h4.711v4.66l1.01-1.075v-3.584h3.122c.15-.182.293-.365.443-.534Zm28.87.534h4.744V475h-4.712Zm-5.721,0h4.711V475h-4.711Zm-5.722,0h4.711V475h-4.711Zm-5.715,0h4.711V475h-4.711Zm-5.715,0h4.712V475h-4.712Zm-5.715,0h4.711V475H1004.7Z" transform="translate(-416.185 -186.052)" fill="#ff7500" opacity="0.1"/>
      <path id="Path_13081" data-name="Path 13081" d="M1004.42,505.18v5.168a1.846,1.846,0,0,0,.28-.1v-4.562h4.711v2.776l1-.411v-2.34h4.712v.261c.553-.254,1.1-.521,1.642-.788Z" transform="translate(-416.185 -199.351)" fill="#ff7500" opacity="0.1"/>
      <path id="Path_13082" data-name="Path 13082" d="M425.33,262.915h.032Zm35.8,154.976h0Zm38.214-77.876h0c.1-.332.2-.652.313-1C499.55,339.35,499.445,339.683,499.348,340.015Zm-74.017-77.1h.032ZM755.607,184.29v2.242h26.374V184.29Zm-294.474,233.6h0Zm38.214-77.876h0c.1-.332.2-.652.313-1C499.55,339.35,499.445,339.683,499.348,340.015Zm-74.017-77.1h.032Zm35.8,154.976h0Zm38.214-77.876h0c.1-.332.2-.652.313-1C499.55,339.35,499.445,339.683,499.348,340.015Z" transform="translate(-214.476 -87.578)" fill="#ff7500" opacity="0.1"/>
      <ellipse id="Ellipse_535" data-name="Ellipse 535" cx="22.535" cy="2.496" rx="22.535" ry="2.496" transform="translate(565.895 532.281)" fill="#ff7500" opacity="0.1"/>
      <path id="Path_13083" data-name="Path 13083" d="M661.8,512.344l-11.261-.619-.763-32.343-.176-7.7,11.88-2.189.079,9.932Z" transform="translate(-226.273 -163.517)" fill="#d48a9b"/>
      <path id="Path_13084" data-name="Path 13084" d="M622.434,525.607l-57.869,35.979-1.252,10.948,6.257.313v-7.82l37.849-21.271-45.67,56.618v8.759h7.508l-.626-9.7L621.5,539.377l6.568.626,55.686,63.186L685,613.831l7.507.313-1.251-10.955-44.105-55.054,29.4,20.332.626,8.759,5.942.313L682.5,566.9l-56-43.174Z" transform="translate(-195.672 -182.41)" fill="#d48a9b"/>
      <path id="Path_13085" data-name="Path 13085" d="M640.725,421.15a103.251,103.251,0,0,0,13.633-22.216c3.982-8.811,8.348-18.984,8.68-21.994.652-5.631,16.579-16.891,34.1-17.517,11.424-.411,29.221-9.326,40.234-15.484a81.89,81.89,0,0,1,33.757-10.427c12.884-.971,25,1.558,18.9,16.507l-81.916,99.2s-69.86,12.31-74.167-7.481a16.448,16.448,0,0,0-1-2.907C632.129,436.959,631.914,432.078,640.725,421.15Z" transform="translate(-286.664 -139.492)" fill="#dba514"/>
      <path id="Path_13086" data-name="Path 13086" d="M650.548,426.045a106.271,106.271,0,0,0,13.77-22.418c3.714-8.237,7.657-17.471,7.97-20.267.6-5.376,15.862-16.135,32.623-16.735,8.513-.3,20.728-5.537,31.846-11.21,1.67-.847,4.314-2.276,6.642-3.576a78.474,78.474,0,0,1,32.31-9.932c12.323-.925,23.917,1.492,18.1,15.771l-64.979,95.145s-80.156,11.372-84.4-7.442a18.772,18.772,0,0,0-1-2.919C642.695,440.6,642.591,436.029,650.548,426.045Z" transform="translate(-290.335 -146.579)" fill="#dda2a6" opacity="0.2"/>
      <path id="Path_13087" data-name="Path 13087" d="M763.329,515.335c-3.768,0-7.736,0-11.783-.039l-.176-7.7,11.879-2.183Z" transform="translate(-328.043 -199.431)" opacity="0.1"/>
      <g id="Group_2532" data-name="Group 2532" transform="translate(366.078 355.09)" opacity="0.1">
        <path id="Path_13088" data-name="Path 13088" d="M722.2,578.633,692.8,558.3l3.369,4.2L722.2,580.509l.625,8.759,5.944.313-.111-1.883-5.833-.306Z" transform="translate(-607.398 -549.541)"/>
        <path id="Path_13089" data-name="Path 13089" d="M573.75,572.851v1.877l35.08-19.714,2.769-3.434Z" transform="translate(-565.93 -547.201)"/>
        <path id="Path_13090" data-name="Path 13090" d="M561.75,651.9v1.877h7.508l-.124-1.877Z" transform="translate(-561.75 -582.144)"/>
        <path id="Path_13091" data-name="Path 13091" d="M570.406,596.059l-6.047-.3-.209,1.863,6.256.313Z" transform="translate(-562.586 -562.59)"/>
        <path id="Path_13092" data-name="Path 13092" d="M688.681,619.314l-1.252-10.642-55.685-63.187-6.57-.626L572.31,604.919l.11,1.753,52.754-59.935,6.57.625,55.685,63.187,1.252,10.642,7.507.313-.215-1.889Z" transform="translate(-565.428 -544.86)"/>
      </g>
      <path id="Path_13093" data-name="Path 13093" d="M759.52,426.06s14.65,10.714,8.237,10.838S759.52,426.06,759.52,426.06Z" transform="translate(-330.881 -171.792)" opacity="0.1"/>
      <path id="Path_13094" data-name="Path 13094" d="M665.2,456.057s24.242-1.877,33.313-19.394c0,0,18.456-36.6,33.477-40.671s42.854-13.138,54.428-27.214,16.429-24.868,16.429-24.868,2.985,11.391-6.419,24.822-12.825,34.115-19.394,56.044-9.072,30.629-20.958,31.932c-8.961.945-56.338.469-78.991,0C669.677,456.507,665.2,456.057,665.2,456.057Z" transform="translate(-298.028 -143.177)" fill="#ff7500"/>
      <path id="Path_13095" data-name="Path 13095" d="M665.2,456.057s24.242-1.877,33.313-19.394c0,0,18.456-36.6,33.477-40.671s42.854-13.138,54.428-27.214,16.429-24.868,16.429-24.868,2.985,11.391-6.419,24.822-12.825,34.115-19.394,56.044-9.072,30.629-20.958,31.932c-8.961.945-56.338.469-78.991,0C669.677,456.507,665.2,456.057,665.2,456.057Z" transform="translate(-298.028 -143.177)" fill="#dda2a6" opacity="0.2"/>
      <path id="Path_13096" data-name="Path 13096" d="M674.56,457.959s23.174-1.818,31.841-18.781c0,0,17.648-35.438,32-39.374s40.965-12.727,52.03-26.354,15.7-24.08,15.7-24.08,2.835,11.078-6.132,24.08-12.258,33.014-18.54,54.219-8.668,29.684-20.033,30.9c-8.563.912-53.848.45-75.5,0C678.842,458.428,674.56,457.959,674.56,457.959Z" transform="translate(-301.288 -145.079)" fill="#dba514"/>
      <path id="Path_13097" data-name="Path 13097" d="M645.76,497.569s12.669,4.849,19.864,2.19,25.024-10.479,25.024-10.479S660.619,491.183,645.76,497.569Z" transform="translate(-291.256 -193.812)" opacity="0.1"/>
      <path id="Path_13098" data-name="Path 13098" d="M624.569,785.343s-36.416-1.955-45.292-7.169-21.44-5.213-21.505-5.213l-145-31.606-60.28-14.337L341.74,725.6l35.516-40.639,1.082-.469,52.356-22.646s23.46,1.3,28.094,16.592a18.462,18.462,0,0,1,.652,3.3,19.134,19.134,0,0,1-3.7,13.386c-1.851,2.529-4.125,6.119-4.842,9.28a5.493,5.493,0,0,0,.652,4.692,38.252,38.252,0,0,0,6.438,5.142c12.766,8.471,45.038,22.431,101.414,1.049,0,0,24.112-23.786,42.359-13.686S624.569,785.343,624.569,785.343Z" transform="translate(-185.36 -253.922)" fill="#e1dee5"/>
      <path id="Path_13099" data-name="Path 13099" d="M454.406,704.4a5.492,5.492,0,0,0,.651,4.692,38.247,38.247,0,0,0,6.439,5.142L351.74,722.456l30.082-37.96,52.356-22.646s23.46,1.3,28.094,16.592a18.429,18.429,0,0,1,.651,3.3,19.134,19.134,0,0,1-3.7,13.386C457.4,697.653,455.122,701.244,454.406,704.4Z" transform="translate(-188.843 -253.922)" opacity="0.1"/>
      <path id="Path_13100" data-name="Path 13100" d="M234.436,461.94l89.932,1.955V571.546L239,629.421l-20.528-18.9,4.236-62.561-4.236-58.325Z" transform="translate(-76.1 -160.888)" fill="#a36468"/>
      <path id="Path_13101" data-name="Path 13101" d="M266.24,453.184l105-32.356a15.907,15.907,0,0,1,5.833-.652L627.9,438.483a118.486,118.486,0,0,1,59.733,21.068c16.233,11.45,32.31,29.026,39.753,55.641a106.261,106.261,0,0,1-1.075,59.844L704.155,646.72s16.618-155.751-149.234-163.571Z" transform="translate(-159.061 -169.727)" fill="#d9d6df"/>
      <path id="Path_13102" data-name="Path 13102" d="M300.711,491.041v172.91s-28.772-4.047-33.887-9.665c-4.2-4.608-28.511-17.6-39.062-30.974a22.317,22.317,0,0,1-4.6-8.778c-3.532-16.083-17.921-54.089-17.921-54.089l3.91-37.146,16.292-24.112,31.606-14.337h24.438Z" transform="translate(-137.813 -192.269)" fill="#b8797d"/>
      <path id="Path_13103" data-name="Path 13103" d="M256.055,497.85s-46.765,29.326-36.533,76.513c.834,3.844,1.558,7.71,2.033,11.619,1.87,15.263,13.092,59.12,80.118,79.349v4.562l-28.433-7.931-19.3-10.642L239.2,638.1,221.19,616.129l-8.361-17.921-3.063-23.6L208,547.658l4.308-23.115,10.16-15.041,12.382-9.626Z" transform="translate(-138.775 -196.798)" fill="#d9d6df"/>
      <path id="Path_13104" data-name="Path 13104" d="M300.707,491.027v27.508c-20.4,2.216-83.552,14.988-72.336,87.977l-.619,16.761a22.323,22.323,0,0,1-4.6-8.778C219.619,598.411,205.23,560.4,205.23,560.4l3.91-37.146,16.292-24.112,31.606-14.337h24.438Z" transform="translate(-137.81 -192.256)" opacity="0.1"/>
      <path id="Path_13105" data-name="Path 13105" d="M512.9,703.993c-1.851,2.529-4.125,6.12-4.842,9.28-2.841-3.258-3.454-7.005.652-9.97,5.142-3.74,6.856-10.232,7.24-15.993a18.535,18.535,0,0,1,.651,3.3,19.134,19.134,0,0,1-3.7,13.386Z" transform="translate(-242.499 -262.79)" fill="#fff" opacity="0.1"/>
      <path id="Path_13106" data-name="Path 13106" d="M851.076,668.269,838.694,710.3l-28.022,27.371-35.19,7.168-54.741-9.775V540.541s9.45-6.191,10.427-6.191,27.371,4.236,27.371,4.236L818.3,581.446l2.477,1.78,26.719,39.752Z" transform="translate(-317.373 -209.511)" fill="#b8797d"/>
      <path id="Path_13107" data-name="Path 13107" d="M618.97,495.44V698.112l5.279.945V495.44Z" transform="translate(-215.603 -172.556)" fill="#a36468"/>
      <path id="Path_13108" data-name="Path 13108" d="M819.469,594.973c-39.1-32.128-82.568-36.852-98.729-37.439V540.591s9.45-6.191,10.427-6.191,27.371,4.236,27.371,4.236L818.3,581.5Z" transform="translate(-317.373 -209.529)" opacity="0.1"/>
      <path id="Path_13109" data-name="Path 13109" d="M528.82,496.239,283.9,469.519l-27.527-1.46a56.571,56.571,0,0,0-45.754,19.127c-14.337,16.487-25.174,45.572-9.345,95.51,0,0,16.507,64.731,96.448,78.638l232.284,52.636c5.148,1.166,10.231,2.606,15.25,4.242,21.088,6.927,92.538,24.875,126.2-36.135A102.8,102.8,0,0,0,682,613.286C673.9,570.34,643.314,497.463,528.82,496.239Zm119.993,183.05c-31.411,51.17-96.135,35.94-115.594,29.932-4.764-1.473-9.586-2.757-14.468-3.8l-214.572-45.9c-73.926-12.141-89.2-68.661-89.2-68.661-12.48-37.146-7.025-61.115,3.063-76.286a54.272,54.272,0,0,1,48.009-23.8l25.363,1.3,219.068,29.267c4.431.593,8.9.984,13.366,1.134,97.42,3.3,127.729,56.872,135.432,93.789C663.809,637.841,660.368,660.481,648.813,679.288Z" transform="translate(-133.71 -186.388)" fill="#e1dee5"/>
      <path id="Path_13110" data-name="Path 13110" d="M104.528,492.461c8.022,5.37,20.2,2.815,20.2,2.815s18.371-8.7,23.8-8.7,18.632-5.376,18.632-5.376l-.45-3.623-1.342-10.916c8.361,6.517,17.654,4.268,22.229,3.793,4.914-.508,31.17-16.116,33.7-17.146a6.674,6.674,0,0,0,2.3-2.32h0a59.144,59.144,0,0,0,4.444-8.12h0c1.642-1.447,2.841-2.607,2.757-2.861a19.736,19.736,0,0,1,1.61-4.3c3.728-.652,6.94-2.033,7.964-2.867a6.954,6.954,0,0,0,2.607-5.63s25.617-25.839,22.248-36.585,8.283-11.007,8.283-11.007,17.849-7.677,20.332-12.278c1.531-2.835,14.923-9.058,25-13.425l1.238-.534c3.91,8.57,23.773,1.955,27.683-1.649,4.138-3.839,16.292-5.63,16.292-5.63s.521-50.179,4.4-56.553c1.844-3.03,2.287-12.936,2.242-22.5v-1.017c5.435-1.062,18.364-3.519,24.366-4.112,3.806-.378,7.774-2.75,10.818-5.057l.359.45a7.428,7.428,0,0,0,3.3.541,5.058,5.058,0,0,0,2.9-.541c2.333-1.3,10.87-3.838,13.972-5.116S425.9,241.7,423.57,239.91s-3.91-4.093-2.607-5.116-3.1-3.584-5.689-4.1-10.349-4.093-10.349-4.093-2.848-5.865-7.5-5.865-10.87-4.607-10.87-4.607c-.254-2.046-5.174-2.3-5.174-2.3s-18.625-14.337-21.734-12.538-11.639-2.815-11.639-2.815-10.473,1.173-12.936-.756h0a2.907,2.907,0,0,0-.652-1.733c-.554-1.734-3.258-4.106-5.865-6.08a23.067,23.067,0,0,0,.3-3.7,14.484,14.484,0,0,0-.059-1.6v-.267l.371-3.6a7.442,7.442,0,0,1,.9-3.389c.437-.652,1.082-1.206,1.571-1.851a4.628,4.628,0,0,0,.313-.476l.078-.137a4.22,4.22,0,0,0,.2-.385l.059-.13a6.233,6.233,0,0,0,.332-1.095v-.085c.033-.169.059-.339.078-.515a.288.288,0,0,1,0-.072,10.917,10.917,0,0,0-.587-4.392c-.776-2.418-1.988-4.751-2.118-7.273a22.51,22.51,0,0,0-.13-3.754c-.652-2.8-3.5-4.562-6.269-5.735-3.825-1.6-5.754-3.356-8.824-5.741-2.607-2.02-6.921-1-10.205-.8-7.507.482-14.917,2.744-21.981,5.077A22.149,22.149,0,0,0,274.9,153.8a8.47,8.47,0,0,0-2.809,4.744h0a6.2,6.2,0,0,0-.085,1.3v.111a1.415,1.415,0,0,0,.059.5,1.232,1.232,0,0,0,0,.163,3.878,3.878,0,0,0,.143.586h0c.3.945.854,1.8,1.173,2.737a5.377,5.377,0,0,1,.176.652v.065a5.894,5.894,0,0,1,.1.652h0c.287,2.326-.573,4.757-.951,7.129-.052.332-.091.652-.117,1.017h0a12.149,12.149,0,0,0,.358,4.086.123.123,0,0,0,0,.046c.039.163.1.326.15.482a1.95,1.95,0,0,0,.065.209c.046.137.1.274.157.4l.111.274c.052.117.111.235.169.352s.1.2.15.287a3.563,3.563,0,0,0,.176.313c.058.1.124.2.189.3s.124.189.2.28.15.2.228.3l.2.248.274.287.215.215.32.274c.078.059.143.124.222.176s.267.189.4.274l.189.13c.209.124.43.235.652.339,1.486.652,3.363.919,4.255,2.229a2.75,2.75,0,0,1,.437,1.017v.489a21.194,21.194,0,0,0,.13,2.242,8.3,8.3,0,0,0,.072,1.212,3.48,3.48,0,0,0,.248.88,23.252,23.252,0,0,0,7.82,13.177c.078.4.169.86.267,1.382a25.879,25.879,0,0,1-7.527,3.91c-6.21,1.818-14.989,10.205-14.989,10.205s-4.366,31.469-5.415,35.308-1.825,18.684-1.825,18.684-1.036,6.139-2.607,9.208c-1.1,2.164-.9,11.463,2.164,17.113a14.27,14.27,0,0,1-1.9,3.1c-6.211,7.169-24.842,6.908-31.053,6.908-5.715,0-7.481,3.467-7.722,4.014-11.372,3.258-48.192,13.737-52.558,15.64-5.174,2.261-8.022,24.608-8.022,24.608s-10.811,37.094-10.3,41.955-3.623,18.4-3.623,18.4,0,15.308-1.753,16.344a.164.164,0,0,1-.052.033c-1.812.769-1.557,8.192-1.557,8.192s1.336.385,3.415.912c-.554,3.747-2.607,8.993-4.19,12.721-.808-1.023-1.6-1.447-2.066-.261-1.3,3.258-20.7,26.289-25.618,26.289-2.339,0-6.21,1.916-8.759,4.5C101.5,486,100.318,489.653,104.528,492.461Zm88.987-133.314c21.994,2.046,45.539-1.558,45.539-1.558s-1.812,6.419-3.363,8.98-5.956,17.146-5.956,20.2-6.986,29.423-9.052,30.7a7.7,7.7,0,0,0-2.255,3.258,30.566,30.566,0,0,0-1.369,3.91q.046,1,.176,1.9c-1.545,1.414-3.18,2.9-4.633,4.216h0s-9.254,5.148-12.382,7.964-17.6,6.269-17.6,6.269A90.083,90.083,0,0,0,172.2,450.3c-4.49,2.7-8.98,6.145-10.153,9.54.508-5.721,1.336-12.61,1.89-16.989l.821-.033c7.253-.45,6.171-7.37,5.787-9.084-.052-.247-.091-.384-.091-.384,5.174-5.631,16.813-47.573,15.262-52.2s1.3-8.7,1.909-8.7,1.453-5.116.163-7.931S193.515,359.148,193.515,359.148ZM371.358,246.264l-1.375.339v-.293S370.484,246.309,371.358,246.264ZM296.18,207.652c-.209.261-.417.508-.652.749l-.267.274v-1.421C295.574,207.378,295.874,207.528,296.18,207.652ZM270.263,257.3l.091,1.44s-.137.88-.4,2.385Zm118.9-14.3-4.516.776c.652-.241,1.271-.5,1.883-.8a4.332,4.332,0,0,1,1.44-.391,8.271,8.271,0,0,1,1.681.359A3.089,3.089,0,0,0,389.162,243Z" transform="translate(-101.774 -73.709)" fill="url(#linear-gradient)"/>
      <path id="Path_13111" data-name="Path 13111" d="M293.213,574.99S288,585.75,288.267,586.513s-11.176,9.892-11.176,9.892l-12.441-8.882,1.3-6.1s13.965-12.583,14.989-14.037S293.213,574.99,293.213,574.99Z" transform="translate(-158.507 -220.963)" fill="#efb7b9"/>
      <path id="Path_13112" data-name="Path 13112" d="M198.674,616.8c8.635,8.38,18.788,5.865,23.617,5.337s30.59-16,33.066-17.016a6.735,6.735,0,0,0,2.261-2.307h0a58.638,58.638,0,0,0,4.36-8.061c-.17.046-8.615,2.464-10.746,0,0,0-3.558-4.36-4.32-4.36s-.059-7.65-.059-7.65-9.084,5.109-12.128,7.905-17.269,6.216-17.269,6.216a87.335,87.335,0,0,0-10.218,5.272C200.512,606.24,193.734,612.032,198.674,616.8Z" transform="translate(-134.936 -226.367)" fill="#67647e"/>
      <path id="Path_13113" data-name="Path 13113" d="M198.674,627.163c8.635,8.38,18.788,5.865,23.617,5.337s30.59-16,33.066-17.016a6.743,6.743,0,0,0,2.261-2.306c-3-1.792-22.633,10.687-28.126,12.975s-19.394,1.01-27.286-2.288c-3.91-1.648.052-6.712,5.018-11.365C200.512,616.606,193.734,622.4,198.674,627.163Z" transform="translate(-134.936 -236.733)" opacity="0.1"/>
      <path id="Path_13114" data-name="Path 13114" d="M187.566,592.515s-3.617,27.169-2.7,30.727-22.7-12.187-22.7-12.187,8.263-17.028,5.865-20.938S187.566,592.515,187.566,592.515Z" transform="translate(-122.811 -228.49)" fill="#efb7b9"/>
      <path id="Path_13115" data-name="Path 13115" d="M166.453,525.766s14.728,4.314,22.848,3.806c7.116-.443,6.054-7.312,5.683-9.013-.052-.241-.091-.378-.091-.378,5.077-5.591,16.507-47.233,14.989-51.8s1.238-8.6,1.89-8.6,1.427-5.083.156-7.872,5.591-5.331,5.591-5.331c21.583,2.027,44.692-1.551,44.692-1.551s-1.779,6.374-3.3,8.915-5.865,17.009-5.865,20.059-6.856,29.2-8.889,30.472a7.553,7.553,0,0,0-2.209,3.259,30.485,30.485,0,0,0-1.343,3.91c.762,17.015,20.059,10.427,22.855,8.126a7.51,7.51,0,0,0,1.082-1.108,7.1,7.1,0,0,0,1.453-4.484s25.142-25.643,21.838-36.311,8.126-10.916,8.126-10.916,17.524-7.618,19.961-12.193c1.505-2.809,14.643-8.98,24.535-13.32,6.2-2.718,11.118-4.705,11.118-4.705l-4.119-14.767-3.258-11.646-6.113-2.294-19.551-7.351-35.073-4.92-3.213.417-34.076,4.412s-49.749,14.233-54.832,16.461-7.873,24.418-7.873,24.418-10.661,36.82-10.14,41.669-3.558,18.247-3.558,18.247,0,15.191-1.727,16.22a.088.088,0,0,1-.052,0C166.2,518.429,166.453,525.766,166.453,525.766Z" transform="translate(-124.299 -161.234)" fill="#444053"/>
      <path id="Path_13116" data-name="Path 13116" d="M244.78,462.958c21.584,2.026,44.692-1.551,44.692-1.551C291,456.6,312.339,443.4,312.339,443.4,294.829,439.087,244.78,462.958,244.78,462.958Z" transform="translate(-151.586 -177.65)" opacity="0.1"/>
      <path id="Path_13117" data-name="Path 13117" d="M280.24,571.364c.763,17.016,20.059,10.428,22.855,8.127a7.539,7.539,0,0,0,1.082-1.109c-6.745,2.483-18.7,4.406-22.594-10.9A30.472,30.472,0,0,0,280.24,571.364Z" transform="translate(-163.938 -221.051)" fill="#444053"/>
      <path id="Path_13118" data-name="Path 13118" d="M166.453,590.9s14.728,4.314,22.848,3.806c7.116-.444,6.054-7.312,5.682-9.013-7.455-.234-20.293-.931-26.96-2.952a.09.09,0,0,1-.052,0C166.2,583.561,166.453,590.9,166.453,590.9Z" transform="translate(-124.299 -226.367)" fill="#444053"/>
      <path id="Path_13119" data-name="Path 13119" d="M280.24,571.364c.763,17.016,20.059,10.428,22.855,8.127a7.539,7.539,0,0,0,1.082-1.109c-6.745,2.483-18.7,4.406-22.594-10.9A30.472,30.472,0,0,0,280.24,571.364Z" transform="translate(-163.938 -221.051)" opacity="0.1"/>
      <path id="Path_13120" data-name="Path 13120" d="M166.453,590.9s14.728,4.314,22.848,3.806c7.116-.444,6.054-7.312,5.682-9.013-7.455-.234-20.293-.931-26.96-2.952a.09.09,0,0,1-.052,0C166.2,583.561,166.453,590.9,166.453,590.9Z" transform="translate(-124.299 -226.367)" opacity="0.1"/>
      <path id="Path_13121" data-name="Path 13121" d="M109.291,655.045c7.872,5.331,19.811,2.79,19.811,2.79s18.026-8.629,23.363-8.629,18.26-5.337,18.26-5.337l-.436-3.59-2.1-17.23s-19.778-.509-20.573-2.288c0,0-3.552-8.745-4.822-5.513s-20.313,26.068-25.142,26.068c-2.3,0-6.1,1.9-8.6,4.471C106.339,648.633,105.172,652.256,109.291,655.045Z" transform="translate(-103.454 -237.44)" fill="#67647e"/>
      <path id="Path_13122" data-name="Path 13122" d="M215.55,446.41s16.507,10.427,11.939,12.695S215.55,446.41,215.55,446.41Z" transform="translate(-141.405 -178.88)" opacity="0.1"/>
      <path id="Path_13123" data-name="Path 13123" d="M205,477.19s14.219,13.5,8.889,13.861S205,477.19,205,477.19Z" transform="translate(-137.73 -189.601)" opacity="0.1"/>
      <path id="Path_13124" data-name="Path 13124" d="M181.65,543s7.221,13.575,4.5,15.927S181.65,543,181.65,543Z" transform="translate(-129.597 -212.524)" opacity="0.1"/>
      <path id="Path_13125" data-name="Path 13125" d="M303.528,559.328c-2.542,2.535,24.112-8.38,18.025-8.888S303.528,559.328,303.528,559.328Z" transform="translate(-171.99 -215.109)" opacity="0.1"/>
      <path id="Path_13126" data-name="Path 13126" d="M385.44,253.4l.854-.124c3.154-.482,14.6-2.281,24.875-4.51,2.5-.547,4.927-1.114,7.169-1.7,7.866-2.059,13.144-4.281,9.775-6.106-4.458-2.418-6.8-6.81-8.042-10.59-.117-.372-.228-.73-.332-1.088a28.232,28.232,0,0,1-1.023-5.865s-28.674-10.16-23.109,0c2.744,4.985.9,9.052-1.688,11.9a22.337,22.337,0,0,1-6.184,4.608Z" transform="translate(-200.581 -99.634)" fill="#efb7b9"/>
      <path id="Path_13127" data-name="Path 13127" d="M399.1,259.76s-10.264,7.364-20.749,1.271-24.2,53.835-24.2,53.835L339.93,349.907s-9.208,7.618,2.255,10.922,36.891-3.3,43.35,6.347,18.684,11.17,19.935,11.17,6.087-36.318,6.087-36.318l1.258-52.564Z" transform="translate(-183.51 -113.866)" opacity="0.1"/>
      <path id="Path_13128" data-name="Path 13128" d="M342.936,357.709c11.463,3.3,36.9-3.3,43.356,6.347a24.8,24.8,0,0,0,10.941,8.817,28.674,28.674,0,0,0,9.013,2.385c.163,0,.4-.652.684-1.818,1.786-7.351,5.4-34.5,5.4-34.5l1.251-52.564-12.063-26.165-1.649-3.571a21.746,21.746,0,0,1-5.214,2.548,18.36,18.36,0,0,1-15.523-1.3c-3.075-1.786-6.432,2.111-9.631,8.511C361.789,281.8,354.94,311.72,354.94,311.72l-14.233,35.086a12.131,12.131,0,0,0-.964.925C337.723,349.843,333.937,355.115,342.936,357.709Z" transform="translate(-183.779 -112.779)" fill="#f3f5f9"/>
      <path id="Path_13129" data-name="Path 13129" d="M427.816,351.878a66.6,66.6,0,0,0-.339,13.373,156.624,156.624,0,0,0,2.385,18.9,7.486,7.486,0,0,0,.313,1.154c6.2-2.718,11.117-4.705,11.117-4.705l-4.118-14.767c1.786-7.351,5.4-34.5,5.4-34.5l1.251-52.565-12.062-26.152c7.866-2.059,13.144-4.281,9.775-6.106-4.888-2.652-7.241-7.683-8.374-11.678a42.4,42.4,0,0,1-7.2,7.768l-.156.13-.912,8.863-.281,2.724-.586,5.65s2.8,66.784,4.822,70.6,1.017,11.17-.756,19.8C427.985,350.855,427.921,351.357,427.816,351.878Z" transform="translate(-214.023 -105.182)" opacity="0.1"/>
      <path id="Path_13130" data-name="Path 13130" d="M429.64,340.795c-1.773,8.635-.254,22.855,1.779,33.77s23.617,3.813,27.684,0,15.992-5.585,15.992-5.585.508-49.769,4.321-56.116c1.805-3.011,2.242-12.838,2.2-22.333-.032-8.524-.456-16.781-.612-19.55-.039-.652-.059-1.01-.059-1.01s16.5-27.931,16.246-29.977-5.076-2.281-5.076-2.281-18.247-14.22-21.33-12.447-11.43-2.789-11.43-2.789-10.616,1.206-12.812-.847a1.121,1.121,0,0,1-.391-.932c.248-3.259-10.818-10.192-11.164-10.427,9.332,8.394-5.754,21.329-7.468,22.75l-.156.13-1.779,17.237s2.8,66.784,4.822,70.6S431.419,332.16,429.64,340.795Z" transform="translate(-214.563 -96.627)" fill="#67647e"/>
      <ellipse id="Ellipse_536" data-name="Ellipse 536" cx="1.271" cy="1.271" rx="1.271" ry="1.271" transform="translate(214.79 170.352)" fill="#444053"/>
      <path id="Path_13131" data-name="Path 13131" d="M429.33,234.566l7.716,7.462,11.307-18.9a1.12,1.12,0,0,1-.391-.932c.248-3.258-10.825-10.192-11.163-10.427C446.13,220.209,431.07,233.145,429.33,234.566Z" transform="translate(-215.869 -97.15)" opacity="0.1"/>
      <ellipse id="Ellipse_537" data-name="Ellipse 537" cx="1.271" cy="1.271" rx="1.271" ry="1.271" transform="translate(217.332 210.977)" opacity="0.1"/>
      <ellipse id="Ellipse_538" data-name="Ellipse 538" cx="1.271" cy="1.271" rx="1.271" ry="1.271" transform="translate(217.332 210.469)" fill="#444053"/>
      <path id="Path_13132" data-name="Path 13132" d="M428.55,233.006l7.716,7.462,11.307-18.9a1.121,1.121,0,0,1-.391-.932c.248-3.258-10.818-10.192-11.163-10.427C445.35,218.649,430.264,231.578,428.55,233.006Z" transform="translate(-215.597 -96.607)" fill="#67647e"/>
      <rect id="Rectangle_936" data-name="Rectangle 936" width="17.674" height="37.341" rx="1.7" transform="translate(222.62 207.886) rotate(-178.69)" fill="#d1d9ec"/>
      <rect id="Rectangle_937" data-name="Rectangle 937" width="17.674" height="37.341" rx="1.7" transform="translate(222.711 208.712) rotate(-178.69)" fill="#dfe6f5"/>
      <ellipse id="Ellipse_539" data-name="Ellipse 539" cx="2.776" cy="2.776" rx="2.776" ry="2.776" transform="translate(211.988 179.338)" fill="#fff"/>
      <path id="Path_13133" data-name="Path 13133" d="M284.52,347.4c6.347,2.8,48-4.562,54.089-6.347s14.989-15.49,10.668-25.416,1.518-19.55,1.518-19.55,9.123-19.55,11.176-23.363a175.537,175.537,0,0,0,6.856-16.755,1.525,1.525,0,0,0-.358-1.167c-1.655-2.5-8.042-6.94-8.042-6.94-1.792.652-2.014-4.49-1.955-8.263.039-2.112.163-3.793.163-3.793s-.841.854-2.216,2.02c-.5.424-1.075.893-1.714,1.375a26.35,26.35,0,0,1-7.963,4.373c-6.093,1.805-14.728,10.127-14.728,10.127l2.542,39s-5.865,36.677-11.939,43.786-24.379,6.856-30.472,6.856S284.52,347.4,284.52,347.4Z" transform="translate(-165.428 -105.523)" opacity="0.1"/>
      <path id="Path_13134" data-name="Path 13134" d="M283.74,345.081c6.347,2.789,48-4.562,54.089-6.354s14.989-15.49,10.668-25.416,1.518-19.55,1.518-19.55,9.124-19.55,11.177-23.363a175.581,175.581,0,0,0,6.856-16.754,1.532,1.532,0,0,0-.358-1.167c-1.668-2.489-8.022-6.921-8.022-6.921-1.792.652-2.014-4.483-1.955-8.257.039-2.118.163-3.8.163-3.8s-.841.854-2.216,2.027c-.5.417-1.076.886-1.714,1.369a26.352,26.352,0,0,1-8,4.373c-6.093,1.805-14.728,10.127-14.728,10.127l2.541,39s-5.865,36.676-11.939,43.786-24.373,6.856-30.472,6.856S283.74,345.081,283.74,345.081Z" transform="translate(-165.157 -104.719)" fill="#67647e"/>
      <path id="Path_13135" data-name="Path 13135" d="M389.73,235s.241,1.336.652,3.4c1.368,6.973,4.627,22.2,6.979,21.61,1.688-.424,4.562-3.408,6.752-5.989-1.649-2.515-8.022-6.96-8.022-6.96-1.792.652-2.014-4.484-1.955-8.257l-2.053-1.772Z" transform="translate(-202.075 -105.241)" opacity="0.1"/>
      <path id="Path_13136" data-name="Path 13136" d="M390.51,233.47s.241,1.336.652,3.4c1.368,6.973,4.627,22.2,6.979,21.61,1.688-.424,4.562-3.408,6.751-5.989-1.682-2.509-8.035-6.94-8.035-6.94-1.792.652-2.013-4.484-1.955-8.257l-2.053-1.773Z" transform="translate(-202.347 -104.708)" fill="#67647e"/>
      <path id="Path_13137" data-name="Path 13137" d="M359.607,340.006s12.7-2.535,16.253-8.12,27.742-10.427,24.764-4.562-24.764,24.953-24.764,24.953L366.4,365.812l-12.63-3.206-5.324-10.355Z" transform="translate(-187.697 -136.471)" fill="#efb7b9"/>
      <path id="Path_13138" data-name="Path 13138" d="M404.028,370.45s-12.3,4.562-14.148,10.661S404.028,370.45,404.028,370.45Z" transform="translate(-202.076 -152.421)" opacity="0.1"/>
      <path id="Path_13139" data-name="Path 13139" d="M415.6,381.34s1.121,6.341-14.292,5.865Z" transform="translate(-206.109 -156.215)" opacity="0.1"/>
      <path id="Path_13140" data-name="Path 13140" d="M515.706,256.368l5.591-.508s6.094,4.562,10.662,4.562,7.364,5.865,7.364,5.865,7.618,3.558,10.16,4.067,6.855,3.043,5.584,4.06.254,3.3,2.542,5.076,5.865,10.922,2.79,12.193-11.424,3.806-13.686,5.077-5.076,0-5.076,0-13.45-17.524-20.313-14.22-16.259,3.285-16.259,3.285L497.7,270.34Z" transform="translate(-239.683 -112.507)" opacity="0.1"/>
      <path id="Path_13141" data-name="Path 13141" d="M344.208,341.693a6.811,6.811,0,0,0,4.737,3.291,35.85,35.85,0,0,0,14.787-1.369s-25.579-8.126-.952-27.885H356.2l-2.215-.834,1-5.259,1.447-47.436L351.1,260.93s-4.295,31.235-5.317,35.041-1.792,18.54-1.792,18.54-1.017,6.093-2.542,9.124C340.3,325.941,340.617,336.271,344.208,341.693Z" transform="translate(-185.051 -114.273)" fill="#67647e"/>
      <path id="Path_13142" data-name="Path 13142" d="M347.59,370.53a6.8,6.8,0,0,0,4.738,3.291,35.844,35.844,0,0,0,14.786-1.369s-25.578-8.126-.951-27.9h-6.575l-2.2-.834C353.722,350.139,348.053,361.537,347.59,370.53Z" transform="translate(-187.397 -143.111)" opacity="0.1"/>
      <path id="Path_13143" data-name="Path 13143" d="M346,370.537a6.811,6.811,0,0,0,4.738,3.291,35.841,35.841,0,0,0,14.787-1.368s-25.579-8.126-.952-27.885h-6.582l-2.216-.834C352.178,350.146,346.482,361.544,346,370.537Z" transform="translate(-186.843 -143.118)" fill="none"/>
      <path id="Path_13144" data-name="Path 13144" d="M346,370.537a6.811,6.811,0,0,0,4.738,3.291,35.841,35.841,0,0,0,14.787-1.368s-25.579-8.126-.952-27.885h-6.582l-2.216-.834C352.178,350.146,346.482,361.544,346,370.537Z" transform="translate(-186.843 -143.118)" fill="#67647e"/>
      <path id="Path_13145" data-name="Path 13145" d="M398.44,235.336a23.115,23.115,0,0,0,26.152-4.966c-.117-.372-.228-.73-.332-1.088a28.2,28.2,0,0,1-1.023-5.865s-28.674-10.16-23.109,0C402.871,228.421,401.027,232.488,398.44,235.336Z" transform="translate(-205.109 -99.634)" opacity="0.1"/>
      <path id="Path_13146" data-name="Path 13146" d="M377.65,197.951v.228a20.821,20.821,0,0,0,.13,2.222c.078.73.182,1.395.313,2.079a23.115,23.115,0,0,0,44.522,2.985c.156-.45.293-.9.417-1.356a22.834,22.834,0,0,0,.834-6.158,14.251,14.251,0,0,0-.059-1.584,23.109,23.109,0,0,0-46.158,1.584Z" transform="translate(-197.868 -84.308)" fill="#efb7b9"/>
      <path id="Path_13147" data-name="Path 13147" d="M377.65,198.182a9.941,9.941,0,0,1,.13,2.222,8.311,8.311,0,0,0,.065,1.206,3.418,3.418,0,0,0,.248.873c.932,2.19,3.982,3.61,6,2.2a6.423,6.423,0,0,0,1.8-2.359c2.138-3.969,5.1-8.53,9.775-8.609,1.994-.039,3.864.8,5.793,1.3s4.21.547,5.644-.763c1.108-1.01,1.629-2.73,3.109-3.082s2.848,1,3.526,2.333,1.219,2.893,2.607,3.584c.612.3,1.3.391,1.955.717,2.763,1.512,1.493,6.81,4.36,7.67a2.059,2.059,0,0,0,.274.065c.046-.469.1-.951.144-1.421q.391-3.871.775-7.742a23.108,23.108,0,0,0-46.158,1.584Z" transform="translate(-197.868 -84.312)" opacity="0.1"/>
      <path id="Path_13148" data-name="Path 13148" d="M413.571,153.654c2.717,1.153,5.546,2.926,6.152,5.7a22.863,22.863,0,0,1,.13,3.721c.13,2.5,1.3,4.822,2.079,7.22s1.036,5.213-.489,7.234c-.476.652-1.108,1.167-1.538,1.831a7.5,7.5,0,0,0-.886,3.4l-1.258,12.5c-3.219-.606-1.786-6.191-4.64-7.742-.593-.326-1.3-.417-1.922-.723-1.375-.652-1.91-2.248-2.607-3.578s-2.02-2.691-3.525-2.333-2,2.079-3.1,3.082c-1.44,1.3-3.727,1.251-5.65.763s-3.8-1.3-5.787-1.3c-4.679.078-7.65,4.64-9.775,8.609a6.44,6.44,0,0,1-1.805,2.366c-2.268,1.59-5.865-.417-6.236-3.076-.221-1.492.248-3.154-.613-4.418s-2.724-1.531-4.177-2.209c-3.715-1.707-4.862-6.341-4.249-10.225.45-2.8,1.564-5.683.652-8.381-.319-.932-.86-1.779-1.153-2.711-.815-2.607.514-5.5,2.606-7.357a21.2,21.2,0,0,1,7.534-3.78c6.927-2.327,14.2-4.562,21.57-5.044,3.226-.208,7.456-1.219,10.016.8C407.94,150.324,409.818,152.064,413.571,153.654Z" transform="translate(-192.74 -74.505)" fill="#585268"/>
      <ellipse id="Ellipse_540" data-name="Ellipse 540" cx="1.271" cy="1.271" rx="1.271" ry="1.271" transform="translate(213.52 150.287)" opacity="0.1"/>
      <ellipse id="Ellipse_541" data-name="Ellipse 541" cx="1.271" cy="1.271" rx="1.271" ry="1.271" transform="translate(213.52 149.778)" fill="#444053"/>
      <ellipse id="Ellipse_542" data-name="Ellipse 542" cx="1.271" cy="1.271" rx="1.271" ry="1.271" transform="translate(221.646 230.026)" opacity="0.1"/>
      <ellipse id="Ellipse_543" data-name="Ellipse 543" cx="1.271" cy="1.271" rx="1.271" ry="1.271" transform="translate(221.646 229.518)" fill="#444053"/>
      <ellipse id="Ellipse_544" data-name="Ellipse 544" cx="1.271" cy="1.271" rx="1.271" ry="1.271" transform="translate(217.332 251.101)" opacity="0.1"/>
      <ellipse id="Ellipse_545" data-name="Ellipse 545" cx="1.271" cy="1.271" rx="1.271" ry="1.271" transform="translate(217.332 250.593)" fill="#444053"/>
      <path id="Path_13149" data-name="Path 13149" d="M369.586,299.24s-2.8,18.964,0,22.268S369.586,299.24,369.586,299.24Z" transform="translate(-194.626 -127.618)" opacity="0.1"/>
      <path id="Path_13150" data-name="Path 13150" d="M493.747,353.28s5.331,11.489,0,22.5-8.635,15.49-6.856,22.522S493.747,353.28,493.747,353.28Z" transform="translate(-235.75 -146.441)" opacity="0.1"/>
      <path id="Path_13151" data-name="Path 13151" d="M109.291,668.807c7.872,5.331,19.811,2.789,19.811,2.789s18.026-8.628,23.363-8.628,18.26-5.337,18.26-5.337l-.436-3.591c-5.259,1.01-17.224,3.428-18.606,4.608-1.779,1.525-23.617,8.889-23.617,8.889s-14.871-1.857-19.009-7.97C106.339,662.394,105.172,666.017,109.291,668.807Z" transform="translate(-103.454 -251.201)" opacity="0.1"/>
      <g id="Group_2533" data-name="Group 2533" transform="translate(170.197 85.705)" opacity="0.1">
        <path id="Path_13152" data-name="Path 13152" d="M450.28,168.228v.124A.393.393,0,0,0,450.28,168.228Z" transform="translate(-393.364 -167.4)"/>
        <path id="Path_13153" data-name="Path 13153" d="M368.242,196.567c1.453.652,3.258.912,4.177,2.2s.391,2.926.613,4.418c.384,2.659,3.969,4.673,6.237,3.076a6.448,6.448,0,0,0,1.805-2.366c2.131-3.969,5.1-8.53,9.775-8.609,1.994-.033,3.865.808,5.794,1.3s4.21.547,5.65-.762c1.1-1,1.623-2.73,3.1-3.082s2.841,1,3.526,2.333,1.219,2.893,2.607,3.584c.613.3,1.3.391,1.922.717,2.854,1.558,1.421,7.169,4.64,7.742q.652-6.256,1.258-12.5a7.473,7.473,0,0,1,.886-3.363c.43-.652,1.062-1.2,1.538-1.838a5.6,5.6,0,0,0,1.043-2.685,6.518,6.518,0,0,1-1.043,4.718c-.476.652-1.108,1.167-1.538,1.831a7.5,7.5,0,0,0-.9,3.4q-.652,6.25-1.257,12.5c-3.22-.606-1.786-6.191-4.64-7.742-.593-.326-1.3-.417-1.923-.723-1.375-.652-1.909-2.249-2.606-3.578s-2.02-2.691-3.526-2.333-2,2.079-3.1,3.082c-1.44,1.3-3.728,1.251-5.65.762s-3.8-1.3-5.793-1.3c-4.672.078-7.644,4.64-9.775,8.609a6.451,6.451,0,0,1-1.8,2.366c-2.268,1.59-5.865-.417-6.237-3.076-.222-1.492.248-3.154-.612-4.418s-2.724-1.531-4.177-2.209c-3.4-1.564-4.646-5.572-4.36-9.215C364.13,192.384,365.472,195.29,368.242,196.567Z" transform="translate(-363.251 -174.137)"/>
        <path id="Path_13154" data-name="Path 13154" d="M363.182,168.773c.293.932.834,1.786,1.154,2.711a7.818,7.818,0,0,1,.287,3.343,6.518,6.518,0,0,0-.287-1.3c-.32-.932-.86-1.779-1.154-2.711a5.717,5.717,0,0,1-.15-2.652A5.384,5.384,0,0,0,363.182,168.773Z" transform="translate(-362.941 -167.665)"/>
      </g>
      <path id="Path_13155" data-name="Path 13155" d="M554.225,472.226l-52.344-6.549a2,2,0,0,1-1.192-3.375l21.955-22.809a1.993,1.993,0,0,1,1.668-.6l40.02,4.484a2,2,0,0,1,1.642,2.711l-9.632,24.888A2.007,2.007,0,0,1,554.225,472.226Z" transform="translate(-240.529 -176.257)" fill="#746d83"/>
      <path id="Path_13156" data-name="Path 13156" d="M554.225,472.226l-52.344-6.549a2,2,0,0,1-1.192-3.375l21.955-22.809a1.993,1.993,0,0,1,1.668-.6l40.02,4.484a2,2,0,0,1,1.642,2.711l-9.632,24.888A2.007,2.007,0,0,1,554.225,472.226Z" transform="translate(-240.529 -176.257)" opacity="0.1"/>
      <path id="Path_13157" data-name="Path 13157" d="M553.319,471.307l-52.336-6.576a2.007,2.007,0,0,1-1.193-3.382l21.955-22.809a2.019,2.019,0,0,1,1.668-.606l40.013,4.484a2.008,2.008,0,0,1,1.649,2.717l-9.638,24.887A2.015,2.015,0,0,1,553.319,471.307Z" transform="translate(-240.217 -175.924)" fill="#746d83"/>
      <path id="Path_13158" data-name="Path 13158" d="M532.345,444.973l15.719,1.264,22.418-1.46H570.1l-20.768-2.007c-4.757-1.747-1.46-12.03-1.46-12.03l-15.907.808-1.27.065C525.066,444.777,532.345,444.973,532.345,444.973Z" transform="translate(-250.432 -173.422)" fill="#d1d9ec"/>
      <path id="Path_13159" data-name="Path 13159" d="M532.345,445.408l15.719,1.264,22.418-1.46H570.1l-22.665.808-15.184-1.649c-4.314-1.134-1.844-8.615-.287-12.382l-1.27.065C525.066,445.212,532.345,445.408,532.345,445.408Z" transform="translate(-250.432 -173.857)" opacity="0.1"/>
      <path id="Path_13160" data-name="Path 13160" d="M492.1,306.463l4.809,68.98.652,9.052a3.911,3.911,0,0,0,3.95,3.656h1.459l72.4-.437a2.039,2.039,0,0,0,2.006-2.235l-.651-9.058-5.1-60.658a4.165,4.165,0,0,0-2.783-3.52l-69.006-10.349a6.492,6.492,0,0,0-6.23.717A4.381,4.381,0,0,0,492.1,306.463Z" transform="translate(-237.724 -128.382)" fill="#4c4c56"/>
      <path id="Path_13161" data-name="Path 13161" d="M499.5,415l.651,9.052a3.91,3.91,0,0,0,3.949,3.656h1.46l72.4-.437a2.04,2.04,0,0,0,2.007-2.235l-.652-9.059Z" transform="translate(-240.311 -167.939)" fill="#dfe6f5"/>
      <ellipse id="Ellipse_546" data-name="Ellipse 546" cx="0.971" cy="1.942" rx="0.971" ry="1.942" transform="translate(306.755 252.626)" fill="#fff"/>
      <path id="Path_13162" data-name="Path 13162" d="M556.175,463.981s-19.8-7.475-25.135-2.04c0,0-.873,1.655,2.718,2.04l14.506,1.167S554.233,465.728,556.175,463.981Z" transform="translate(-251.264 -183.6)" fill="#d1d9ec"/>
      <path id="Path_13163" data-name="Path 13163" d="M556.509,461.424c-3.91-1.59-15.595-5.7-23.089-1.153,0,0,8.29-.919,12.845,1.714s10.772,1.381,10.772,1.381l.091-.163a1.258,1.258,0,0,0-.619-1.779Z" transform="translate(-252.126 -182.985)" fill="#dfe6f5"/>
      <path id="Path_13164" data-name="Path 13164" d="M492.1,307.1l5.435,78.045a3.91,3.91,0,0,0,3.949,3.656h1.46a13.925,13.925,0,0,1-2.529-3.259s-5.337-78.423-5.728-80.365a3.978,3.978,0,0,0-1.075-1.916A4.379,4.379,0,0,0,492.1,307.1Z" transform="translate(-237.724 -129.018)" fill="#dfe6f5"/>
      <path id="Path_13165" data-name="Path 13165" d="M492.1,307.1l5.435,78.045a3.91,3.91,0,0,0,3.949,3.656h1.46a13.925,13.925,0,0,1-2.529-3.259s-5.337-78.423-5.728-80.365a3.978,3.978,0,0,0-1.075-1.916A4.379,4.379,0,0,0,492.1,307.1Z" transform="translate(-237.724 -129.018)" opacity="0.1"/>
      <path id="Path_13166" data-name="Path 13166" d="M461.009,328.793c5.865-1.3,19.55-5.318,19.55-5.318l2.45-.495c-.033-8.524-.456-16.781-.613-19.551h-.058s-11.685,3.812-14.474,5.865-11.43,1.519-11.43,1.519-13.451.723-24.614,13.19S455.17,330.077,461.009,328.793Z" transform="translate(-215.967 -129.077)" opacity="0.1"/>
      <path id="Path_13167" data-name="Path 13167" d="M518.075,303.812a3.4,3.4,0,0,1,.763,5.7c-3.1,2.561-7.612,5.624-11.926,6.054-7.168.723-24.5,4.2-26.224,4.562a2.078,2.078,0,0,0-.274.065c-1.427.417-13.914,4.073-19.42,5.279-5.865,1.3-40.4,7.631-29.2-4.809,10.284-11.456,22.5-13.034,24.385-13.184a2.637,2.637,0,0,1,.45,0c1.3.059,8.681.313,11.228-1.531a23.992,23.992,0,0,1,4.2-2.092,80.288,80.288,0,0,1,17.172-4.953l11.946-2.085a3.432,3.432,0,0,1,2.007.261Z" transform="translate(-215.954 -126.755)" fill="#efb7b9"/>
      <path id="Path_13168" data-name="Path 13168" d="M517.255,256.368l5.585-.508s6.1,4.562,10.668,4.562,7.364,5.865,7.364,5.865,7.618,3.558,10.16,4.067,6.856,3.043,5.585,4.06.254,3.3,2.541,5.076,5.865,10.922,2.79,12.193-11.424,3.806-13.686,5.077-5.076,0-5.076,0-13.477-17.537-20.339-14.233-16.253,3.3-16.253,3.3L499.23,270.34Z" transform="translate(-240.217 -112.507)" fill="#67647e"/>
      <path id="Path_13169" data-name="Path 13169" d="M1018.286,744.045a11.013,11.013,0,0,0-1.479,2.8c-.1.24-.183.521-.273.788a3.019,3.019,0,0,0-.515-.182,7.163,7.163,0,0,0-2.326-.2,7,7,0,0,1,.045-.958c.091-3.434-.313-8.218-3.583-6.191-3.148,1.955-.907,5.213,1.121,7.3l.521.514c-1.845,1.3-2.2,4.386-2.509,7.586s-3.024,6.7-4.823,8.687c-.183.208-.353.384-.509.554a6.612,6.612,0,0,0-5.213-1.35l-.241-.879c-1.46-5.272-4.49-14.4-8.354-16.4.162-.2.333-.411.507-.652,1.642-2.144,3.487-5.337.756-6.152s-2.971,2.77-2.822,5.448a5.561,5.561,0,0,0,.079.959,4.006,4.006,0,0,0-2.861,1.394l-.417-.5c-2.216-2.606-6.282-6.758-7.508-3.623-1.146,2.92,2.431,6.712,4.946,8.909l.156.136c-1.694,6.849,5.683,12.434,9.652,14.879l.509.312c-5.475,6.452-8.85,18.547-8.85,18.547l15.327,2.737s10.16-8.771,8.862-17.009h.1c10.154-2.033,12.467-12.864,10.883-19.29l.183-.078a11.537,11.537,0,0,0,4.7-3.558C1027.162,744.625,1021.2,740.167,1018.286,744.045Z" transform="translate(-406.865 -280.861)" fill="#ff7500"/>
      <path id="Path_13170" data-name="Path 13170" d="M1018.286,744.045a11.013,11.013,0,0,0-1.479,2.8c-.1.24-.183.521-.273.788a3.019,3.019,0,0,0-.515-.182,7.163,7.163,0,0,0-2.326-.2,7,7,0,0,1,.045-.958c.091-3.434-.313-8.218-3.583-6.191-3.148,1.955-.907,5.213,1.121,7.3l.521.514c-1.845,1.3-2.2,4.386-2.509,7.586s-3.024,6.7-4.823,8.687c-.183.208-.353.384-.509.554a6.612,6.612,0,0,0-5.213-1.35l-.241-.879c-1.46-5.272-4.49-14.4-8.354-16.4.162-.2.333-.411.507-.652,1.642-2.144,3.487-5.337.756-6.152s-2.971,2.77-2.822,5.448a5.561,5.561,0,0,0,.079.959,4.006,4.006,0,0,0-2.861,1.394l-.417-.5c-2.216-2.606-6.282-6.758-7.508-3.623-1.146,2.92,2.431,6.712,4.946,8.909l.156.136c-1.694,6.849,5.683,12.434,9.652,14.879l.509.312c-5.475,6.452-8.85,18.547-8.85,18.547l15.327,2.737s10.16-8.771,8.862-17.009h.1c10.154-2.033,12.467-12.864,10.883-19.29l.183-.078a11.537,11.537,0,0,0,4.7-3.558C1027.162,744.625,1021.2,740.167,1018.286,744.045Z" transform="translate(-406.865 -280.861)" opacity="0.1"/>
      <path id="Path_13171" data-name="Path 13171" d="M988.249,749.892l-1.793,5.246s-.99-.7-2.248-1.812c-2.515-2.2-6.093-5.989-4.946-8.908,1.225-3.135,5.291,1,7.506,3.623C987.662,749.084,988.249,749.892,988.249,749.892Z" transform="translate(-407.346 -282.291)" fill="#dba514"/>
      <path id="Path_13172" data-name="Path 13172" d="M997.872,745.478a24.906,24.906,0,0,1-1.76,2.072,25.4,25.4,0,0,1-.319-2.763c-.149-2.679.13-6.25,2.822-5.448S999.5,743.333,997.872,745.478Z" transform="translate(-413.169 -280.873)" fill="#dba514"/>
      <path id="Path_13173" data-name="Path 13173" d="M1031.7,746.522c-.059,1.727-.229,3.108-.229,3.108a22.538,22.538,0,0,1-2.234-2c-2.027-2.1-4.269-5.35-1.122-7.3C1031.4,738.3,1031.788,743.088,1031.7,746.522Z" transform="translate(-423.893 -281.09)" fill="#dba514"/>
      <path id="Path_13174" data-name="Path 13174" d="M1046.208,750.352a11.534,11.534,0,0,1-4.7,3.558,12.7,12.7,0,0,1-1.577.573l-2.111-2.965a21.1,21.1,0,0,1,.874-2.88,10.974,10.974,0,0,1,1.479-2.8C1043.092,741.965,1049.055,746.422,1046.208,750.352Z" transform="translate(-427.819 -282.659)" fill="#dba514"/>
      <path id="Path_13175" data-name="Path 13175" d="M989.531,750.58c.893,1.043,1.48,1.852,1.48,1.852l-1.793,5.246s-.99-.7-2.248-1.811a10.22,10.22,0,0,1,2.013-4.607C989.166,751.01,989.355,750.789,989.531,750.58Z" transform="translate(-410.107 -284.829)" opacity="0.1"/>
      <path id="Path_13176" data-name="Path 13176" d="M997.89,748.451a24.9,24.9,0,0,1-1.76,2.072,25.715,25.715,0,0,1-.32-2.763,3.621,3.621,0,0,1,2.08.691Z" transform="translate(-413.186 -283.847)" opacity="0.1"/>
      <path id="Path_13177" data-name="Path 13177" d="M1003.549,769.774l-4.457,1.955a26.963,26.963,0,0,1-2.372-1.343c-4.686-2.881-14.109-10.134-7.82-18.684s11.58,6.784,13.685,14.285C1003.223,768.235,1003.549,769.774,1003.549,769.774Z" transform="translate(-410.049 -284.342)" fill="#dba514"/>
      <path id="Path_13178" data-name="Path 13178" d="M1030.67,751.2a3.693,3.693,0,0,1,2.463-1.108c-.059,1.726-.229,3.108-.229,3.108A22.843,22.843,0,0,1,1030.67,751.2Z" transform="translate(-425.329 -284.658)" opacity="0.1"/>
      <path id="Path_13179" data-name="Path 13179" d="M1041.508,756.182a12.585,12.585,0,0,1-1.577.574l-2.111-2.965a21.166,21.166,0,0,1,.874-2.881C1040.056,751.718,1041.059,753.7,1041.508,756.182Z" transform="translate(-427.819 -284.944)" opacity="0.1"/>
      <path id="Path_13180" data-name="Path 13180" d="M1021.71,775.769c-.248.052-.5.1-.75.137-14.943,2.268-4.926-5.793-4.926-5.793s.652-.619,1.583-1.636c1.8-1.955,4.517-5.467,4.822-8.687.47-4.842,1.017-9.384,6.731-8.055C1034.782,753.052,1035.851,772.94,1021.71,775.769Z" transform="translate(-419.086 -285.149)" fill="#dba514"/>
      <rect id="Rectangle_938" data-name="Rectangle 938" width="28.55" height="7.507" transform="translate(573.794 527.823)" fill="#d4dfec"/>
      <rect id="Rectangle_939" data-name="Rectangle 939" width="37.302" height="26.197" transform="translate(569.258 503.425)" fill="#d4dfec"/>
      <rect id="Rectangle_940" data-name="Rectangle 940" width="28.55" height="7.507" transform="translate(573.794 527.823)" opacity="0.1"/>
      <rect id="Rectangle_941" data-name="Rectangle 941" width="37.302" height="26.197" transform="translate(569.258 503.425)" opacity="0.1"/>
      <rect id="Rectangle_942" data-name="Rectangle 942" width="28.55" height="7.507" transform="translate(575.67 527.823)" fill="#d4dfec"/>
      <path id="Path_13181" data-name="Path 13181" d="M1007.865,775c.651,2.242.964,3.78.964,3.78l-4.458,1.955a26.587,26.587,0,0,1-2.372-1.343C1003.76,777.17,1005.727,775.5,1007.865,775Z" transform="translate(-415.342 -293.335)" opacity="0.1"/>
      <path id="Path_13182" data-name="Path 13182" d="M1021.71,784.842c-.248.052-.5.1-.75.137-14.943,2.268-4.926-5.794-4.926-5.794s.652-.619,1.583-1.635A9.916,9.916,0,0,1,1021.71,784.842Z" transform="translate(-419.086 -294.223)" opacity="0.1"/>
      <path id="Path_13183" data-name="Path 13183" d="M989.22,798.645s8.368-29.977,20.1-20.723-4.77,23.46-4.77,23.46Z" transform="translate(-410.89 -293.735)" fill="#dba514"/>
      <ellipse id="Ellipse_547" data-name="Ellipse 547" cx="0.938" cy="0.938" rx="0.938" ry="0.938" transform="translate(581.614 471.121)" opacity="0.1"/>
      <ellipse id="Ellipse_548" data-name="Ellipse 548" cx="0.938" cy="0.938" rx="0.938" ry="0.938" transform="translate(581.535 475.5)" opacity="0.1"/>
      <ellipse id="Ellipse_549" data-name="Ellipse 549" cx="0.938" cy="0.938" rx="0.938" ry="0.938" transform="translate(608.75 471.981)" opacity="0.1"/>
      <ellipse id="Ellipse_550" data-name="Ellipse 550" cx="0.938" cy="0.938" rx="0.938" ry="0.938" transform="translate(586.853 494.431)" opacity="0.1"/>
      <ellipse id="Ellipse_551" data-name="Ellipse 551" cx="0.938" cy="0.938" rx="0.938" ry="0.938" transform="translate(606.795 479.254)" opacity="0.1"/>
      <ellipse id="Ellipse_552" data-name="Ellipse 552" cx="0.938" cy="0.938" rx="0.938" ry="0.938" transform="translate(597.098 488.957)" opacity="0.1"/>
      <ellipse id="Ellipse_553" data-name="Ellipse 553" cx="0.938" cy="0.938" rx="0.938" ry="0.938" transform="translate(584.82 472.998)" opacity="0.1"/>
      <ellipse id="Ellipse_554" data-name="Ellipse 554" cx="0.938" cy="0.938" rx="0.938" ry="0.938" transform="translate(606.169 474.796)" opacity="0.1"/>
      <ellipse id="Ellipse_555" data-name="Ellipse 555" cx="0.938" cy="0.938" rx="0.938" ry="0.938" transform="translate(602.963 482.069)" opacity="0.1"/>
      <ellipse id="Ellipse_556" data-name="Ellipse 556" cx="0.938" cy="0.938" rx="0.938" ry="0.938" transform="translate(593.109 493.728)" opacity="0.1"/>
      <ellipse id="Ellipse_557" data-name="Ellipse 557" cx="0.938" cy="0.938" rx="0.938" ry="0.938" transform="translate(591.076 489.114)" opacity="0.1"/>
      <ellipse id="Ellipse_558" data-name="Ellipse 558" cx="0.938" cy="0.938" rx="0.938" ry="0.938" transform="translate(586.228 478.707)" opacity="0.1"/>
      <rect id="Rectangle_943" data-name="Rectangle 943" width="28.55" height="2.744" transform="translate(575.67 527.823)" opacity="0.1"/>
      <rect id="Rectangle_944" data-name="Rectangle 944" width="37.302" height="26.197" transform="translate(571.135 503.425)" fill="#d4dfec"/>
      <ellipse id="Ellipse_559" data-name="Ellipse 559" cx="0.938" cy="0.938" rx="0.938" ry="0.938" transform="translate(594.361 497.951)" opacity="0.1"/>
      <ellipse id="Ellipse_560" data-name="Ellipse 560" cx="0.938" cy="0.938" rx="0.938" ry="0.938" transform="translate(588.73 499.124)" opacity="0.1"/>
    </g>
  </g>
</svg>
