<svg xmlns="http://www.w3.org/2000/svg" xmlns:xlink="http://www.w3.org/1999/xlink" width="1920" height="1080" viewBox="0 0 1920 1080">
  <defs>
    <linearGradient id="linear-gradient" x1="0.469" y1="2.968" x2="0.552" y2="-3.695" gradientUnits="objectBoundingBox">
      <stop offset="0" stop-color="#fff"/>
      <stop offset="1" stop-color="#c9e6ff"/>
    </linearGradient>
    <linearGradient id="linear-gradient-2" x1="1.876" y1="0.5" x2="0.877" y2="0.5" gradientUnits="objectBoundingBox">
      <stop offset="0" stop-color="#f6f3ff"/>
      <stop offset="1" stop-color="#e5d6ff"/>
    </linearGradient>
    <linearGradient id="linear-gradient-3" x1="-0.256" y1="0.907" x2="0.288" y2="0.614" xlink:href="#linear-gradient-2"/>
    <clipPath id="clip-home_page_Get_in_touch_box">
      <rect width="1920" height="1080"/>
    </clipPath>
  </defs>
  <g id="home_page_Get_in_touch_box" data-name="home page Get in touch box" clip-path="url(#clip-home_page_Get_in_touch_box)">
    <rect width="1920" height="1080" fill="#fff"/>
    <g id="Group_2480" data-name="Group 2480">
      <rect id="Rectangle_511" data-name="Rectangle 511" width="1920" height="1080" fill="url(#linear-gradient)"/>
      <g id="Group_2186" data-name="Group 2186" transform="translate(51.6 48)" opacity="0.02">
        <path id="Path_9679" data-name="Path 9679" d="M320.812,283.375H221.934a6.428,6.428,0,0,1-6.434-6.434V178.034a6.428,6.428,0,0,1,6.434-6.434H320.84a6.428,6.428,0,0,1,6.434,6.434V276.94A6.47,6.47,0,0,1,320.812,283.375Z" transform="translate(74.826 250.8)" fill="blue"/>
        <path id="Path_11388" data-name="Path 11388" d="M320.812,283.375H221.934a6.428,6.428,0,0,1-6.434-6.434V178.034a6.428,6.428,0,0,1,6.434-6.434H320.84a6.428,6.428,0,0,1,6.434,6.434V276.94A6.47,6.47,0,0,1,320.812,283.375Z" transform="translate(-203.574 -171.6)" fill="blue"/>
        <path id="Path_9694" data-name="Path 9694" d="M323.772,286.516H222.115A6.608,6.608,0,0,1,215.5,279.9V178.215a6.608,6.608,0,0,1,6.615-6.615H323.8a6.608,6.608,0,0,1,6.615,6.615V279.9A6.652,6.652,0,0,1,323.772,286.516Z" transform="translate(1332.199 637.463)" fill="blue"/>
        <path id="Path_11386" data-name="Path 11386" d="M275.318,235.089H219.155a3.651,3.651,0,0,1-3.655-3.655v-56.18a3.651,3.651,0,0,1,3.655-3.655h56.18a3.651,3.651,0,0,1,3.655,3.655v56.18A3.675,3.675,0,0,1,275.318,235.089Z" transform="translate(1218.255 325.799)" fill="blue"/>
        <path id="Path_9692" data-name="Path 9692" d="M343.846,307.822h-120.5a7.833,7.833,0,0,1-7.842-7.842V179.442a7.833,7.833,0,0,1,7.842-7.842H343.881a7.833,7.833,0,0,1,7.842,7.842V299.981A7.885,7.885,0,0,1,343.846,307.822Z" transform="translate(1416.14 -120.935)" fill="blue"/>
        <path id="Path_9680" data-name="Path 9680" d="M596.129,532.571H537.411a3.808,3.808,0,0,1-3.811-3.811V470.011a3.808,3.808,0,0,1,3.811-3.811h58.718a3.809,3.809,0,0,1,3.811,3.811v58.718A3.835,3.835,0,0,1,596.129,532.571Z" transform="translate(-159.357 50.713)" fill="blue"/>
        <path id="Path_11387" data-name="Path 11387" d="M596.129,532.571H537.411a3.808,3.808,0,0,1-3.811-3.811V470.011a3.808,3.808,0,0,1,3.811-3.811h58.718a3.809,3.809,0,0,1,3.811,3.811v58.718A3.835,3.835,0,0,1,596.129,532.571Z" transform="translate(-437.757 -371.687)" fill="blue"/>
        <path id="Path_9693" data-name="Path 9693" d="M592.668,528.9H537.2a3.6,3.6,0,0,1-3.6-3.6V469.8a3.6,3.6,0,0,1,3.6-3.6h55.468a3.6,3.6,0,0,1,3.6,3.6v55.468A3.623,3.623,0,0,1,592.668,528.9Z" transform="translate(1107.208 429.094)" fill="blue"/>
        <path id="Path_11385" data-name="Path 11385" d="M566.234,500.839H535.589a1.988,1.988,0,0,1-1.989-1.989V468.189a1.988,1.988,0,0,1,1.989-1.989h30.645a1.988,1.988,0,0,1,1.989,1.989v30.645A2,2,0,0,1,566.234,500.839Z" transform="translate(951.597 82.384)" fill="blue"/>
        <path id="Path_9691" data-name="Path 9691" d="M603.62,540.522H537.868a4.265,4.265,0,0,1-4.268-4.268V470.468a4.265,4.265,0,0,1,4.268-4.268H603.62a4.265,4.265,0,0,1,4.268,4.268v65.752A4.294,4.294,0,0,1,603.62,540.522Z" transform="translate(1208.412 -313.316)" fill="blue"/>
        <path id="Path_9681" data-name="Path 9681" d="M1820.012,365.008H1751.4a7.488,7.488,0,0,1-7.5-7.5V288.9a7.488,7.488,0,0,1,7.5-7.5h68.615a7.488,7.488,0,0,1,7.5,7.5v68.615A7.467,7.467,0,0,1,1820.012,365.008Z" transform="translate(-760.382 236.703)" fill="blue"/>
        <path id="Path_9690" data-name="Path 9690" d="M1833.118,379.4h-80.431a8.777,8.777,0,0,1-8.787-8.787v-80.43a8.777,8.777,0,0,1,8.787-8.787h80.431a8.777,8.777,0,0,1,8.787,8.787v80.43A8.753,8.753,0,0,1,1833.118,379.4Z" transform="translate(-1743.9 525.52)" fill="blue"/>
        <path id="Path_9682" data-name="Path 9682" d="M2059.715,507.294H1888.321a9.911,9.911,0,0,1-9.921-9.921V453.321a9.911,9.911,0,0,1,9.921-9.921h171.395a9.911,9.911,0,0,1,9.921,9.921v44.053A9.952,9.952,0,0,1,2059.715,507.294Z" transform="translate(-851.978 139.722)" fill="blue"/>
        <path id="Path_9689" data-name="Path 9689" d="M2090.937,518.3H1890.029a11.618,11.618,0,0,1-11.629-11.629V455.029a11.618,11.618,0,0,1,11.629-11.629h200.908a11.618,11.618,0,0,1,11.629,11.629v51.639A11.666,11.666,0,0,1,2090.937,518.3Z" transform="translate(-1828.108 424.095)" fill="blue"/>
        <g id="Group_1567" data-name="Group 1567" transform="translate(391.507 922.388)">
          <path id="Path_9684" data-name="Path 9684" d="M238.274,1380.248a30.774,30.774,0,1,1,30.774-30.774A30.8,30.8,0,0,1,238.274,1380.248Zm0-46.591a15.817,15.817,0,1,0,15.817,15.817A15.846,15.846,0,0,0,238.274,1333.657Z" transform="translate(-207.5 -1318.7)" fill="blue"/>
        </g>
        <g id="Group_1572" data-name="Group 1572" transform="translate(162.307 255.88)">
          <path id="Path_9684-2" data-name="Path 9684" d="M238.274,1380.248a30.774,30.774,0,1,1,30.774-30.774A30.8,30.8,0,0,1,238.274,1380.248Zm0-46.591a15.817,15.817,0,1,0,15.817,15.817A15.846,15.846,0,0,0,238.274,1333.657Z" transform="translate(-207.5 -1318.7)" fill="blue"/>
        </g>
        <g id="Group_2187" data-name="Group 2187" transform="translate(1622.707 378.28)">
          <path id="Path_9684-3" data-name="Path 9684" d="M238.274,1380.248a30.774,30.774,0,1,1,30.774-30.774A30.8,30.8,0,0,1,238.274,1380.248Zm0-46.591a15.817,15.817,0,1,0,15.817,15.817A15.846,15.846,0,0,0,238.274,1333.657Z" transform="translate(-207.5 -1318.7)" fill="blue"/>
        </g>
        <g id="Group_2198" data-name="Group 2198" transform="translate(1261.507 32.68)">
          <path id="Path_9684-4" data-name="Path 9684" d="M238.274,1380.248a30.774,30.774,0,1,1,30.774-30.774A30.8,30.8,0,0,1,238.274,1380.248Zm0-46.591a15.817,15.817,0,1,0,15.817,15.817A15.846,15.846,0,0,0,238.274,1333.657Z" transform="translate(-207.5 -1318.7)" fill="blue"/>
        </g>
        <g id="Group_1571" data-name="Group 1571" transform="translate(1322.707 903.188)">
          <path id="Path_9684-5" data-name="Path 9684" d="M238.274,1380.248a30.774,30.774,0,1,1,30.774-30.774A30.8,30.8,0,0,1,238.274,1380.248Zm0-46.591a15.817,15.817,0,1,0,15.817,15.817A15.846,15.846,0,0,0,238.274,1333.657Z" transform="translate(-207.5 -1318.7)" fill="blue"/>
        </g>
        <g id="Ellipse_62" data-name="Ellipse 62" transform="translate(555.645 595.802)" fill="none" stroke="blue" stroke-miterlimit="10" stroke-width="10">
          <circle cx="20.4" cy="20.4" r="20.4" stroke="none"/>
          <circle cx="20.4" cy="20.4" r="15.4" fill="none"/>
        </g>
        <g id="Ellipse_67" data-name="Ellipse 67" transform="translate(440.445 55.821)" fill="none" stroke="blue" stroke-miterlimit="10" stroke-width="10">
          <circle cx="20.4" cy="20.4" r="20.4" stroke="none"/>
          <circle cx="20.4" cy="20.4" r="15.4" fill="none"/>
        </g>
        <g id="Ellipse_65" data-name="Ellipse 65" transform="translate(1413.646 256.371)" fill="none" stroke="blue" stroke-miterlimit="10" stroke-width="10">
          <circle cx="20.4" cy="20.4" r="20.4" stroke="none"/>
          <circle cx="20.4" cy="20.4" r="15.4" fill="none"/>
        </g>
        <g id="Ellipse_63" data-name="Ellipse 63" transform="translate(98.445 510.55)" fill="none" stroke="blue" stroke-miterlimit="10" stroke-width="10">
          <circle cx="20.4" cy="20.4" r="20.4" stroke="none"/>
          <circle cx="20.4" cy="20.4" r="15.4" fill="none"/>
        </g>
        <g id="Ellipse_64" data-name="Ellipse 64" transform="translate(1693.245 646.525)" fill="none" stroke="blue" stroke-miterlimit="10" stroke-width="10">
          <circle cx="20.4" cy="20.4" r="20.4" stroke="none"/>
          <circle cx="20.4" cy="20.4" r="15.4" fill="none"/>
        </g>
      </g>
      <g id="Group_2007" data-name="Group 2007" transform="translate(1249.324 600.145) rotate(-30)">
        <path id="Path_10833" data-name="Path 10833" d="M162.21,94.714h.312a1.248,1.248,0,0,0,0-2.5h-.312a39.973,39.973,0,0,1-10.168-1.341,1.256,1.256,0,1,0-.624,2.433A43.457,43.457,0,0,0,162.21,94.714ZM173.282,93a1.568,1.568,0,0,0,.374-.062,34.334,34.334,0,0,0,10.012-5.178,1.248,1.248,0,1,0-1.5-2,32.087,32.087,0,0,1-9.295,4.8,1.238,1.238,0,0,0-.811,1.56A1.262,1.262,0,0,0,173.282,93ZM141.5,89.63a1.272,1.272,0,0,0,1.123-.717,1.244,1.244,0,0,0-.593-1.653,58.181,58.181,0,0,1-9.2-5.365,1.251,1.251,0,1,0-1.466,2.027,61,61,0,0,0,9.607,5.614A1.461,1.461,0,0,0,141.5,89.63ZM1.237,81.49a1.205,1.205,0,0,0,.842-.343c.031-.031,3.026-2.807,8.265-7.111a1.24,1.24,0,1,0-1.591-1.9C3.482,76.5.426,79.306.395,79.338a1.271,1.271,0,0,0-.062,1.778A1.327,1.327,0,0,0,1.237,81.49Zm189.169-1.341a1.174,1.174,0,0,0,1.029-.561,32.613,32.613,0,0,0,4.585-10.324,1.237,1.237,0,1,0-2.4-.593,30.129,30.129,0,0,1-4.242,9.544,1.248,1.248,0,0,0,.343,1.715A1.063,1.063,0,0,0,190.406,80.149Zm-66.5-3.244a1.13,1.13,0,0,0,.842-.343,1.271,1.271,0,0,0,.062-1.778,48.694,48.694,0,0,1-6.3-8.546,1.257,1.257,0,1,0-2.183,1.248,51.031,51.031,0,0,0,6.643,8.983A1.2,1.2,0,0,0,123.908,76.9ZM18.08,67.485a1.269,1.269,0,0,0,.748-.249c2.869-2.215,5.8-4.4,8.733-6.488A1.251,1.251,0,0,0,26.1,58.721c-2.963,2.121-5.926,4.335-8.8,6.55a1.215,1.215,0,0,0-.218,1.747A1.27,1.27,0,0,0,18.08,67.485Zm177.473-8.109h.125A1.214,1.214,0,0,0,196.769,58a33.991,33.991,0,0,0-3.119-10.854,1.242,1.242,0,0,0-2.246,1.06,31.313,31.313,0,0,1,2.869,10.043A1.3,1.3,0,0,0,195.552,59.376Zm-82.4-1.216a1.118,1.118,0,0,0,.343-.062,1.254,1.254,0,0,0,.842-1.559A41.445,41.445,0,0,1,112.68,46.12a1.248,1.248,0,1,0-2.5.062,42.3,42.3,0,0,0,1.778,11.072A1.235,1.235,0,0,0,113.147,58.159Zm-77.289-3.4a1.125,1.125,0,0,0,.686-.218c3.025-2.027,6.113-4.024,9.17-5.895a1.246,1.246,0,0,0-1.31-2.121c-3.057,1.9-6.176,3.9-9.232,5.926a1.248,1.248,0,0,0-.343,1.716A1.2,1.2,0,0,0,35.858,54.76ZM54.447,43.282a1.538,1.538,0,0,0,.624-.156c3.213-1.809,6.425-3.556,9.575-5.146a1.249,1.249,0,1,0-1.154-2.215c-3.182,1.622-6.425,3.369-9.669,5.209a1.262,1.262,0,0,0-.468,1.715A1.343,1.343,0,0,0,54.447,43.282Zm243.689-.249a1.248,1.248,0,1,0,0-2.5,79.47,79.47,0,0,1-10.7-.811,1.244,1.244,0,0,0-.343,2.464,79.894,79.894,0,0,0,11.041.842Zm-21.552-2.994A1.264,1.264,0,0,0,277.8,39.1a1.248,1.248,0,0,0-.9-1.528c-3.337-.842-6.706-1.871-10.355-3.15a1.253,1.253,0,1,0-.811,2.371c3.712,1.279,7.142,2.308,10.542,3.181A.563.563,0,0,0,276.584,40.038Zm-90.14-.094a1.232,1.232,0,0,0,.936-2.059,50.825,50.825,0,0,0-8.39-7.361,1.255,1.255,0,1,0-1.435,2.059,48.536,48.536,0,0,1,7.985,6.987A1.249,1.249,0,0,0,186.445,39.944Zm-73.8-3.368a1.264,1.264,0,0,0,1.216-.936,36.749,36.749,0,0,1,4.055-9.7,1.252,1.252,0,1,0-2.152-1.279,39.553,39.553,0,0,0-4.3,10.355,1.247,1.247,0,0,0,.9,1.528A.693.693,0,0,0,112.649,36.576ZM73.91,33.332a.914.914,0,0,0,.5-.125Q79.462,30.915,84.421,29a1.254,1.254,0,0,0-.9-2.339C80.18,27.936,76.78,29.371,73.38,30.93a1.257,1.257,0,0,0-.624,1.653A1.241,1.241,0,0,0,73.91,33.332Zm182.026-.312a1.209,1.209,0,0,0,1.154-.78,1.239,1.239,0,0,0-.686-1.622c-3.026-1.248-6.3-2.651-10.012-4.3a1.249,1.249,0,1,0-1.029,2.277c3.712,1.653,7.018,3.057,10.074,4.335A1.413,1.413,0,0,0,255.937,33.02Zm-87.114-5.677a1.218,1.218,0,0,0,1.123-.717,1.244,1.244,0,0,0-.592-1.653,83.17,83.17,0,0,0-10.293-4.024,1.243,1.243,0,1,0-.749,2.37,83.683,83.683,0,0,1,10.012,3.93A2.033,2.033,0,0,0,168.822,27.343ZM94.278,25.472a1.562,1.562,0,0,0,.374-.062c3.525-1.123,7.018-2.09,10.449-2.9a1.248,1.248,0,0,0-.562-2.433c-3.462.842-7.049,1.84-10.6,2.963a1.238,1.238,0,0,0-.811,1.559A1.171,1.171,0,0,0,94.278,25.472Zm141.666-1.31a1.246,1.246,0,0,0,.53-2.371l-2.589-1.216c-2.433-1.123-4.866-2.277-7.33-3.369a1.249,1.249,0,1,0-1.029,2.277l7.3,3.368,2.62,1.216A1.413,1.413,0,0,0,235.944,24.162Zm-87.832-3.525a1.21,1.21,0,0,0,1.217-1.029,1.248,1.248,0,0,0-1-1.466A83.812,83.812,0,0,0,137.351,16.8a1.249,1.249,0,1,0-.125,2.5,85.19,85.19,0,0,1,10.667,1.31A.463.463,0,0,0,148.112,20.638Zm-32.594-.218h.187c3.618-.561,7.236-.936,10.729-1.123a1.249,1.249,0,1,0-.125-2.5c-.312.031-.624.031-.936.062a47.31,47.31,0,0,1,7.548-5.583,1.252,1.252,0,0,0-1.279-2.152,48.609,48.609,0,0,0-8.889,6.737,1.222,1.222,0,0,0-.343,1.185c-2.339.218-4.678.5-7.08.873a1.267,1.267,0,0,0-1.06,1.435A1.245,1.245,0,0,0,115.518,20.419Zm100.557-5.3a1.292,1.292,0,0,0,1.154-.748,1.27,1.27,0,0,0-.655-1.653c-3.649-1.591-6.987-2.932-10.137-4.148a1.254,1.254,0,1,0-.9,2.339c3.119,1.185,6.425,2.558,10.043,4.117A1.413,1.413,0,0,0,216.075,15.117Zm-20.4-7.7a1.246,1.246,0,0,0,.374-2.433c-3.681-1.154-7.236-2.09-10.667-2.838a1.26,1.26,0,0,0-.53,2.464c3.337.717,6.831,1.653,10.449,2.776C195.427,7.382,195.552,7.413,195.677,7.413ZM142.123,6.82a2.1,2.1,0,0,0,.437-.062c2.215-.811,4.585-1.528,7.018-2.152,1.091-.281,2.183-.53,3.306-.748a1.206,1.206,0,0,0,.967-1.466,1.206,1.206,0,0,0-1.466-.967c-1.122.218-2.277.5-3.4.78a63.746,63.746,0,0,0-7.267,2.246,1.263,1.263,0,0,0-.749,1.591A1.256,1.256,0,0,0,142.123,6.82Zm32.22-3.93a1.25,1.25,0,0,0,.125-2.5A83,83,0,0,0,163.4.052a1.249,1.249,0,1,0,.125,2.5,77.913,77.913,0,0,1,10.729.312A.116.116,0,0,0,174.343,2.89Z" transform="translate(0 0)" fill="#b5a8ff"/>
      </g>
      <g id="Group_2194" data-name="Group 2194" transform="matrix(0.966, -0.259, 0.259, 0.966, 1526.948, 466.256)">
        <path id="Path_10832" data-name="Path 10832" d="M0,0V21.92L81.545,2Z" transform="translate(7.468 12.569)" fill="#b5a8ff"/>
        <path id="Path_10953" data-name="Path 10953" d="M81.545,0,0,2.247,9.776,21.616Z" transform="translate(7.468 14.574)" fill="url(#linear-gradient-2)"/>
        <path id="Path_10954" data-name="Path 10954" d="M89.013,14.572,0,0,7.468,12.569Z" transform="translate(0 0)" fill="url(#linear-gradient-3)"/>
      </g>
    </g>
  </g>
</svg>
