<svg xmlns="http://www.w3.org/2000/svg" xmlns:xlink="http://www.w3.org/1999/xlink" width="1536.72" height="806.355" viewBox="0 0 1536.72 806.355">
  <defs>
    <linearGradient id="linear-gradient" x1="0.5" y1="1" x2="0.5" gradientUnits="objectBoundingBox">
      <stop offset="0" stop-color="gray" stop-opacity="0.251"/>
      <stop offset="0.54" stop-color="gray" stop-opacity="0.122"/>
      <stop offset="1" stop-color="gray" stop-opacity="0.102"/>
    </linearGradient>
    <linearGradient id="linear-gradient-2" x1="0.5" y1="1" x2="0.5" y2="-0.001" xlink:href="#linear-gradient"/>
  </defs>
  <g id="Group_2605" data-name="Group 2605" transform="translate(-258.82 -257.914)">
    <g id="undraw_contact_us_15o2" transform="translate(258.82 258.273)">
      <g id="Group_2597" data-name="Group 2597" transform="translate(596.109 55.726)" opacity="0.1">
        <ellipse id="Ellipse_726" data-name="Ellipse 726" cx="15.956" cy="20.892" rx="15.956" ry="20.892" transform="translate(60.138 431.261)" fill="#3f3d56"/>
        <path id="Path_14324" data-name="Path 14324" d="M548.646,470.655a25.239,25.239,0,0,0,3.337-12.773c0-11.54-7.151-20.892-15.97-20.892S520,446.37,520,457.91a25.244,25.244,0,0,0,3.337,12.773,26.094,26.094,0,0,0,0,25.533,26.094,26.094,0,0,0,0,25.532A25.158,25.158,0,0,0,520,534.521c0,11.525,7.151,20.892,15.956,20.892s15.97-9.366,15.97-20.892a25.154,25.154,0,0,0-3.337-12.773,26.093,26.093,0,0,0,0-25.532,26.094,26.094,0,0,0,0-25.533Z" transform="translate(-459.918 -107.887)" fill="#3f3d56"/>
        <ellipse id="Ellipse_727" data-name="Ellipse 727" cx="15.956" cy="20.892" rx="15.956" ry="20.892" transform="translate(60.138 303.599)" fill="#3f3d56"/>
        <ellipse id="Ellipse_728" data-name="Ellipse 728" cx="15.956" cy="20.892" rx="15.956" ry="20.892" transform="translate(60.138 278.066)" fill="#3f3d56"/>
        <path id="Path_14325" data-name="Path 14325" d="M493.513,326.483a74.424,74.424,0,0,1-5.945-8.749l41.923-6.884-45.344.337a76.583,76.583,0,0,1-1.4-60.571l60.838,31.562L487.5,240.926a76.458,76.458,0,1,1,126.191,85.529,76.47,76.47,0,0,1,8.721,13.937l-54.444,28.351L626,349.267a76.457,76.457,0,0,1-12.325,71.788,76.443,76.443,0,1,1-120.161,0,76.444,76.444,0,0,1,0-94.531Z" transform="translate(-477.149 -202.271)" fill="#ff9300"/>
        <path id="Path_14326" data-name="Path 14326" d="M630.037,324.893a76.092,76.092,0,0,1-16.363,47.265,76.443,76.443,0,1,1-120.161,0C483.264,359.147,630.037,316.312,630.037,324.893Z" transform="translate(-477.149 -153.416)" opacity="0.1"/>
      </g>
      <g id="Group_2598" data-name="Group 2598" transform="translate(801.618 125.596)" opacity="0.1">
        <ellipse id="Ellipse_729" data-name="Ellipse 729" cx="11.932" cy="15.606" rx="11.932" ry="15.606" transform="translate(44.937 322.006)" fill="#3f3d56"/>
        <path id="Path_14327" data-name="Path 14327" d="M677.128,452.474a18.829,18.829,0,0,0,2.482-9.534c0-8.623-5.342-15.619-11.918-15.619s-11.932,7.01-11.932,15.619a18.689,18.689,0,0,0,2.5,9.534,19.49,19.49,0,0,0,0,19.083,19.489,19.489,0,0,0,0,19.083,18.688,18.688,0,0,0-2.5,9.534c0,8.623,5.342,15.619,11.932,15.619s11.918-7.01,11.918-15.619a18.829,18.829,0,0,0-2.482-9.534,19.629,19.629,0,0,0,0-19.083,19.629,19.629,0,0,0,0-19.083Z" transform="translate(-610.837 -181.646)" fill="#3f3d56"/>
        <ellipse id="Ellipse_730" data-name="Ellipse 730" cx="11.932" cy="15.606" rx="11.932" ry="15.606" transform="translate(44.937 226.606)" fill="#3f3d56"/>
        <ellipse id="Ellipse_731" data-name="Ellipse 731" cx="11.932" cy="15.606" rx="11.932" ry="15.606" transform="translate(44.937 207.523)" fill="#3f3d56"/>
        <path id="Path_14328" data-name="Path 14328" d="M635.946,344.653a54.692,54.692,0,0,1-4.445-6.534l31.337-5.146-33.889.252a57.26,57.26,0,0,1-1.094-45.274l45.471,23.6L631.389,280.7a57.136,57.136,0,1,1,94.348,63.937,57.766,57.766,0,0,1,6.52,10.418L691.6,376.186l43.368-14.554a57.15,57.15,0,0,1-9.212,53.645,57.122,57.122,0,1,1-89.736,0,57.122,57.122,0,0,1,0-70.639Z" transform="translate(-623.72 -252.103)" fill="#ff9300"/>
        <path id="Path_14329" data-name="Path 14329" d="M737.956,343.541a56.882,56.882,0,0,1-12.226,35.319,57.122,57.122,0,1,1-89.735,0C628.311,369.144,737.956,337.133,737.956,343.541Z" transform="translate(-623.713 -215.672)" opacity="0.1"/>
      </g>
      <g id="Group_2599" data-name="Group 2599" transform="translate(1379.039 -0.359)" opacity="0.1">
        <ellipse id="Ellipse_732" data-name="Ellipse 732" cx="15.956" cy="20.892" rx="15.956" ry="20.892" transform="translate(61.215 431.261)" fill="#3f3d56"/>
        <path id="Path_14330" data-name="Path 14330" d="M1082.527,430.655a25.238,25.238,0,0,1-3.337-12.773c0-11.539,7.151-20.892,15.97-20.892s15.956,9.352,15.956,20.892a25.235,25.235,0,0,1-3.337,12.773,26.091,26.091,0,0,1,0,25.533,26.091,26.091,0,0,1,0,25.533,25.151,25.151,0,0,1,3.337,12.773c0,11.525-7.151,20.892-15.956,20.892s-15.97-9.366-15.97-20.892a25.151,25.151,0,0,1,3.337-12.773,26.092,26.092,0,0,1,0-25.533A26.092,26.092,0,0,1,1082.527,430.655Z" transform="translate(-1017.99 -67.887)" fill="#3f3d56"/>
        <ellipse id="Ellipse_733" data-name="Ellipse 733" cx="15.956" cy="20.892" rx="15.956" ry="20.892" transform="translate(61.215 303.599)" fill="#3f3d56"/>
        <ellipse id="Ellipse_734" data-name="Ellipse 734" cx="15.956" cy="20.892" rx="15.956" ry="20.892" transform="translate(61.215 278.066)" fill="#3f3d56"/>
        <path id="Path_14331" data-name="Path 14331" d="M1172.442,286.483a74.412,74.412,0,0,0,5.945-8.749l-41.924-6.884,45.344.337a76.582,76.582,0,0,0,1.4-60.571l-60.838,31.562,56.085-41.25a76.457,76.457,0,1,0-126.19,85.529,76.471,76.471,0,0,0-8.721,13.937l54.444,28.351-58.034-19.475a76.457,76.457,0,0,0,12.325,71.788,76.443,76.443,0,1,0,120.161,0,76.443,76.443,0,0,0,0-94.531Z" transform="translate(-1035.541 -162.271)" fill="#ff9300"/>
        <path id="Path_14332" data-name="Path 14332" d="M1035.81,284.893a76.1,76.1,0,0,0,16.363,47.265,76.443,76.443,0,1,0,120.162,0C1182.584,319.147,1035.81,276.312,1035.81,284.893Z" transform="translate(-1035.433 -113.416)" opacity="0.1"/>
      </g>
      <g id="Group_2600" data-name="Group 2600" transform="translate(1244.738 117.183)" opacity="0.1">
        <ellipse id="Ellipse_735" data-name="Ellipse 735" cx="11.932" cy="15.606" rx="11.932" ry="15.606" transform="translate(45.504 322.006)" fill="#3f3d56"/>
        <path id="Path_14333" data-name="Path 14333" d="M974.712,446.474a18.833,18.833,0,0,1-2.482-9.534c0-8.623,5.342-15.62,11.918-15.62s11.932,7.011,11.932,15.62a18.689,18.689,0,0,1-2.5,9.534,19.489,19.489,0,0,1,0,19.083,19.489,19.489,0,0,1,0,19.083,18.69,18.69,0,0,1,2.5,9.534c0,8.623-5.342,15.62-11.932,15.62s-11.918-7.011-11.918-15.62a18.833,18.833,0,0,1,2.482-9.534,19.63,19.63,0,0,1,0-19.083,19.63,19.63,0,0,1,0-19.083Z" transform="translate(-926.699 -175.645)" fill="#3f3d56"/>
        <ellipse id="Ellipse_736" data-name="Ellipse 736" cx="11.932" cy="15.606" rx="11.932" ry="15.606" transform="translate(45.504 226.606)" fill="#3f3d56"/>
        <ellipse id="Ellipse_737" data-name="Ellipse 737" cx="11.932" cy="15.606" rx="11.932" ry="15.606" transform="translate(45.504 207.523)" fill="#3f3d56"/>
        <path id="Path_14334" data-name="Path 14334" d="M1041.835,338.652a54.635,54.635,0,0,0,4.445-6.534l-31.337-5.146,33.889.252a57.261,57.261,0,0,0,1.094-45.274l-45.471,23.6,41.937-30.847a57.136,57.136,0,1,0-94.349,63.937,57.755,57.755,0,0,0-6.52,10.418l40.661,21.13L942.9,355.646a57.151,57.151,0,0,0,9.212,53.645,57.122,57.122,0,1,0,89.736,0,57.122,57.122,0,0,0,0-70.639Z" transform="translate(-939.757 -246.103)" fill="#ff9300"/>
        <path id="Path_14335" data-name="Path 14335" d="M939.808,337.541a56.884,56.884,0,0,0,12.227,35.319,57.122,57.122,0,1,0,89.735,0C1049.454,363.144,939.808,331.133,939.808,337.541Z" transform="translate(-939.747 -209.672)" opacity="0.1"/>
      </g>
      <g id="Group_2601" data-name="Group 2601" transform="translate(10.248 -0.124)" opacity="0.1">
        <ellipse id="Ellipse_738" data-name="Ellipse 738" cx="15.956" cy="20.892" rx="15.956" ry="20.892" transform="translate(60.152 431.026)" fill="#3f3d56"/>
        <path id="Path_14336" data-name="Path 14336" d="M130.786,430.655a25.238,25.238,0,0,0,3.337-12.773c0-11.54-7.151-20.892-15.956-20.892s-15.956,9.352-15.956,20.892a25.237,25.237,0,0,0,3.323,12.773,26.178,26.178,0,0,0,0,25.533,26.178,26.178,0,0,0,0,25.533,25.139,25.139,0,0,0-3.323,12.773c0,11.525,7.137,20.892,15.956,20.892s16-9.338,16-20.864a25.153,25.153,0,0,0-3.337-12.773,26.093,26.093,0,0,0,0-25.533,26.093,26.093,0,0,0,0-25.533Z" transform="translate(-42.058 -68.122)" fill="#3f3d56"/>
        <ellipse id="Ellipse_739" data-name="Ellipse 739" cx="15.956" cy="20.892" rx="15.956" ry="20.892" transform="translate(60.152 303.364)" fill="#3f3d56"/>
        <ellipse id="Ellipse_740" data-name="Ellipse 740" cx="15.956" cy="20.892" rx="15.956" ry="20.892" transform="translate(60.152 277.831)" fill="#3f3d56"/>
        <path id="Path_14337" data-name="Path 14337" d="M75.7,286.416a76.172,76.172,0,0,1-5.945-8.749l41.937-6.884-45.387.407a76.584,76.584,0,0,1-1.4-60.572l60.852,31.562-56.085-41.25a76.443,76.443,0,1,1,126.19,85.529,76.471,76.471,0,0,1,8.721,13.937l-54.458,28.281L208.173,309.2a76.542,76.542,0,0,1-12.339,71.788,76.443,76.443,0,1,1-120.161,0,76.443,76.443,0,0,1,0-94.531Z" transform="translate(-59.309 -162.439)" fill="#ff9300"/>
        <path id="Path_14338" data-name="Path 14338" d="M212.2,284.893a76.092,76.092,0,0,1-16.363,47.265,76.443,76.443,0,1,1-120.161,0C65.424,319.147,212.2,276.312,212.2,284.893Z" transform="translate(-59.309 -113.651)" opacity="0.1"/>
      </g>
      <g id="Group_2602" data-name="Group 2602" transform="translate(183.509 117.183)" opacity="0.1">
        <ellipse id="Ellipse_741" data-name="Ellipse 741" cx="11.932" cy="15.606" rx="11.932" ry="15.606" transform="translate(44.937 322.006)" fill="#3f3d56"/>
        <path id="Path_14339" data-name="Path 14339" d="M236.3,446.474a18.83,18.83,0,0,0,2.482-9.534c0-8.623-5.328-15.62-11.918-15.62s-11.932,7.011-11.932,15.62a18.83,18.83,0,0,0,2.5,9.534,19.489,19.489,0,0,0,0,19.083,19.489,19.489,0,0,0,0,19.083,18.831,18.831,0,0,0-2.5,9.534c0,8.623,5.342,15.619,11.932,15.619s11.918-7.011,11.918-15.62a18.83,18.83,0,0,0-2.482-9.534,19.63,19.63,0,0,0,0-19.083,19.63,19.63,0,0,0,0-19.083Z" transform="translate(-169.993 -175.645)" fill="#3f3d56"/>
        <ellipse id="Ellipse_742" data-name="Ellipse 742" cx="11.932" cy="15.606" rx="11.932" ry="15.606" transform="translate(44.937 226.606)" fill="#3f3d56"/>
        <ellipse id="Ellipse_743" data-name="Ellipse 743" cx="11.932" cy="15.606" rx="11.932" ry="15.606" transform="translate(44.937 207.523)" fill="#3f3d56"/>
        <path id="Path_14340" data-name="Path 14340" d="M195.106,338.652a56.374,56.374,0,0,1-4.445-6.534L222,326.973l-33.889.252a57.262,57.262,0,0,1-1.094-45.274l45.471,23.6L190.549,274.7A57.136,57.136,0,1,1,284.9,338.638a56.263,56.263,0,0,1,6.52,10.418l-40.661,21.13,43.367-14.554a57.15,57.15,0,0,1-9.212,53.645,57.122,57.122,0,1,1-89.735,0,57.122,57.122,0,0,1,0-70.639Z" transform="translate(-182.88 -246.103)" fill="#ff9300"/>
        <path id="Path_14341" data-name="Path 14341" d="M297.117,337.541a56.884,56.884,0,0,1-12.226,35.319,57.122,57.122,0,1,1-89.735,0C187.443,363.144,297.117,331.133,297.117,337.541Z" transform="translate(-182.873 -209.672)" opacity="0.1"/>
      </g>
      <ellipse id="Ellipse_744" data-name="Ellipse 744" cx="768.36" cy="12.423" rx="768.36" ry="12.423" transform="translate(0 679.147)" fill="#ff9300" opacity="0.1"/>
      <ellipse id="Ellipse_745" data-name="Ellipse 745" cx="768.36" cy="12.423" rx="768.36" ry="12.423" transform="translate(0 781.151)" fill="#ff9300" opacity="0.1"/>
      <ellipse id="Ellipse_746" data-name="Ellipse 746" cx="768.36" cy="12.423" rx="768.36" ry="12.423" transform="translate(0 466.264)" fill="#ff9300" opacity="0.1"/>
      <ellipse id="Ellipse_747" data-name="Ellipse 747" cx="768.36" cy="12.423" rx="768.36" ry="12.423" transform="translate(0 572.699)" fill="#ff9300" opacity="0.1"/>
      <path id="Path_14342" data-name="Path 14342" d="M882.838,282.8a25.659,25.659,0,0,0-14.862,1.626,21.944,21.944,0,0,1-17.863,0,25.07,25.07,0,0,0-21.031.406,12.955,12.955,0,0,1-6.043,1.514c-8.525,0-15.605-8.581-17.077-19.9a16.65,16.65,0,0,0,4.206-4.585c4.992-8.048,12.717-13.222,21.411-13.222s16.321,5.1,21.312,13.068a16.376,16.376,0,0,0,14.147,7.768h.224C874.117,269.405,879.992,274.846,882.838,282.8Z" transform="translate(251.18 -127.9)" fill="#ff9300" opacity="0.1"/>
      <path id="Path_14343" data-name="Path 14343" d="M908.8,256.332l-13.769,8.721,8.413-15.2a13.6,13.6,0,0,0-8.329-2.958h-.224a15.915,15.915,0,0,1-2.8-.21l-4.739,2.958L889.352,246a16.53,16.53,0,0,1-8.175-6.2l-8.413,5.3,5.272-9.59c-4.879-5.861-11.469-9.45-18.7-9.45-8.693,0-16.419,5.16-21.425,13.208a16,16,0,0,1-14.147,7.628H823.3c-9.591,0-17.358,10.866-17.358,24.271s7.768,24.285,17.358,24.285a13.166,13.166,0,0,0,6.043-1.514,25.042,25.042,0,0,1,21.032-.421,21.8,21.8,0,0,0,17.863,0,25.126,25.126,0,0,1,20.835.407,13.038,13.038,0,0,0,5.973,1.486c9.591,0,17.358-10.88,17.358-24.285A30.748,30.748,0,0,0,908.8,256.332Z" transform="translate(251.172 -136.979)" fill="#ff9300" opacity="0.1"/>
      <path id="Path_14344" data-name="Path 14344" d="M458.685,274.446a18,18,0,0,0-10.418,1.136,15.311,15.311,0,0,1-12.493,0,17.5,17.5,0,0,0-14.708.294,9.281,9.281,0,0,1-4.206,1.052c-5.959,0-10.922-6-11.96-13.923a11.664,11.664,0,0,0,2.987-3.211c3.491-5.608,8.9-9.254,14.989-9.254s11.427,3.575,14.918,9.142a11.484,11.484,0,0,0,9.913,5.44h.154C452.572,265.094,456.68,268.908,458.685,274.446Z" transform="translate(89.907 -127.136)" fill="#ff9300" opacity="0.1"/>
      <path id="Path_14345" data-name="Path 14345" d="M476.851,255.94l-9.633,6.113,5.847-10.642a9.465,9.465,0,0,0-5.819-2.075h-.168a10.5,10.5,0,0,1-1.991-.154l-3.267,2.075,1.4-2.552a11.639,11.639,0,0,1-5.721-4.333l-5.847,3.7,3.7-6.7a17.12,17.12,0,0,0-13.1-6.632c-6.085,0-11.5,3.618-14.989,9.254a11.217,11.217,0,0,1-9.913,5.342h-.322c-6.716,0-12.156,7.6-12.156,16.994s5.44,16.994,12.156,16.994a9.113,9.113,0,0,0,4.206-1.066,17.526,17.526,0,0,1,14.694-.28,15.06,15.06,0,0,0,12.507.084,17.582,17.582,0,0,1,14.582.28,9.085,9.085,0,0,0,4.206,1.038c6.7,0,12.142-7.613,12.142-16.994a21.5,21.5,0,0,0-2.524-10.446Z" transform="translate(89.899 -133.489)" fill="#ff9300" opacity="0.1"/>
      <path id="Path_14346" data-name="Path 14346" d="M321.59,352.856a17.976,17.976,0,0,1,10.4,1.136,15.339,15.339,0,0,0,12.507,0,17.554,17.554,0,0,1,14.708.28,9.071,9.071,0,0,0,4.206,1.066c5.959,0,10.922-6.015,11.946-13.937a11.428,11.428,0,0,1-2.972-3.211c-3.505-5.608-8.917-9.24-14.989-9.24s-11.427,3.561-14.932,9.142a11.484,11.484,0,0,1-9.9,5.44h-.154C327.689,343.56,323.567,347.36,321.59,352.856Z" transform="translate(56.407 -95.606)" fill="#ff9300" opacity="0.1"/>
      <path id="Path_14347" data-name="Path 14347" d="M309.343,334.376l9.647,6.113-5.861-10.628a9.519,9.519,0,0,1,5.833-2.089h.154a11.947,11.947,0,0,0,2-.14l3.267,2.061-1.4-2.538a11.624,11.624,0,0,0,5.707-4.333l5.847,3.7-3.646-6.716a17.106,17.106,0,0,1,13.1-6.618c6.071,0,11.5,3.618,14.989,9.254a11.216,11.216,0,0,0,9.9,5.342h.336c6.7,0,12.142,7.613,12.142,16.994s-5.44,16.994-12.142,16.994a9.1,9.1,0,0,1-4.206-1.052,17.5,17.5,0,0,0-14.708-.294,15.229,15.229,0,0,1-6.281,1.4,15.424,15.424,0,0,1-6.225-1.318,17.555,17.555,0,0,0-14.568.28,9.087,9.087,0,0,1-4.206,1.038c-6.716,0-12.156-7.6-12.156-16.994a21.649,21.649,0,0,1,2.482-10.46Z" transform="translate(50.482 -101.943)" fill="#ff9300" opacity="0.1"/>
      <path id="Path_14348" data-name="Path 14348" d="M720.822,695.707c3.66-6.786-.491-15.087-5.258-21.13s-10.6-12.339-10.474-20.036c.182-11.063,11.932-17.611,21.312-23.471a104.164,104.164,0,0,0,19.139-15.423,28.226,28.226,0,0,0,5.875-7.88c1.949-4.319,1.893-9.254,1.767-14.021q-.6-23.682-2.342-47.335" transform="translate(210.618 -8.161)" fill="none" stroke="#3f3d56" stroke-miterlimit="10" stroke-width="4"/>
      <path id="Path_14349" data-name="Path 14349" d="M760.345,550.572a17.26,17.26,0,0,0-8.623-14.147l-3.87,7.642.126-9.254a17.26,17.26,0,1,0,12.367,15.76Z" transform="translate(218.963 -13.108)" fill="#ff9300"/>
      <path id="Path_14350" data-name="Path 14350" d="M737.842,636.342a17.26,17.26,0,0,1-32.585-7.01,16.824,16.824,0,0,1,1.121-7.011,17.274,17.274,0,0,1,32.249.182l-10.782,8.777,11.862-2.8A17.163,17.163,0,0,1,737.842,636.342Z" transform="translate(210.676 17.946)" fill="#ff9300"/>
      <path id="Path_14351" data-name="Path 14351" d="M727.593,615.168a17.26,17.26,0,0,1-5.468-33.861l-.1,7.109,3.912-7.74h0a17.265,17.265,0,1,1,1.613,34.492Z" transform="translate(212.399 5.61)" fill="#ff9300"/>
      <path id="Path_14352" data-name="Path 14352" d="M757.506,595.273a17.26,17.26,0,1,1,7.628-32.248l-3.043,8.413L768.3,565.3A17.26,17.26,0,0,1,757.45,595.26Z" transform="translate(224.396 -2.385)" fill="#ff9300"/>
      <path id="Path_14353" data-name="Path 14353" d="M758.025,552.455c-3.982.435-7.852,1.669-11.862,1.921s-8.413-.715-10.909-3.814a55.285,55.285,0,0,1-3.2-5.608,12.287,12.287,0,0,0-4.347-4.094,17.26,17.26,0,1,0,32.248,11.469C759.329,552.343,758.67,552.385,758.025,552.455Z" transform="translate(218.956 -10.393)" opacity="0.1"/>
      <path id="Path_14354" data-name="Path 14354" d="M757.484,592.441a17.26,17.26,0,0,1-16.419-24.621,12.779,12.779,0,0,1,3.463,3.477A58.506,58.506,0,0,0,747.95,577c2.692,3.155,7.291,4.207,11.456,4s8.188-1.4,12.338-1.753c.575,0,1.15-.084,1.738-.1A17.26,17.26,0,0,1,757.484,592.441Z" transform="translate(224.418 0.448)" opacity="0.1"/>
      <path id="Path_14355" data-name="Path 14355" d="M727.592,612.239a17.26,17.26,0,0,1-16.559-24.3,14.017,14.017,0,0,1,3.659,3.505,57.892,57.892,0,0,0,3.744,5.819c2.9,3.239,7.81,4.389,12.213,4.206s8.413-1.136,12.619-1.4A17.288,17.288,0,0,1,727.592,612.239Z" transform="translate(212.401 8.538)" opacity="0.1"/>
      <path id="Path_14356" data-name="Path 14356" d="M737.842,633.191a17.26,17.26,0,0,1-32.585-7.011,16.824,16.824,0,0,1,1.121-7.011,17.234,17.234,0,0,1,3.786,3.379c1.64,1.991,2.72,4.206,4.627,6.127,3.519,3.463,9.226,4.894,14.288,5.02a72.529,72.529,0,0,0,8.763-.505Z" transform="translate(210.676 21.097)" opacity="0.1"/>
      <path id="Path_14357" data-name="Path 14357" d="M110.822,623.707c3.66-6.786-.491-15.087-5.258-21.13s-10.6-12.366-10.474-20.036c.182-11.063,11.932-17.611,21.312-23.471a104.18,104.18,0,0,0,19.139-15.423,28.23,28.23,0,0,0,5.875-7.88c1.949-4.318,1.893-9.254,1.767-14.021q-.617-23.682-2.342-47.335" transform="translate(-34.673 -37.114)" fill="none" stroke="#3f3d56" stroke-miterlimit="10" stroke-width="4"/>
      <path id="Path_14358" data-name="Path 14358" d="M150.345,478.572a17.26,17.26,0,0,0-8.623-14.147l-3.87,7.641.126-9.254a17.26,17.26,0,1,0,12.367,15.76Z" transform="translate(-26.328 -42.061)" fill="#ff9300"/>
      <path id="Path_14359" data-name="Path 14359" d="M127.842,564.342a17.26,17.26,0,0,1-32.585-7.01,16.826,16.826,0,0,1,1.122-7.011,17.274,17.274,0,0,1,32.249.182l-10.782,8.777,11.862-2.8A17.161,17.161,0,0,1,127.842,564.342Z" transform="translate(-34.615 -11.007)" fill="#ff9300"/>
      <path id="Path_14360" data-name="Path 14360" d="M117.593,543.168a17.26,17.26,0,0,1-5.468-33.861l-.1,7.108,3.912-7.74h0a17.265,17.265,0,1,1,1.612,34.492Z" transform="translate(-32.892 -23.343)" fill="#ff9300"/>
      <path id="Path_14361" data-name="Path 14361" d="M147.506,523.274a17.26,17.26,0,1,1,7.628-32.249l-3.043,8.413L158.3,493.3A17.26,17.26,0,0,1,147.45,523.26Z" transform="translate(-20.895 -31.337)" fill="#ff9300"/>
      <path id="Path_14362" data-name="Path 14362" d="M148.025,480.456c-3.982.435-7.852,1.669-11.862,1.921s-8.413-.715-10.908-3.814a55.369,55.369,0,0,1-3.2-5.609,12.282,12.282,0,0,0-4.347-4.094,17.26,17.26,0,1,0,32.249,11.469C149.329,480.343,148.67,480.385,148.025,480.456Z" transform="translate(-26.335 -39.346)" opacity="0.1"/>
      <path id="Path_14363" data-name="Path 14363" d="M147.484,520.441a17.26,17.26,0,0,1-16.419-24.621,12.775,12.775,0,0,1,3.463,3.477A58.5,58.5,0,0,0,137.95,505c2.692,3.155,7.291,4.206,11.455,4s8.188-1.4,12.339-1.753c.575,0,1.15-.084,1.739-.1A17.26,17.26,0,0,1,147.484,520.441Z" transform="translate(-20.873 -28.505)" opacity="0.1"/>
      <path id="Path_14364" data-name="Path 14364" d="M117.592,540.239a17.26,17.26,0,0,1-16.559-24.3,14.025,14.025,0,0,1,3.66,3.505,57.769,57.769,0,0,0,3.744,5.819c2.9,3.239,7.81,4.389,12.212,4.206s8.413-1.136,12.619-1.4A17.288,17.288,0,0,1,117.592,540.239Z" transform="translate(-32.89 -20.414)" opacity="0.1"/>
      <path id="Path_14365" data-name="Path 14365" d="M127.842,561.191a17.26,17.26,0,0,1-32.585-7.011,16.824,16.824,0,0,1,1.122-7.01,17.219,17.219,0,0,1,3.786,3.379c1.64,1.991,2.72,4.206,4.627,6.127,3.519,3.463,9.226,4.894,14.288,5.02A72.5,72.5,0,0,0,127.842,561.191Z" transform="translate(-34.615 -7.856)" opacity="0.1"/>
      <path id="Path_14366" data-name="Path 14366" d="M521.814,541.329c-3.659-6.772.491-15.073,5.272-21.116s10.586-12.339,10.46-20.036c-.168-11.077-11.918-17.611-21.312-23.472a103.75,103.75,0,0,1-19.125-15.423,27.736,27.736,0,0,1-5.889-7.866c-1.935-4.332-1.879-9.254-1.767-14.021q.631-23.682,2.342-47.336" transform="translate(123.889 -70.228)" fill="none" stroke="#3f3d56" stroke-miterlimit="10" stroke-width="4"/>
      <path id="Path_14367" data-name="Path 14367" d="M478.4,396.211A17.246,17.246,0,0,1,487,382.064l3.87,7.642-.112-9.254a17.694,17.694,0,0,1,5.679-.687A17.26,17.26,0,1,1,478.4,396.211Z" transform="translate(119.453 -75.179)" fill="#ff9300"/>
      <path id="Path_14368" data-name="Path 14368" d="M500.887,482.022a17.26,17.26,0,1,0-.827-13.895l10.782,8.777-11.862-2.8A17.162,17.162,0,0,0,500.887,482.022Z" transform="translate(127.738 -44.165)" fill="#ff9300"/>
      <path id="Path_14369" data-name="Path 14369" d="M511.139,460.808a17.26,17.26,0,0,0,5.482-33.861l.084,7.109-3.912-7.74h0a17.26,17.26,0,0,0-18.087,16.391,17.052,17.052,0,0,0,.743,5.889,17.246,17.246,0,0,0,15.69,12.212Z" transform="translate(126.011 -56.462)" fill="#ff9300"/>
      <path id="Path_14370" data-name="Path 14370" d="M481.271,440.894a17.26,17.26,0,1,0-7.642-32.249l3.057,8.413-6.282-6.015a17.12,17.12,0,0,0-5.608,11.918,16.71,16.71,0,0,0,.435,4.753,17.246,17.246,0,0,0,16.04,13.18Z" transform="translate(113.983 -64.464)" fill="#ff9300"/>
      <path id="Path_14371" data-name="Path 14371" d="M480.6,398.1c3.982.435,7.852,1.668,11.848,1.921s8.413-.715,10.923-3.814a55.208,55.208,0,0,0,3.183-5.609,12.328,12.328,0,0,1,4.361-4.094,17.26,17.26,0,1,1-32.249,11.456C479.3,397.969,479.946,398.025,480.6,398.1Z" transform="translate(119.571 -72.464)" opacity="0.1"/>
      <path id="Path_14372" data-name="Path 14372" d="M481.128,438.061a17.274,17.274,0,0,0,16.419-24.621,12.831,12.831,0,0,0-3.477,3.477,58.491,58.491,0,0,1-3.421,5.706c-2.678,3.155-7.277,4.206-11.441,4s-8.188-1.4-12.339-1.753c-.575,0-1.164-.084-1.739-.1A17.246,17.246,0,0,0,481.128,438.061Z" transform="translate(114.126 -61.631)" opacity="0.1"/>
      <path id="Path_14373" data-name="Path 14373" d="M510.916,457.879a17.246,17.246,0,0,0,16.559-24.3,13.784,13.784,0,0,0-3.645,3.505,57.811,57.811,0,0,1-3.744,5.819c-2.916,3.239-7.81,4.389-12.227,4.206s-8.413-1.136-12.619-1.4a17.246,17.246,0,0,0,15.675,12.17Z" transform="translate(126.234 -53.532)" opacity="0.1"/>
      <path id="Path_14374" data-name="Path 14374" d="M500.34,478.831a17.26,17.26,0,0,0,31.477-14.021,16.578,16.578,0,0,0-3.786,3.379c-1.64,1.991-2.8,4.206-4.627,6.127-3.533,3.463-9.226,4.893-14.3,5.02A75.619,75.619,0,0,1,500.34,478.831Z" transform="translate(128.285 -40.974)" opacity="0.1"/>
      <circle id="Ellipse_748" data-name="Ellipse 748" cx="140.156" cy="140.156" r="140.156" transform="translate(953.117 193.945)" fill="#3f3d56"/>
      <path id="Path_14375" data-name="Path 14375" d="M910.215,455.278c-4.879-4.879-16.615-12.24-22.434-14.989-6.716-3.225-9.184-3.169-13.937.266-3.954,2.8-6.52,5.51-11.063,4.515s-13.544-7.782-22.251-16.461-15.465-17.625-16.433-22.238,1.7-7.123,4.529-11.077c3.421-4.753,3.519-7.221.266-13.937-2.8-5.819-10.081-17.526-15-22.434s-5.987-3.828-8.679-2.8a50.17,50.17,0,0,0-7.95,4.206c-4.879,3.267-7.614,5.987-9.535,10.081S783.632,382.1,794.807,402a176.241,176.241,0,0,0,30.987,41.32h0a176.493,176.493,0,0,0,41.461,31.043c19.882,11.217,27.5,8.988,31.59,7.081s6.814-4.613,10.067-9.534a49.538,49.538,0,0,0,4.206-7.95C914.043,461.265,915.137,460.171,910.215,455.278Z" transform="translate(243.222 -85.031)" fill="#eeb609"/>
      <path id="Path_14376" data-name="Path 14376" d="M871.962,300.86A140.212,140.212,0,1,0,1012.1,441.025,140.212,140.212,0,0,0,871.962,300.86Zm0,261.663A121.521,121.521,0,1,1,993.483,441,121.521,121.521,0,0,1,871.962,562.523Z" transform="translate(221.311 -106.901)" opacity="0.1"/>
      <circle id="Ellipse_749" data-name="Ellipse 749" cx="140.156" cy="140.156" r="140.156" transform="translate(631.121 406.828)" fill="#3f3d56"/>
      <path id="Path_14377" data-name="Path 14377" d="M705.049,522.525,663.084,565.22a.757.757,0,0,0,0,1.093l29.444,31.31a5.066,5.066,0,1,1-7.165,7.165l-29.29-31.2a.8.8,0,0,0-1.122,0l-7.137,7.207a31.364,31.364,0,0,1-22.434,9.436,32.051,32.051,0,0,1-22.826-9.7L595.7,573.52a.8.8,0,0,0-1.122,0l-29.22,31.127a5.066,5.066,0,1,1-7.165-7.165l29.332-31.239a.84.84,0,0,0,0-1.093l-41.966-42.695a.771.771,0,0,0-1.318.547v85.431A12.507,12.507,0,0,0,556.7,620.9H693.93a12.507,12.507,0,0,0,12.464-12.465v-85.36a.771.771,0,0,0-1.346-.547Z" transform="translate(145.938 -17.886)" fill="#dba514"/>
      <path id="Path_14378" data-name="Path 14378" d="M623.967,583.956a21.228,21.228,0,0,0,15.311-6.309L700.4,515.434a12.2,12.2,0,0,0-7.712-2.8H555.362a12.115,12.115,0,0,0-7.712,2.8l61.132,62.212A21.144,21.144,0,0,0,623.967,583.956Z" transform="translate(147.309 -21.745)" fill="#dba514"/>
      <path id="Path_14379" data-name="Path 14379" d="M641.052,452.69A140.212,140.212,0,1,0,781.193,592.855,140.212,140.212,0,0,0,641.052,452.69Zm0,261.663A121.521,121.521,0,1,1,762.573,592.832,121.522,121.522,0,0,1,641.052,714.353Z" transform="translate(128.458 -45.848)" opacity="0.1"/>
      <circle id="Ellipse_750" data-name="Ellipse 750" cx="140.156" cy="140.156" r="140.156" transform="translate(298.497 302.16)" fill="#3f3d56"/>
      <path id="Path_14380" data-name="Path 14380" d="M380.874,430.16,325,559.07l5.216,5.216,50.672-22.35,50.673,22.35,5.216-5.216Z" transform="translate(57.778 -54.908)" fill="#eeb609"/>
      <path id="Path_14381" data-name="Path 14381" d="M405.082,378a140.13,140.13,0,1,0,.023,0Zm0,261.663a99.921,99.921,0,1,1,.014.056Z" transform="translate(33.57 -75.882)" opacity="0.1"/>
      <path id="Path_14382" data-name="Path 14382" d="M860.125,621.34q-1.907-4.655-3.912-9.282a27.545,27.545,0,0,0-4.781-8.258,8.747,8.747,0,0,0-2.8-2.1,11.945,11.945,0,0,0-3.659-.729,29.211,29.211,0,0,0-5.749-.154c-.743-.224-1.584-.519-2.412-.855a20.022,20.022,0,0,0,14.919-18.578c0-.281,0-.575,0-.855a19.98,19.98,0,0,0-19.9-20.064,19.629,19.629,0,0,0-10.446,2.987,18.746,18.746,0,0,0-21.032,10.137A23.179,23.179,0,0,0,793.2,590.83v.883c.365,10.895,7.4,19.63,16.293,20.513a9.343,9.343,0,0,0-2.58,1.724c-2.72,2.622-3.169,6.786-3.463,10.572l-.21,2.8-4.711,1.683a.869.869,0,0,0-.21,1.528l4.5,3.211v.8a3.506,3.506,0,0,0,.084.911,6.435,6.435,0,0,0-1.739,2.482,11.465,11.465,0,0,0-.406,4.543l.168,3.912a30.711,30.711,0,0,0,1.192,8.707c.589,1.739,3.141,5.931,4.978,5.959-1.7,7.712-2.146,23.976-2.146,23.976-.21.21.379.407,1.4.575,1.009,7.74,4.3,29.445,10.151,38.993a82.2,82.2,0,0,1,2.2,9.479s1.669,20.625,3.87,26.752c1.879,5.216,3.365,18.087,3.772,21.817a2.145,2.145,0,0,0-1.556,1.6c-1.108,3.337-8.286,8.413-8.286,8.413a34.715,34.715,0,0,0-6.2,3.968c-2.258,2.033-2.173,3.87,7.852,2.72,19.349-2.23,22.658-8.413,22.658-8.413s-.308-1.038-.771-2.384a25.9,25.9,0,0,0-2.538-5.987c-.281-.266-.561.182-.9.884a120.053,120.053,0,0,1-1.318-27.075s.547-9.478-2.215-16.167a30.616,30.616,0,0,1,0-10.586c1.108-4.459-4.417-26.206-4.417-26.206l-3.169-16.012a4.6,4.6,0,0,1,.883,1.865l.084.322.084.463a.871.871,0,0,0,.224.435c2.159,8.974,8.076,33.833,8.076,37.479,0,4.459,5.524,15.606,5.524,15.606s2.2,18.4,6.071,25.631c2.944,5.51,3.014,13.586,2.874,17.148h0s-.659,4.585-1.767,5.693a13.545,13.545,0,0,0-2.089,3.632l-.126.266s-1.655,3.351-.547,3.912a27.162,27.162,0,0,0,13.264,1.669s2.215-2.8,2.215-3.9a17.589,17.589,0,0,0-.252-1.991c-.407-2.636-1.164-6.786-1.178-6.828.463-1.8-1.4-6.787-1.4-6.787l-.561-15.605A72.043,72.043,0,0,0,853,735.192s-2.8-10.025-2.2-12.815-1.108-32.333-1.108-32.333l-.168-.42a31.951,31.951,0,0,1,.168-6.268c.547-6.688-1.654-20.625-2.215-21.172a18.375,18.375,0,0,1-.785-4.613c.126-1.164.5-4.571,1.023-8.805a158.284,158.284,0,0,0,16.293-1.4,2.033,2.033,0,0,0,1.4-.561,1.961,1.961,0,0,0,.322-1.136C866.378,637.268,863.307,629.108,860.125,621.34Zm-11.119,17.681c.575-4,1.192-7.866,1.809-10.74l.084.252a77.969,77.969,0,0,1,2.664,8.833A30.042,30.042,0,0,1,849.006,639.021Z" transform="translate(246.047 -2.512)" fill="url(#linear-gradient)"/>
      <path id="Path_14383" data-name="Path 14383" d="M802.37,648.994s3.309,29.766,10.474,41.334a80.258,80.258,0,0,1,2.2,9.366s1.654,20.387,3.856,26.444,3.856,22.6,3.856,22.6,7.712,8.805,10.474,1.655a116.108,116.108,0,0,1-1.655-28.66s.547-9.366-2.2-15.984a29.882,29.882,0,0,1,0-10.46c1.094-4.417-4.417-25.9-4.417-25.9l-4.4-21.494Z" transform="translate(249.736 32.649)" fill="#be6f72"/>
      <path id="Path_14384" data-name="Path 14384" d="M836.2,727.326s-3.309,6.057-22.588,8.259c-10.011,1.135-10.081-.673-7.824-2.692a34.912,34.912,0,0,1,6.169-3.926s7.165-4.95,8.258-8.258,4.963-.547,4.963-.547c5.51,8.258,6.618-2.215,7.712-1.108a24.858,24.858,0,0,1,2.538,5.9C835.888,726.289,836.2,727.326,836.2,727.326Z" transform="translate(250.626 61.228)" fill="#ff6f61"/>
      <path id="Path_14385" data-name="Path 14385" d="M836.2,725.61s-3.309,6.057-22.588,8.258c-10.011,1.135-10.081-.673-7.824-2.692,1.57,1,4.739,1.4,11.119-1.164,9.184-3.758,15.844-5.931,18.522-6.772C835.888,724.572,836.2,725.61,836.2,725.61Z" transform="translate(250.626 62.945)" opacity="0.1"/>
      <path id="Path_14386" data-name="Path 14386" d="M827.454,721.736s.547-9.366-2.2-15.984a29.891,29.891,0,0,1,0-10.46c1.093-4.417-4.417-25.9-4.417-25.9l-4.4-21.495-3.814.224,4.36,21.27s5.51,21.48,4.417,25.9a29.879,29.879,0,0,0,0,10.46c2.8,6.618,2.2,15.984,2.2,15.984a116.107,116.107,0,0,0,1.655,28.66,4.827,4.827,0,0,1-1.6,2.271c2.047.925,4.206.883,5.454-2.271A116.129,116.129,0,0,1,827.454,721.736Z" transform="translate(253.858 32.649)" opacity="0.1"/>
      <path id="Path_14387" data-name="Path 14387" d="M831.7,562.42a19.63,19.63,0,0,0-10.4,2.959A18.718,18.718,0,0,0,800.268,575.4a22.826,22.826,0,0,0-7.137,17.05c0,11.722,7.894,21.214,17.625,21.214,7.01,0,13.152-4.992,15.97-12.212a19.349,19.349,0,0,0,4.963.645,19.84,19.84,0,1,0,0-39.68Z" transform="translate(246.019 -1.724)" fill="#3f3d56"/>
      <path id="Path_14388" data-name="Path 14388" d="M838.585,650.65l1.654,4.4s1.655,29.206,1.094,31.968,2.216,12.619,2.216,12.619a70.539,70.539,0,0,1,3.855,30.846l.547,15.423s2.2,6.057,1.107,7.165-9.408-.982-9.408-.982,1.108-11.567-2.8-18.732-6.057-25.35-6.057-25.35-5.51-11.02-5.51-15.423-8.819-40.227-8.819-40.227Z" transform="translate(255.402 33.755)" fill="#be6f72"/>
      <path id="Path_14389" data-name="Path 14389" d="M801.592,660.208s.561-19.84,2.8-25.9a41.112,41.112,0,0,0,2.454-8.791s33.357,6.029,36.119,3.828c0,0,.547,7.712,1.107,8.258s2.8,14.33,2.2,20.948,0,6.6,0,6.6-22.6,3.309-23.149,0-2.2-3.295-2.2-3.295S800.5,661.246,801.592,660.208Z" transform="translate(249.406 23.65)" fill="#3f3d56"/>
      <g id="Group_2603" data-name="Group 2603" transform="translate(1050.998 652.998)" opacity="0.1">
        <path id="Path_14390" data-name="Path 14390" d="M819.766,650.586s-13.937-.378-18.143-1.135v1.135c-1.094,1.094,19.293,1.654,19.293,1.654a1.4,1.4,0,0,1,.757.309C820.929,650.586,819.766,650.586,819.766,650.586Z" transform="translate(-801.58 -619.725)"/>
        <path id="Path_14391" data-name="Path 14391" d="M837.906,636.508c-.561-.547-1.108-8.258-1.108-8.258a2.37,2.37,0,0,1-.94.337c.2,2.327.575,5.9.94,6.267s2.8,14.329,2.2,20.948,0,6.6,0,6.6-17.877,2.622-22.21.869a6.667,6.667,0,0,0,.168.785c.547,3.309,23.149,0,23.149,0s-.561,0,0-6.6S838.453,637.069,837.906,636.508Z" transform="translate(-795.463 -628.25)"/>
        <path id="Path_14392" data-name="Path 14392" d="M819.766,650.586s-13.937-.378-18.143-1.135v1.135c-1.094,1.094,19.293,1.654,19.293,1.654a1.4,1.4,0,0,1,.757.309C820.929,650.586,819.766,650.586,819.766,650.586Z" transform="translate(-801.58 -619.725)"/>
        <path id="Path_14393" data-name="Path 14393" d="M837.906,636.508c-.561-.547-1.108-8.258-1.108-8.258a2.37,2.37,0,0,1-.94.337c.2,2.327.575,5.9.94,6.267s2.8,14.329,2.2,20.948,0,6.6,0,6.6-17.877,2.622-22.21.869a6.667,6.667,0,0,0,.168.785c.547,3.309,23.149,0,23.149,0s-.561,0,0-6.6S838.453,637.069,837.906,636.508Z" transform="translate(-795.463 -628.25)"/>
      </g>
      <path id="Path_14394" data-name="Path 14394" d="M822.3,588.8a7.307,7.307,0,0,0,2.1,2.72,4.716,4.716,0,0,0,1.977.855c-1.234.715-2.58,1.248-3.814,1.963a67.729,67.729,0,0,0-5.608,4.206,11.411,11.411,0,0,1-6.436,2.5,7.88,7.88,0,0,0,.9-7.838,7.326,7.326,0,0,1-.981-2.72c0-1.584,1.4-2.8,2.706-3.645,1.052-.715,2.131-1.4,3.225-2.089.856-.533,2.145-1.654,3.225-1.612s1.206,1,1.4,1.977A15.539,15.539,0,0,0,822.3,588.8Z" transform="translate(252.981 6.608)" fill="#be6f72"/>
      <path id="Path_14395" data-name="Path 14395" d="M822.3,588.8a7.307,7.307,0,0,0,2.1,2.72,4.716,4.716,0,0,0,1.977.855c-1.234.715-2.58,1.248-3.814,1.963a67.729,67.729,0,0,0-5.608,4.206,11.411,11.411,0,0,1-6.436,2.5,7.88,7.88,0,0,0,.9-7.838,7.326,7.326,0,0,1-.981-2.72c0-1.584,1.4-2.8,2.706-3.645,1.052-.715,2.131-1.4,3.225-2.089.856-.533,2.145-1.654,3.225-1.612s1.206,1,1.4,1.977A15.539,15.539,0,0,0,822.3,588.8Z" transform="translate(252.981 6.608)" opacity="0.1"/>
      <circle id="Ellipse_751" data-name="Ellipse 751" cx="12.675" cy="12.675" r="12.675" transform="translate(1075.522 602.578)" fill="#be6f72"/>
      <path id="Path_14396" data-name="Path 14396" d="M845.413,733.4c0,1.108-2.2,3.856-2.2,3.856a27.287,27.287,0,0,1-13.222-1.655c-1.107-.547.547-3.856.547-3.856l.126-.266a13.371,13.371,0,0,1,2.089-3.59c1.094-1.094,1.752-5.608,1.752-5.608,3.421-5.608,9.493,2.426,9.493,2.426s.771,4.207,1.178,6.758A19.255,19.255,0,0,1,845.413,733.4Z" transform="translate(260.689 61.759)" fill="#ff6f61"/>
      <path id="Path_14397" data-name="Path 14397" d="M845.413,730.2c0,1.108-2.2,3.856-2.2,3.856a27.285,27.285,0,0,1-13.222-1.654c-1.107-.547.547-3.856.547-3.856l.126-.267a26.637,26.637,0,0,0,12,2.468l2.51-2.51C845.315,729.179,845.413,729.923,845.413,730.2Z" transform="translate(260.689 64.955)" opacity="0.1"/>
      <circle id="Ellipse_752" data-name="Ellipse 752" cx="12.395" cy="12.395" r="12.395" transform="translate(1050.452 576.4)" fill="#be6f72"/>
      <path id="Path_14398" data-name="Path 14398" d="M804.051,601.091c-2.72,2.594-3.169,6.7-3.449,10.446l-.42,5.482a27.652,27.652,0,0,0-.1,4.445c0,.911.224,1.837.308,2.8s.112,2.187.126,3.295v8.1a9.559,9.559,0,0,0,.9,4.865,3.309,3.309,0,0,0,4.206,1.515,4.8,4.8,0,0,0,1.738-2.692,41.864,41.864,0,0,0,2.8-10.264c.112-1.22.126-2.44.238-3.66s.323-2.5.5-3.73c.785-5.16,1.136-10.376,1.486-15.578.1-1.542,1.486-7.613-.533-8.286-.982-.322-3.015.687-3.954,1.024A11.135,11.135,0,0,0,804.051,601.091Z" transform="translate(248.798 12.493)" fill="#be6f72"/>
      <path id="Path_14399" data-name="Path 14399" d="M804.051,601.091c-2.72,2.594-3.169,6.7-3.449,10.446l-.42,5.482a27.652,27.652,0,0,0-.1,4.445c0,.911.224,1.837.308,2.8s.112,2.187.126,3.295v8.1a9.559,9.559,0,0,0,.9,4.865,3.309,3.309,0,0,0,4.206,1.515,4.8,4.8,0,0,0,1.738-2.692,41.864,41.864,0,0,0,2.8-10.264c.112-1.22.126-2.44.238-3.66s.323-2.5.5-3.73c.785-5.16,1.136-10.376,1.486-15.578.1-1.542,1.486-7.613-.533-8.286-.982-.322-3.015.687-3.954,1.024A11.135,11.135,0,0,0,804.051,601.091Z" transform="translate(248.798 12.493)" opacity="0.1"/>
      <path id="Path_14400" data-name="Path 14400" d="M827.97,588.16s-9.366,7.165-14.876,8.819c0,0-3.267,3.73-3.828,4.627s-1.683,10.8-2.8,13.012-3.856,7.165,0,12.114c0,0,1.094,4.964.547,6.618s-2.552,7.712-.729,7.992,7.347,4.122,12.3,3.029S842,648.577,842,648.577s3.057-28.393,5.272-33.412l-4.963-1.655s-13.769-8.258-5.51-20.933C836.789,592.577,829.049,590.922,827.97,588.16Z" transform="translate(250.581 8.627)" fill="#ff6f61"/>
      <path id="Path_14401" data-name="Path 14401" d="M796.941,612.854l11.385,8.062a.842.842,0,0,0,1,0l3.085-2.314a.869.869,0,0,0,0-1.318l-8.763-7.782a.842.842,0,0,0-.855-.168l-5.623,2.019a.855.855,0,0,0-.224,1.5Z" transform="translate(247.412 17.121)" fill="#3f3d56"/>
      <path id="Path_14402" data-name="Path 14402" d="M799.98,635.372a30.5,30.5,0,0,1-1.192-8.595l-.168-3.884a11.218,11.218,0,0,1,.406-4.487,7.333,7.333,0,0,1,4.725-4.136,16.317,16.317,0,0,1,6.435-.463,1.654,1.654,0,0,1,.827.224,1.54,1.54,0,0,1,.449.757,5.076,5.076,0,0,1,.253,4.052,4.205,4.205,0,0,1-1.29,1.332c-1.528,1.093-3.309,1.823-4.753,3.014a1.726,1.726,0,0,0-.645.813,1.894,1.894,0,0,0,0,.884,14.155,14.155,0,0,0,.729,2.257,2.233,2.233,0,0,0,.631.953c.266.224.617.309.9.519.6.491,1.865,1.136,1.8,1.907-.211,2.8-1.893,5.945-2.552,8.721C805.266,644.668,800.793,637.742,799.98,635.372Z" transform="translate(248.2 18.887)" fill="#be6f72"/>
      <g id="Group_2604" data-name="Group 2604" transform="translate(1065.581 622.964)" opacity="0.1">
        <path id="Path_14403" data-name="Path 14403" d="M812.288,628.288h-.308a9.435,9.435,0,0,0,3.6,0h.351A12.612,12.612,0,0,0,812.288,628.288Z" transform="translate(-811.98 -598.255)"/>
        <path id="Path_14404" data-name="Path 14404" d="M834.382,606.83c-1.977,4.445-4.893,28.519-5.412,33.3,1.935.5,3.211.869,3.211.869s3.028-28.323,5.244-33.342Z" transform="translate(-805.148 -606.83)"/>
      </g>
      <path id="Path_14405" data-name="Path 14405" d="M835.06,605.945a4.2,4.2,0,0,0,1.809,2.734,24.3,24.3,0,0,1,3.211,3.253,23.036,23.036,0,0,1,3.183,6.38,78.116,78.116,0,0,1,2.65,8.721c-7.011,3.253-14.975,3.1-22.434,5.244a17.9,17.9,0,0,0-8.413,4.978,11.594,11.594,0,0,0-3.1,9.128.954.954,0,0,0,1.15.939,8.411,8.411,0,0,0,5.146-1.766,24.494,24.494,0,0,0,3.94-3.87,6.339,6.339,0,0,1,2.8-2.075c4.052-1.234,8.413-1.164,12.619-1.234a159.038,159.038,0,0,0,18.8-1.486,1.515,1.515,0,0,0,1.683-1.683c.617-8.272-2.454-16.348-5.609-24.018q-1.893-4.613-3.9-9.184a27.21,27.21,0,0,0-4.767-8.16,8.414,8.414,0,0,0-2.8-2.075,11.863,11.863,0,0,0-3.757-.7,26.632,26.632,0,0,0-6.155-.112,13.112,13.112,0,0,0-.589,3.183c.112,3.786,1.767,7.333,3.393,10.754C834.134,605.412,834.737,605.44,835.06,605.945Z" transform="translate(253.571 9.701)" fill="#be6f72"/>
      <path id="Path_14406" data-name="Path 14406" d="M812.813,606.67a10.277,10.277,0,0,0-1.4,5.356,7.215,7.215,0,0,0,.351,2.187,7.094,7.094,0,0,0,4.473,4.206" transform="translate(253.371 16.07)" fill="none" stroke="#000" stroke-miterlimit="10" stroke-width="1" opacity="0.1"/>
      <path id="Path_14407" data-name="Path 14407" d="M824.778,575.087a6.438,6.438,0,0,0-2.033.323c-1.837-2.8-6.155-4.739-11.217-4.739-6.7,0-12.128,3.463-12.128,7.726s5.426,7.712,12.128,7.712a17.06,17.06,0,0,0,7.277-1.542,6.6,6.6,0,1,0,5.945-9.478Z" transform="translate(248.542 1.594)" fill="#3f3d56"/>
      <path id="Path_14408" data-name="Path 14408" d="M825.333,585.134a6.591,6.591,0,0,1-5.946-3.745,17.069,17.069,0,0,1-7.276,1.543c-6.688,0-12.114-3.449-12.114-7.712a4.609,4.609,0,0,1,0-.771,5.229,5.229,0,0,0-.617,2.426c0,4.207,5.426,7.712,12.128,7.712a17.059,17.059,0,0,0,7.277-1.542,6.6,6.6,0,0,0,12.437-1.64,6.576,6.576,0,0,1-5.889,3.73Z" transform="translate(248.534 3.114)" opacity="0.1"/>
      <path id="Path_14409" data-name="Path 14409" d="M800.3,578.656a18.718,18.718,0,0,1,21.032-10.025A19.826,19.826,0,0,1,851.5,583.858V582.2a19.826,19.826,0,0,0-30.244-16.825A18.718,18.718,0,0,0,800.228,575.4a22.825,22.825,0,0,0-7.137,17.05v1.654A22.432,22.432,0,0,1,800.3,578.656Z" transform="translate(246.003 -1.723)" opacity="0.1"/>
      <path id="Path_14410" data-name="Path 14410" d="M892.9,619.813c3.66-6.772-.491-15.087-5.272-21.13s-10.586-12.325-10.46-20.036c.168-11.063,11.918-17.6,21.312-23.471a103.629,103.629,0,0,0,19.125-15.423,27.954,27.954,0,0,0,5.889-7.866c1.935-4.333,1.879-9.254,1.766-14.021q-.616-23.7-2.341-47.336" transform="translate(279.814 -38.674)" fill="none" stroke="#3f3d56" stroke-miterlimit="10" stroke-width="4"/>
      <path id="Path_14411" data-name="Path 14411" d="M932.415,474.649a17.233,17.233,0,0,0-8.609-14.133l-3.87,7.642.112-9.254a16.941,16.941,0,0,0-5.679-.687,17.26,17.26,0,1,0,18.045,16.433Z" transform="translate(288.156 -43.634)" fill="#ff9300"/>
      <path id="Path_14412" data-name="Path 14412" d="M909.922,560.474a17.26,17.26,0,1,1,.827-13.909l-10.782,8.777,11.862-2.8a17.162,17.162,0,0,1-1.907,7.936Z" transform="translate(279.872 -12.621)" fill="#ff9300"/>
      <path id="Path_14413" data-name="Path 14413" d="M899.678,539.243a17.26,17.26,0,0,1-5.482-33.861l-.084,7.109,3.912-7.726h0a17.265,17.265,0,1,1,1.612,34.492Z" transform="translate(281.591 -24.915)" fill="#ff9300"/>
      <path id="Path_14414" data-name="Path 14414" d="M929.572,519.364a17.26,17.26,0,1,1,7.642-32.249l-3.057,8.413,6.281-6.029a17.161,17.161,0,0,1,5.609,11.918,16.656,16.656,0,0,1-.435,4.753A17.26,17.26,0,0,1,929.572,519.364Z" transform="translate(293.592 -32.909)" fill="#ff9300"/>
      <path id="Path_14415" data-name="Path 14415" d="M930.107,476.535c-3.982.449-7.866,1.682-11.862,1.935s-8.412-.715-10.922-3.828a53.562,53.562,0,0,1-3.183-5.608,12.407,12.407,0,0,0-4.346-4.094A17.26,17.26,0,1,0,932.041,476.4C931.4,476.423,930.752,476.465,930.107,476.535Z" transform="translate(288.151 -40.922)" opacity="0.1"/>
      <path id="Path_14416" data-name="Path 14416" d="M929.552,516.531a17.274,17.274,0,0,1-16.419-24.621,12.769,12.769,0,0,1,3.477,3.463,55.3,55.3,0,0,0,3.422,5.707c2.678,3.169,7.277,4.206,11.441,4.01s8.188-1.4,12.339-1.753c.575,0,1.164-.1,1.739-.112a17.26,17.26,0,0,1-16,13.306Z" transform="translate(293.613 -30.077)" opacity="0.1"/>
      <path id="Path_14417" data-name="Path 14417" d="M899.678,536.327A17.246,17.246,0,0,1,883.119,512a14.233,14.233,0,0,1,3.646,3.505c1.4,1.893,2.173,4.08,3.743,5.819,2.917,3.253,7.81,4.389,12.227,4.29s8.413-1.15,12.619-1.472A17.261,17.261,0,0,1,899.678,536.327Z" transform="translate(281.591 -21.998)" opacity="0.1"/>
      <path id="Path_14418" data-name="Path 14418" d="M909.894,557.281a17.274,17.274,0,0,1-31.478-14.021,16.906,16.906,0,0,1,3.786,3.379c1.655,2.005,2.734,4.206,4.627,6.141,3.533,3.463,9.226,4.879,14.3,5.02A75.678,75.678,0,0,0,909.894,557.281Z" transform="translate(279.9 -9.428)" opacity="0.1"/>
      <path id="Path_14419" data-name="Path 14419" d="M1051.9,771.814c3.659-6.772-.491-15.087-5.272-21.13s-10.586-12.325-10.46-20.036c.168-11.063,11.918-17.6,21.312-23.471a103.641,103.641,0,0,0,19.125-15.423,27.943,27.943,0,0,0,5.889-7.866c1.935-4.333,1.879-9.254,1.767-14.021q-.6-23.7-2.342-47.336" transform="translate(343.751 22.448)" fill="none" stroke="#3f3d56" stroke-miterlimit="10" stroke-width="4"/>
      <path id="Path_14420" data-name="Path 14420" d="M1091.4,626.648a17.232,17.232,0,0,0-8.609-14.134l-3.87,7.642.112-9.254a16.936,16.936,0,0,0-5.608-.687,17.26,17.26,0,1,0,18.045,16.433Z" transform="translate(352.112 17.488)" fill="#ff9300"/>
      <path id="Path_14421" data-name="Path 14421" d="M1068.923,712.474a17.26,17.26,0,1,1,.827-13.909l-10.782,8.777,11.862-2.8A17.16,17.16,0,0,1,1068.923,712.474Z" transform="translate(343.808 48.501)" fill="#ff9300"/>
      <path id="Path_14422" data-name="Path 14422" d="M1058.678,691.243a17.26,17.26,0,0,1-5.482-33.861l-.084,7.108,3.912-7.726h0a17.265,17.265,0,1,1,1.612,34.492Z" transform="translate(345.527 36.207)" fill="#ff9300"/>
      <path id="Path_14423" data-name="Path 14423" d="M1088.572,671.364a17.26,17.26,0,1,1,7.641-32.249l-3.057,8.413,6.281-6.029a17.163,17.163,0,0,1,5.609,11.918,16.686,16.686,0,0,1-.435,4.753A17.26,17.26,0,0,1,1088.572,671.364Z" transform="translate(357.529 28.212)" fill="#ff9300"/>
      <path id="Path_14424" data-name="Path 14424" d="M1089.106,628.535c-3.982.449-7.866,1.683-11.862,1.935s-8.412-.715-10.922-3.828a53.353,53.353,0,0,1-3.183-5.609,12.409,12.409,0,0,0-4.347-4.094,17.26,17.26,0,1,0,32.249,11.455C1090.4,628.423,1089.752,628.465,1089.106,628.535Z" transform="translate(352.087 20.2)" opacity="0.1"/>
      <path id="Path_14425" data-name="Path 14425" d="M1088.552,668.531a17.274,17.274,0,0,1-16.419-24.621,12.772,12.772,0,0,1,3.477,3.463,55.376,55.376,0,0,0,3.422,5.707c2.678,3.169,7.276,4.206,11.441,4.01s8.189-1.4,12.339-1.753c.575,0,1.164-.1,1.739-.112A17.26,17.26,0,0,1,1088.552,668.531Z" transform="translate(357.549 31.045)" opacity="0.1"/>
      <path id="Path_14426" data-name="Path 14426" d="M1058.678,688.327A17.246,17.246,0,0,1,1042.119,664a14.232,14.232,0,0,1,3.645,3.505c1.4,1.893,2.174,4.08,3.744,5.819,2.916,3.253,7.81,4.389,12.226,4.29s8.413-1.15,12.619-1.472A17.26,17.26,0,0,1,1058.678,688.327Z" transform="translate(345.528 39.123)" opacity="0.1"/>
      <path id="Path_14427" data-name="Path 14427" d="M1068.894,709.281a17.274,17.274,0,0,1-31.478-14.021,16.916,16.916,0,0,1,3.786,3.379c1.654,2,2.8,4.206,4.627,6.141,3.533,3.463,9.225,4.879,14.3,5.02A75.6,75.6,0,0,0,1068.894,709.281Z" transform="translate(343.837 51.694)" opacity="0.1"/>
      <path id="Path_14428" data-name="Path 14428" d="M583.914,599.2a13.755,13.755,0,0,0-5.482-11.1,16.124,16.124,0,0,0-13.474-15.816,16.1,16.1,0,0,0-10.726-11.988h0a13.674,13.674,0,0,0-1.991-.463h-2.369a15.788,15.788,0,0,0-15.255,13.488c-4.921-1.136-9.422.336-10.249,3.449a4.207,4.207,0,0,0,.14,2.5c.841,2.412,3.576,4.725,7.235,5.861l.477.14.715.182h.154a12.4,12.4,0,0,0-1.178,5.314,12.255,12.255,0,0,0,6.6,10.937l-.323.2a4.373,4.373,0,0,0-1.066,1.486,22.235,22.235,0,0,0-2.061,4.964c-.351,1.486-.407,3.029-.841,4.5-.813,2.706-2.888,4.991-3.127,7.81-.112,1.262.1,2.8-.8,3.617a4.353,4.353,0,0,1-.715.5,5.787,5.787,0,0,0-1.556,1.641,5.441,5.441,0,0,1-1.094,1.57c-.813.6-2.145.547-2.538,1.486s.631,2.047.393,3.071-1.108,1.22-1.739,1.795a6.239,6.239,0,0,0-1.5,2.8,9.2,9.2,0,0,1-7.571-1.935,14.147,14.147,0,0,1,.785,2.8,12.285,12.285,0,0,0-4.08-2.047,12.882,12.882,0,0,1-4.347-3.225l2.328-.323-10.277-15.69-3.043-.631,2.72,5.23a1.668,1.668,0,0,0-.925,1.107,4.756,4.756,0,0,0-.1,1.781,31.876,31.876,0,0,0,.7,4.206l.785,3.674c.07.337.154.687.252,1.024a9.657,9.657,0,0,0-3.042.336,26.473,26.473,0,0,0-6.324-1.5,3.507,3.507,0,0,0-1.4,0,3.63,3.63,0,0,0-1.332,1.08,43.108,43.108,0,0,0-4.7,6.618c-5.608,9.618-12.914,18.017-19.826,26.71-4.767,1.935-9.576,3.772-14.386,5.609l-10.348,3.954a15.692,15.692,0,0,1-6.422,1.4c-.981,0-2.2-.21-2.8.631a5.889,5.889,0,0,0-.631,1.4l-1.066.112h0a12.255,12.255,0,0,0-2.482-4.571,1.57,1.57,0,0,0-1.164.9c-.252.463-.407.967-.7,1.4-.547.813-1.514,1.206-2.2,1.893s-1.122,1.753-1.879,2.453a7.43,7.43,0,0,1-3.519,1.4,22.2,22.2,0,0,0-5.51,2.089,8.885,8.885,0,0,1-2.033.939,7.634,7.634,0,0,1-2.4.084l-5.468-.407a4.324,4.324,0,0,0-1.472.07,2.8,2.8,0,0,0-1.739,2.8,4.416,4.416,0,0,0,1.739,3.015,11.135,11.135,0,0,0,3.113,1.613,91.349,91.349,0,0,0,14.582,4.319v1.108a24.89,24.89,0,0,0,11.217,2.664,1.737,1.737,0,0,0,.841-.154,1.85,1.85,0,0,0,.7-1.094,45.106,45.106,0,0,0,2.187-10.74h0a5.613,5.613,0,0,0,1.977-.5c1.879-.519,3.758.771,5.707.982,2.4.266,4.613-1.136,6.884-1.991l.982-.322a10.767,10.767,0,0,1-2.271,2.173c-.939.673-1.991,1.178-2.9,1.879a20.013,20.013,0,0,1-2.468,1.907,15.472,15.472,0,0,1-1.893.729,12.488,12.488,0,0,0-2.706,1.4,5.483,5.483,0,0,0-1.837,1.795,2.693,2.693,0,0,0-.154,2.524,2.664,2.664,0,0,0,1.809,1.262,7.423,7.423,0,0,0,2.23,0c2.972-.224,5.931-.491,8.889-.757a23.691,23.691,0,0,0,3.716-.533c.645-.154,1.29-.364,1.935-.547a17.265,17.265,0,0,1,3.379-.5,2.806,2.806,0,0,1,.981.1c.687.224,1.178.925,1.879,1.066a2.8,2.8,0,0,0,1.4-.182,31.275,31.275,0,0,1,6.576-.7,2.715,2.715,0,0,0,2.552-1.136c.449-.9-.365-2.342-.729-3.533a10.812,10.812,0,0,1-.309-2.327,14.57,14.57,0,0,0-1.626-5.525,14.41,14.41,0,0,1-1.22-2.524,63.757,63.757,0,0,0,12.1-6.141,21.641,21.641,0,0,1,6.9-3.323,18.761,18.761,0,0,1,8.665,1.01,197.2,197.2,0,0,1,19.868,6.926c3.1,1.276,6.183,2.622,9.38,3.59a14.626,14.626,0,0,0,3.337,3.239,15.428,15.428,0,0,0,7.221,1.977,94.663,94.663,0,0,0,10.165.378,17.15,17.15,0,0,0,7.572-1.4,7.788,7.788,0,0,0,1.584-1.052,6.282,6.282,0,0,0,4.991-1.837,12.1,12.1,0,0,0,3.8-6c.827-3.2.2-7.011,2.159-9.563.519-.7,1.206-1.262,1.725-1.963a5.525,5.525,0,0,0,.9-3.239.632.632,0,0,1,.084-.126,11.874,11.874,0,0,0,.841-3.225,18.459,18.459,0,0,1,.911-2.552,78.743,78.743,0,0,0,2.608-7.557,44.169,44.169,0,0,0,1.206-5.188c.21-1.4.337-2.8.449-4.206a26.129,26.129,0,0,1,1.276-6.492,52.834,52.834,0,0,0,2.945-15.535V621.4A10.418,10.418,0,0,0,583,610.8a11.063,11.063,0,0,0-.967-4.529,14.02,14.02,0,0,0,1.879-7.067Zm-50.167,60.95c.154.547.336,1.08.519,1.613-.827-.8-1.626-1.627-2.454-2.44.322.112.659.211.967.337a5.227,5.227,0,0,1,.925.491Zm-3.968-2.692c-4.851-4.206-10.46-7.473-15.423-11.553,2.706,1.332,5.342,2.888,7.95,4.375q4.641,2.65,9.408,5.09a7.7,7.7,0,0,1-1.977,2.089Zm2.061-10.6.238-.238v1.668l-1.3-.449a11.653,11.653,0,0,0,1.024-.982Zm-42.667,11.357a40.126,40.126,0,0,0,5.16-7.361c1.921,3.351,5.048,5.777,7.7,8.6C497.754,658.9,493.464,658.441,489.173,658.216Z" transform="translate(86.298 -2.765)" fill="url(#linear-gradient-2)"/>
      <path id="Path_14429" data-name="Path 14429" d="M415.35,438.25l3.057.617,10.418,15.409-4.585.617Z" transform="translate(167.019 176.372)" fill="#2f2e41"/>
      <path id="Path_14430" data-name="Path 14430" d="M414.49,645.5a59.98,59.98,0,0,0,3.057,7.95,75.71,75.71,0,0,0,10.165-2.9,32.08,32.08,0,0,0-2.117-2.8,10.461,10.461,0,0,0-2.874-2.2,7.912,7.912,0,0,0-3.491,0C417.659,645.5,416.074,645.532,414.49,645.5Z" transform="translate(93.763 31.624)" fill="#fbbebe"/>
      <path id="Path_14431" data-name="Path 14431" d="M430.246,650.879a6.336,6.336,0,0,1-3.477-3.954,12.731,12.731,0,0,0-2.65-4.725,1.514,1.514,0,0,0-1.178.883c-.252.449-.407.953-.687,1.4-.561.8-1.542,1.192-2.243,1.865s-1.122,1.725-1.879,2.412a7.456,7.456,0,0,1-3.547,1.4,23,23,0,0,0-5.608,2.061,9.679,9.679,0,0,1-2.061.925,8.148,8.148,0,0,1-2.412,0l-5.524-.393a4.317,4.317,0,0,0-1.4,0,2.678,2.678,0,0,0-1.753,2.8,4.206,4.206,0,0,0,1.753,2.972,11.634,11.634,0,0,0,3.141,1.6,92.363,92.363,0,0,0,14.806,4.207v1.094a25.629,25.629,0,0,0,11.287,2.622,1.9,1.9,0,0,0,.841-.14,1.849,1.849,0,0,0,.7-1.094,43.754,43.754,0,0,0,2.313-12,9.556,9.556,0,0,0-.238-3.1c-.308-1,.729-.575-.224-.968" transform="translate(86.251 30.357)" fill="#2f2e41"/>
      <path id="Path_14432" data-name="Path 14432" d="M527.117,634.793c-16.377.981-32.557-3.814-48.962-4.319a23.9,23.9,0,0,0-6.085.379,30.653,30.653,0,0,0-6.029,2.341c-8.791,4.094-17.891,7.487-26.977,10.867l-10.446,3.884a15.818,15.818,0,0,1-6.464,1.4c-1,0-2.215-.21-2.8.617-1.7,2.524-.9,6.211.224,9.043.365.911.981,1.907,1.963,2.005a5.708,5.708,0,0,0,1.991-.5c1.893-.5,3.785.771,5.749.982,2.412.252,4.655-1.122,6.94-1.963,3.786-1.4,7.908-1.4,11.89-2.019,6.66-1.108,12.843-4.206,18.62-7.726a21.738,21.738,0,0,1,6.941-3.281,19.208,19.208,0,0,1,8.735,1,200.506,200.506,0,0,1,20.036,6.815,93.36,93.36,0,0,0,10.46,3.827,37.854,37.854,0,0,0,23.457-1.4c2.622-1.037,5.468-2.8,5.608-5.692.1-1.612-1.164-3.029-1.991-4.417-.533-.883-1.08-1.767-1.654-2.622C535.516,639.939,532.095,634.5,527.117,634.793Z" transform="translate(95.324 25.622)" fill="#2f2e41"/>
      <path id="Path_14433" data-name="Path 14433" d="M527.117,634.793c-16.377.981-32.557-3.814-48.962-4.319a23.9,23.9,0,0,0-6.085.379,30.653,30.653,0,0,0-6.029,2.341c-8.791,4.094-17.891,7.487-26.977,10.867l-10.446,3.884a15.818,15.818,0,0,1-6.464,1.4c-1,0-2.215-.21-2.8.617-1.7,2.524-.9,6.211.224,9.043.365.911.981,1.907,1.963,2.005a5.708,5.708,0,0,0,1.991-.5c1.893-.5,3.785.771,5.749.982,2.412.252,4.655-1.122,6.94-1.963,3.786-1.4,7.908-1.4,11.89-2.019,6.66-1.108,12.843-4.206,18.62-7.726a21.738,21.738,0,0,1,6.941-3.281,19.208,19.208,0,0,1,8.735,1,200.506,200.506,0,0,1,20.036,6.815,93.36,93.36,0,0,0,10.46,3.827,37.854,37.854,0,0,0,23.457-1.4c2.622-1.037,5.468-2.8,5.608-5.692.1-1.612-1.164-3.029-1.991-4.417-.533-.883-1.08-1.767-1.654-2.622C535.516,639.939,532.095,634.5,527.117,634.793Z" transform="translate(95.324 25.622)" opacity="0.1"/>
      <path id="Path_14434" data-name="Path 14434" d="M436.92,647.956q3.842,1.3,7.754,2.411c1.4-2.4,4.206-4.066,4.809-6.814a.645.645,0,0,0,0-.365.673.673,0,0,0-.294-.266,14.693,14.693,0,0,0-6.085-1.781c-1.682-.1-2.454,1.654-3.211,2.888C439.6,644.576,437.607,648.222,436.92,647.956Z" transform="translate(102.783 29.93)" fill="#fbbebe"/>
      <path id="Path_14435" data-name="Path 14435" d="M446.743,645.9a5.607,5.607,0,0,1-3.772-2.482c-.351-.631-.743-1.486-1.472-1.4s-.967.841-1.122,1.5a42.08,42.08,0,0,1-2.117,7.277,13.656,13.656,0,0,1-4.529,5.959c-.953.659-2,1.15-2.944,1.851a20.2,20.2,0,0,1-2.482,1.879,14.732,14.732,0,0,1-1.907.7,13.208,13.208,0,0,0-2.72,1.4,5.4,5.4,0,0,0-1.865,1.781,2.565,2.565,0,0,0-.14,2.482,2.649,2.649,0,0,0,1.809,1.234,7.625,7.625,0,0,0,2.257,0c2.986-.21,5.973-.477,8.959-.743a25.844,25.844,0,0,0,3.744-.519l1.949-.533a15.514,15.514,0,0,1,3.407-.5,2.643,2.643,0,0,1,1,.1c.687.224,1.178.911,1.893,1.051a3.168,3.168,0,0,0,1.4-.182,30.972,30.972,0,0,1,6.632-.687,2.8,2.8,0,0,0,2.58-1.121c.561-1.094-.365-2.314-.743-3.491a11.209,11.209,0,0,1-.308-2.285,13.937,13.937,0,0,0-1.641-5.44c-.757-1.4-1.795-2.944-1.262-4.431a4.208,4.208,0,0,0,.5-1.528C453.641,645.349,448.117,646.2,446.743,645.9Z" transform="translate(96.549 30.279)" fill="#2f2e41"/>
      <path id="Path_14436" data-name="Path 14436" d="M482.377,618.93a12.787,12.787,0,0,1-6.534-6.478c-.266-.617-.491-1.276-.757-1.893a14.387,14.387,0,0,0-3.9-5.426,1.92,1.92,0,0,0-1.4-.6,1.528,1.528,0,0,0-1.052,1.136,4.337,4.337,0,0,0-.112,1.753,31.227,31.227,0,0,0,.7,4.094l.8,3.618a7.933,7.933,0,0,0,.491,1.612,5.608,5.608,0,0,0,1.332,1.584c.729.673,1.472,1.318,2.215,1.963a7.62,7.62,0,0,0,1.4.968,8.157,8.157,0,0,0,2.482.729,21.115,21.115,0,0,1,9.31,3.589s0-2.426,0-2.692a3.562,3.562,0,0,0-.7-1.949,12.442,12.442,0,0,0-4.277-2.005Z" transform="translate(115.514 15.21)" fill="#fbbebe"/>
      <path id="Path_14437" data-name="Path 14437" d="M482.377,618.93a12.787,12.787,0,0,1-6.534-6.478c-.266-.617-.491-1.276-.757-1.893a14.387,14.387,0,0,0-3.9-5.426,1.92,1.92,0,0,0-1.4-.6,1.528,1.528,0,0,0-1.052,1.136,4.337,4.337,0,0,0-.112,1.753,31.227,31.227,0,0,0,.7,4.094l.8,3.618a7.933,7.933,0,0,0,.491,1.612,5.608,5.608,0,0,0,1.332,1.584c.729.673,1.472,1.318,2.215,1.963a7.62,7.62,0,0,0,1.4.968,8.157,8.157,0,0,0,2.482.729,21.115,21.115,0,0,1,9.31,3.589s0-2.426,0-2.692a3.562,3.562,0,0,0-.7-1.949,12.442,12.442,0,0,0-4.277-2.005Z" transform="translate(115.514 15.21)" opacity="0.1"/>
      <ellipse id="Ellipse_753" data-name="Ellipse 753" cx="3.982" cy="4.01" rx="3.982" ry="4.01" transform="translate(627.251 598.441)" fill="#2f2e41"/>
      <path id="Path_14438" data-name="Path 14438" d="M508.342,590.514a4.306,4.306,0,0,0-3.141.449,4.367,4.367,0,0,0-1.08,1.472,21.4,21.4,0,0,0-2.075,4.879c-.351,1.4-.407,2.987-.855,4.431-.813,2.664-2.9,4.921-3.141,7.7-.112,1.248.1,2.706-.813,3.547a5.132,5.132,0,0,1-.715.519,5.388,5.388,0,0,0-1.57,1.613,5.288,5.288,0,0,1-1.108,1.528c-.813.6-2.159.547-2.552,1.4s.631,2.019.392,3.028-1.122,1.206-1.753,1.767a6.125,6.125,0,0,0-1.514,2.8,9.353,9.353,0,0,1-7.628-1.893,24.282,24.282,0,0,1,1.192,8.721,3.561,3.561,0,0,1-.7,2.692,48.551,48.551,0,0,1,9.352,1.626,6.451,6.451,0,0,0,4.08,0,6.811,6.811,0,0,0,1.879-1.486c1.682-1.711,3.449-3.575,3.856-5.945a34.918,34.918,0,0,0,.07-4.024,22.7,22.7,0,0,1,1.023-4.893,58.215,58.215,0,0,0,1.781-10.067c.182-2.1,2-3.786,2.958-5.609,1.795-3.547,3.645-7.235,3.772-11.217C510.108,592.267,509.66,590.654,508.342,590.514Z" transform="translate(120.424 9.526)" fill="#2f2e41"/>
      <path id="Path_14439" data-name="Path 14439" d="M508.342,590.514a4.306,4.306,0,0,0-3.141.449,4.367,4.367,0,0,0-1.08,1.472,21.4,21.4,0,0,0-2.075,4.879c-.351,1.4-.407,2.987-.855,4.431-.813,2.664-2.9,4.921-3.141,7.7-.112,1.248.1,2.706-.813,3.547a5.132,5.132,0,0,1-.715.519,5.388,5.388,0,0,0-1.57,1.613,5.288,5.288,0,0,1-1.108,1.528c-.813.6-2.159.547-2.552,1.4s.631,2.019.392,3.028-1.122,1.206-1.753,1.767a6.125,6.125,0,0,0-1.514,2.8,9.353,9.353,0,0,1-7.628-1.893,24.282,24.282,0,0,1,1.192,8.721,3.561,3.561,0,0,1-.7,2.692,48.551,48.551,0,0,1,9.352,1.626,6.451,6.451,0,0,0,4.08,0,6.811,6.811,0,0,0,1.879-1.486c1.682-1.711,3.449-3.575,3.856-5.945a34.918,34.918,0,0,0,.07-4.024,22.7,22.7,0,0,1,1.023-4.893,58.215,58.215,0,0,0,1.781-10.067c.182-2.1,2-3.786,2.958-5.609,1.795-3.547,3.645-7.235,3.772-11.217C510.108,592.267,509.66,590.654,508.342,590.514Z" transform="translate(120.424 9.526)" opacity="0.1"/>
      <path id="Path_14440" data-name="Path 14440" d="M521.233,645.674c-3.407-1.627-5.9-4.641-8.665-7.235-5.258-4.95-11.694-8.413-17.232-13.082-3.674-3.071-7.01-6.646-10.978-9.226a27.442,27.442,0,0,0-11.764-4.108,3.13,3.13,0,0,0-1.4,0,3.226,3.226,0,0,0-1.332,1.052,42.369,42.369,0,0,0-4.753,6.52c-7.011,11.918-16.98,21.929-25.238,33.006a2.106,2.106,0,0,0-.407.785,1.949,1.949,0,0,0,.308,1.22l1.683,3.281c.939,1.851,2.454,4,4.473,3.632a4.9,4.9,0,0,0,2.342-1.5l7.543-7.221,7.908-7.557c4.627-4.417,9.338-8.945,12.367-14.61,2.356,4.094,6.548,6.772,9.408,10.516,1.094,1.4,1.991,2.987,2.973,4.5,1.556,2.411,3.337,4.683,5.1,7.011l9.072,11.567a17.357,17.357,0,0,0,4.206,4.207,16.054,16.054,0,0,0,7.277,1.949,96.135,96.135,0,0,0,10.25.365,17.671,17.671,0,0,0,7.642-1.4,6.926,6.926,0,0,0,4.136-6.155,9.03,9.03,0,0,0-1.3-3.828C531.567,653.511,527.332,648.576,521.233,645.674Z" transform="translate(103.802 18.191)" fill="#2f2e41"/>
      <ellipse id="Ellipse_754" data-name="Ellipse 754" cx="3.071" cy="3.085" rx="3.071" ry="3.085" transform="translate(630.616 602.143)" fill="#e8e8f0"/>
      <path id="Path_14441" data-name="Path 14441" d="M504.676,595.293a5.9,5.9,0,0,1,.336,4.431,17.964,17.964,0,0,1-1.977,4.08,19.409,19.409,0,0,1-2.566,3.645c4.739.224,9.324-1.626,13.488-3.87,3.365-1.809,6.716-4.038,8.511-7.417a3.926,3.926,0,0,1-3.14-.589,11.218,11.218,0,0,1-2.4-2.23l-2.37-2.664a10.65,10.65,0,0,1-1.4-1.921,5.3,5.3,0,0,1-.631-3.1,18.053,18.053,0,0,1-3.141,2.608c-1.7,1.107-3.561,1.907-5.272,3-.589.393-1.935,1.01-1.584,1.795S504.2,594.451,504.676,595.293Z" transform="translate(128.337 7.622)" fill="#fbbebe"/>
      <path id="Path_14442" data-name="Path 14442" d="M504.676,595.293a5.9,5.9,0,0,1,.336,4.431,17.964,17.964,0,0,1-1.977,4.08,19.409,19.409,0,0,1-2.566,3.645c4.739.224,9.324-1.626,13.488-3.87,3.365-1.809,6.716-4.038,8.511-7.417a3.926,3.926,0,0,1-3.14-.589,11.218,11.218,0,0,1-2.4-2.23l-2.37-2.664a10.65,10.65,0,0,1-1.4-1.921,5.3,5.3,0,0,1-.631-3.1,18.053,18.053,0,0,1-3.141,2.608c-1.7,1.107-3.561,1.907-5.272,3-.589.393-1.935,1.01-1.584,1.795S504.2,594.451,504.676,595.293Z" transform="translate(128.337 7.622)" opacity="0.1"/>
      <path id="Path_14443" data-name="Path 14443" d="M508.862,593a4,4,0,0,0,0,4.627c.14.168.645,1.22.855,1.234a.77.77,0,0,0,.533-.28,35.207,35.207,0,0,0,3-3.575,6.673,6.673,0,0,1,3.814-2.5,8.244,8.244,0,0,1,5.258,1.641,4.99,4.99,0,0,1,1.809,1.4,4.9,4.9,0,0,1,.589,2.005,96.631,96.631,0,0,1,.533,12.745,50.237,50.237,0,0,1-.6,9.184c-.308,1.556-.757,3.085-.967,4.669a29.792,29.792,0,0,0-.2,4.206v5.861a15.42,15.42,0,0,0,.224,3.211c.281,1.276.883,2.468,1.29,3.716a24.3,24.3,0,0,1,.855,4.389l.8,6.057c.252,1.907.449,4-.715,5.608-.519.687-1.206,1.248-1.739,1.935-1.977,2.58-1.4,6.267-2.173,9.422a11.751,11.751,0,0,1-3.842,5.889,6.351,6.351,0,0,1-5.062,1.809c-2.468-.463-3.94-3.029-4.613-5.454s-.911-5.062-2.37-7.109a18.843,18.843,0,0,0-4.683-3.912,8.091,8.091,0,0,1-3.659-4.753c-.154-.883,0-1.795-.154-2.692a6.352,6.352,0,0,0-3.912-5.146c-1.262-.491-2.8-.673-3.533-1.823a8.509,8.509,0,0,0,3.687-4.95,25.41,25.41,0,0,0,.9-6.253l.421-7.011c.2-3.155.281-6.267,1.669-9.1.617-1.262,1.4-2.454,2.033-3.7a40.169,40.169,0,0,0,2.173-5.426c1.01-2.888,2.019-5.777,2.916-8.693a16.375,16.375,0,0,1,1.6-4.053C506.352,594.867,507.446,593.283,508.862,593Z" transform="translate(124.207 10.374)" fill="#e8e8f0"/>
      <path id="Path_14444" data-name="Path 14444" d="M492.417,639.132h1.865l.393-2.8a5.844,5.844,0,0,1,.393-1.64,9.822,9.822,0,0,1,1.08-1.57c1.823-2.594,1.7-6.029,2.145-9.184a46.73,46.73,0,0,1,4.094-12L506,603.869a11.137,11.137,0,0,0,.785-2.061,12.354,12.354,0,0,0,.224-2.384c0-1.248.393-5.791.435-7.01,0-.463-1.024-.21-1.234-.617-.449-.9-1.066,1.528-1.921,2.061a4.709,4.709,0,0,0-1.669,2.439c-.785,2.019-1.262,4.206-1.991,6.211a12.69,12.69,0,0,1-3.379,5.5c-.743.645-1.6,1.164-2.3,1.865-2.243,2.216-2.468,5.735-2.538,8.9C492.361,620.708,492,639.132,492.417,639.132Z" transform="translate(125.019 10.01)" fill="#2f2e41"/>
      <path id="Path_14445" data-name="Path 14445" d="M516.378,590.525a6.365,6.365,0,0,0-3.323,4.557,23.056,23.056,0,0,1-1.683,5.609c-2.272,3.954-8.062,5.1-9.675,9.38a17.249,17.249,0,0,0-.645,4.417c-.28,3.071-1.29,6.029-1.6,9.086a40.509,40.509,0,0,0,.168,7.137l2.033,24.144a32.249,32.249,0,0,1-.6,10.628,10.235,10.235,0,0,0,6.085-1.01c1.893-.869,3.631-2.061,5.468-3.071,3.141-1.738,6.618-2.958,9.38-5.272a5.729,5.729,0,0,0,1.262-1.4,12.128,12.128,0,0,0,.841-3.169,17.084,17.084,0,0,1,.911-2.5,73.525,73.525,0,0,0,2.636-7.459,42.8,42.8,0,0,0,1.206-5.1c.224-1.4.351-2.8.463-4.206a24.677,24.677,0,0,1,1.29-6.38,51.383,51.383,0,0,0,2.959-15.311,8.006,8.006,0,0,0-.154-2.243,12.008,12.008,0,0,0-1.234-2.566c-.841-1.584-1.4-3.323-2.131-4.935a24.271,24.271,0,0,0-8.286-8.707C520.121,591.043,518.214,589.865,516.378,590.525Z" transform="translate(127.895 9.501)" fill="#2f2e41"/>
      <path id="Path_14446" data-name="Path 14446" d="M487.586,620.9a14.618,14.618,0,0,1-3.856-2.93c-.5-.589-.925-1.248-1.4-1.837a9.55,9.55,0,0,0-4.851-2.8,23.7,23.7,0,0,0-5.608-.547,10.17,10.17,0,0,0-3.744.448,3.814,3.814,0,0,0-2.482,2.664,4.417,4.417,0,0,0,1.893,3.926,8.919,8.919,0,0,0,3.772,1.823,30.212,30.212,0,0,0,3.407.406c6.7.7,12.689,4.347,18.564,7.669q7.74,4.4,15.788,8.189a32.8,32.8,0,0,0,.266-4.837c0-1.206-.1-3.057-1.234-3.772a24.76,24.76,0,0,0-5.02-1.5,78.98,78.98,0,0,1-10.109-4.094A50.324,50.324,0,0,1,487.586,620.9Z" transform="translate(114.329 18.52)" fill="#fbbebe"/>
      <ellipse id="Ellipse_755" data-name="Ellipse 755" cx="11.946" cy="12.016" rx="11.946" ry="12.016" transform="translate(619.287 577.508)" fill="#fbbebe"/>
      <path id="Path_14447" data-name="Path 14447" d="M522.377,600.617a19.154,19.154,0,0,0-2.314,4.332c-1.4,3.029-3.786,5.609-4.949,8.819s-1.178,7.333-3.575,9.955a3.491,3.491,0,0,0-1.052,1.514,7.235,7.235,0,0,1-.112,1.094c-.351.953-1.907,1-2.2,1.977-.084.28,0,.589-.14.869-.238.631-1.08.729-1.626,1.107-1.164.785-.925,2.608-1.753,3.744a3.154,3.154,0,0,1-2.987,1.052,10.518,10.518,0,0,1-3.1-1.164,2.982,2.982,0,0,0-1.122-.35,2.313,2.313,0,0,0-1.29.449,7.95,7.95,0,0,0-3.225,6.8,22.213,22.213,0,0,0,1.851,7.614,3.054,3.054,0,0,0,.6,1.136,2.678,2.678,0,0,0,2.972.224,14.032,14.032,0,0,1,2.9-1.3c1.851-.337,3.659.939,5.538.827a7.7,7.7,0,0,0,3.729-1.641,20.613,20.613,0,0,0,5.02-4.206c.813-1.08,1.4-2.3,2.131-3.449a44.237,44.237,0,0,1,3.015-4.024l6.9-8.413a19.383,19.383,0,0,0,1.851-2.552,17.991,17.991,0,0,0,1.4-3.856,29.543,29.543,0,0,0,1.4-6.856,26.354,26.354,0,0,0-.5-5.749,20.321,20.321,0,0,0-1.4-5.482C528.841,599.916,525.2,597.336,522.377,600.617Z" transform="translate(125.302 13.024)" fill="#2f2e41"/>
      <path id="Path_14448" data-name="Path 14448" d="M548.3,600.181a13.46,13.46,0,0,0-5.524-10.936,16,16,0,0,0-13.587-15.578,15.521,15.521,0,0,0-30.58.828c-4.963-1.122-9.506.336-10.334,3.393s2.678,7.011,7.908,8.413a14.731,14.731,0,0,0,5.076.5,15.535,15.535,0,0,0,10.684,6.66,15.942,15.942,0,0,0,11.666,12.03,13.39,13.39,0,0,0,3.6,4.978v1.164a10.109,10.109,0,1,0,20.218,0,10.8,10.8,0,0,0-.967-4.473A13.516,13.516,0,0,0,548.3,600.181Z" transform="translate(123.385 -2.216)" fill="#f86d70"/>
      <path id="Path_14449" data-name="Path 14449" d="M491.644,578.534c.827-3.057,5.37-4.515,10.334-3.393A15.788,15.788,0,0,1,517.4,561.849h1.023a15.2,15.2,0,0,0-4.4-.659A15.788,15.788,0,0,0,498.6,574.482c-4.963-1.122-9.506.336-10.334,3.393s2.678,7.011,7.908,8.413a15.436,15.436,0,0,0,3,.519C494.168,585.306,490.816,581.661,491.644,578.534Z" transform="translate(123.381 -2.218)" opacity="0.1"/>
      <path id="Path_14450" data-name="Path 14450" d="M526.674,604.732a10.593,10.593,0,0,1,0-1.15,13.094,13.094,0,0,1-3.6-4.978A15.9,15.9,0,0,1,511.4,586.56a15.494,15.494,0,0,1-10.7-6.646,13.444,13.444,0,0,1-2.987-.084,15.577,15.577,0,0,0,10.306,6.127,15.942,15.942,0,0,0,11.665,12.03,13.391,13.391,0,0,0,3.6,4.977v1.164a10.292,10.292,0,0,0,10.053,10.46A10.46,10.46,0,0,1,526.674,604.732Z" transform="translate(127.231 5.277)" opacity="0.1"/>
      <ellipse id="Ellipse_756" data-name="Ellipse 756" cx="1.837" cy="2.454" rx="1.837" ry="2.454" transform="translate(632.283 591.137) rotate(-37.22)" fill="#fbbebe"/>
    </g>
  </g>
</svg>
